<svg width="400" height="312" viewBox="0 0 400 312" fill="none" xmlns="http://www.w3.org/2000/svg">
<path d="M58.6388 311.863H215.108H310.32C320.537 311.863 330.501 308.733 338.829 302.907L349.311 295.574C371.018 280.389 371.67 248.88 350.608 232.837C330.068 217.192 330.08 186.661 350.631 171.03L357.981 165.44C379.386 149.161 382.385 118.471 364.524 98.4729L331.069 61.014C307.874 35.0425 266.958 34.5028 243.064 59.8531C221.619 82.6046 185.841 84.86 161.624 64.9868L153.819 58.5819C134.854 43.0187 108.771 38.8897 85.8061 47.8151C52.2587 60.8533 35.0479 97.5496 46.724 131.144L61.7108 174.264C68.9487 195.089 58.9897 217.926 38.6685 227.102C23.1983 234.089 13.2812 249.308 13.2812 266.064V267.211C13.2812 291.872 33.5885 311.863 58.6388 311.863Z" fill="#E7E8FF"/>
<path d="M192.026 9.50912C192.026 5.00761 195.745 1.3584 200.333 1.3584H377.948C382.536 1.3584 386.255 5.0076 386.255 9.50911V183.791C386.255 188.292 382.536 191.942 377.948 191.942H200.333C195.745 191.942 192.026 188.292 192.026 183.791V9.50912Z" fill="white"/>
<path fill-rule="evenodd" clip-rule="evenodd" d="M190.781 9.50913C190.781 4.3329 195.057 0.136719 200.332 0.136719H377.948C383.224 0.136719 387.5 4.33288 387.5 9.50912V183.791C387.5 188.967 383.224 193.163 377.948 193.163H200.332C195.057 193.163 190.781 188.967 190.781 183.791V9.50913ZM200.332 2.58009C196.432 2.58009 193.271 5.68233 193.271 9.50913V183.791C193.271 187.618 196.432 190.72 200.332 190.72H377.948C381.848 190.72 385.01 187.618 385.01 183.791V9.50912C385.01 5.68233 381.848 2.58009 377.948 2.58009H200.332Z" fill="#032068"/>
<path d="M192.026 9.50911C192.026 5.0076 195.745 1.3584 200.333 1.3584H377.948C382.536 1.3584 386.255 5.0076 386.255 9.50911V29.4572H192.026V9.50911Z" fill="#032068"/>
<path d="M218.305 15.608C218.305 18.9808 215.519 21.715 212.081 21.715C208.644 21.715 205.857 18.9808 205.857 15.608C205.857 12.2352 208.644 9.50098 212.081 9.50098C215.519 9.50098 218.305 12.2352 218.305 15.608Z" fill="white"/>
<path d="M239.053 15.608C239.053 18.9808 236.267 21.715 232.829 21.715C229.392 21.715 226.605 18.9808 226.605 15.608C226.605 12.2352 229.392 9.50098 232.829 9.50098C236.267 9.50098 239.053 12.2352 239.053 15.608Z" fill="white"/>
<path d="M259.796 15.608C259.796 18.9808 257.009 21.715 253.572 21.715C250.135 21.715 247.348 18.9808 247.348 15.608C247.348 12.2352 250.135 9.50098 253.572 9.50098C257.009 9.50098 259.796 12.2352 259.796 15.608Z" fill="white"/>
<path d="M182.467 106.898C181.267 110.169 183.738 114.109 185.123 115.67L175.078 127.05C174.395 127.015 172.724 124.176 169.673 123.416C166.621 122.655 163.9 120.431 160.58 116.767C160.002 115.813 157.462 112.742 157.84 109.479C158.216 106.217 164.569 99.2067 168.091 98.4591C170.908 97.8611 175.682 101.81 177.289 104.102C177.982 101.989 179.018 100.786 181.049 98.722C182.475 97.7563 185.007 97.5924 185.541 99.1974C185.902 100.285 185.527 101.478 184.744 102.334C183.633 103.548 183.27 104.712 182.467 106.898Z" fill="#EFCB96"/>
<path d="M275.499 78.2734L272.799 87.9384C271.449 92.7709 275.499 98.482 286.748 98.482C295.746 98.482 297.096 90.2814 296.646 86.1811L294.397 75.1982C296.646 73.0016 298.446 71.6836 298.446 61.14C298.446 47.9604 291.247 43.1279 282.698 43.1279C274.149 43.1279 266.95 50.1494 266.95 62.8973C266.949 73.8802 272.949 77.3948 275.499 78.2734Z" fill="#EFCB96"/>
<path d="M283.596 93.6492C291.875 93.6492 296.045 88.3774 297.095 85.7415L297.138 85.7415C305.09 85.7415 318.047 85.7414 331.29 97.6031C344.557 109.486 355.635 126.159 365.658 155.841C369.584 167.468 370.023 183.538 368.823 189.835H233.252C217.954 189.835 205.821 187.166 201.601 182.109C191.702 170.247 170.633 134.481 171.533 130.088C172.433 125.695 183.681 111.774 186.83 113.092C189.35 114.146 202.128 123.393 215.316 133.179C230.614 93.6492 261.999 85.1558 272.348 85.7415C272.648 88.3774 275.317 93.6492 283.596 93.6492Z" fill="#2792A8"/>
<path d="M253.45 69.0476C246.611 76.0767 247.001 88.3776 248.05 93.6494C259.582 86.894 268.475 85.5904 272.314 85.7417C272.314 86.4857 272.85 88.017 273.117 88.0542L275.497 78.2733C270.707 76.2909 267.398 72.5622 266.948 62.4579C266.948 54.5743 270.698 48.839 272.797 47.0817C279.997 46.6424 283.596 55.4287 285.846 58.9433C287.646 61.7549 288.995 61.2863 289.445 60.7006C291.695 55.4287 295.745 54.9894 296.645 60.7006C297.364 65.2695 293.945 67.5832 292.145 68.169L296.811 86.8778L297.212 86.0936C305.244 86.0936 316.064 88.5527 320.042 90.1349C321.392 76.0767 310.143 71.2442 306.543 62.4579C302.944 53.6715 307.893 49.2783 304.294 43.5672C301.626 39.3342 296.645 38.7347 293.495 37.8561C290.345 36.9774 288.546 33.4629 284.946 31.7056C278.647 29.509 272.647 34.9272 270.998 38.7347C269.948 38.5882 266.948 38.9983 263.349 41.8099C253 48.839 261.999 60.2613 253.45 69.0476Z" fill="#032068"/>
<path d="M325.567 136.27C329.787 155.842 334.648 183.484 334.007 189.835H340.337C340.566 177.582 329.259 142.965 325.567 136.27Z" fill="#032068"/>
<path d="M284.946 77.834C279.546 79.2398 276.397 78.7126 275.497 78.2733L274.147 83.1058C279.906 83.8087 283.746 79.8841 284.946 77.834Z" fill="#032068"/>
<path d="M235.89 130.604C232.092 146.261 229.736 176.615 229.033 189.835H224.812C225.657 168.408 232.549 141.42 235.89 130.604Z" fill="#032068"/>
<path d="M203.184 183.139C217.11 179.843 224.46 181.766 226.395 183.139L225.34 189.835C214.789 189.835 206.173 185.371 203.184 183.139Z" fill="#032068"/>
<path d="M95.2949 178.214L93.1068 189.524L95.2949 201.373C100.948 202.092 112.471 203.528 113.347 203.528C114.222 203.528 120.64 198.142 123.74 195.449L120.458 178.214C129.648 175.198 132.675 161.876 133.04 155.593C135.228 129.74 117.723 126.509 114.441 126.509C111.159 126.509 90.3717 126.509 87.6366 148.053C85.4485 165.288 91.8304 175.341 95.2949 178.214Z" fill="#EFCB96"/>
<path d="M42.2329 311.785H128.116L236.974 311.247C243.71 306.921 245.595 299.943 245.613 294.024C245.628 289.174 242.078 285.273 237.641 283.167C220.013 274.8 193.258 261.852 188.289 258.464C181.177 253.617 174.613 227.226 161.484 206.759C150.982 190.386 131.216 186.652 123.193 186.831C122.463 190.063 119.363 196.526 108.423 196.526C97.4825 196.526 92.9239 190.063 91.4652 186.831C85.8126 186.831 70.1312 189.847 57.0026 201.912C40.6032 216.982 33.4904 251.415 26.9299 283.173L26.9162 283.24C21.6647 308.661 34.9392 312.503 42.2329 311.785Z" fill="#2792A8"/>
<path d="M78.8835 270.313L87.0889 237.459L85.4478 270.313L122.812 279.286C127.609 280.438 132.096 283.375 133.003 288.154C134.623 296.68 131.393 305.745 127.569 309.092C130.851 304.468 130.851 287.01 127.022 284.317C123.958 282.162 85.9949 275.161 67.396 271.929L78.8835 270.313Z" fill="#032068"/>
<path d="M160.391 228.842L180.631 311.785H189.383L160.391 228.842Z" fill="#032068"/>
<path d="M101.31 167.442C99.122 179.937 96.0222 181.266 94.7458 180.368C79.4291 170.674 79.7986 139.699 89.2756 129.202C98.0279 119.507 104.592 123.277 122.644 118.969C140.696 114.66 146.713 122.2 143.431 131.895C138.706 145.851 123.738 138.358 119.909 139.974C116.08 141.59 111.157 145.898 108.968 154.516C106.78 163.133 105.686 161.518 104.045 156.67C102.404 151.823 98.0279 144.821 94.7458 153.439C92.1201 160.333 98.0279 165.647 101.31 167.442Z" fill="#032068"/>
<path d="M165.86 311.786C165.86 297.136 143.797 292.756 133.039 292.396C133.039 299.721 128.48 308.375 125.927 311.786H165.86Z" fill="#EFCB96"/>
<path d="M272.182 310.796C272.182 297.774 254.698 295.007 245.266 294.688C245.266 301.199 239.41 307.764 237.172 310.796H272.182Z" fill="#EFCB96"/>
<path fill-rule="evenodd" clip-rule="evenodd" d="M25.7459 292.345C25.4873 302.742 29.1903 311.786 40.4895 311.786H50.4404C47.8148 294.551 33.926 284.138 27.3615 281.086C27.2173 281.783 27.0735 282.479 26.93 283.174L26.9163 283.24C26.2167 286.627 25.8458 289.65 25.7459 292.345Z" fill="#032068"/>
<path d="M109.959 178.05C115.053 179.722 118.583 178.746 120.352 178.05L121.993 185.59C115.2 184.754 111.374 179.966 109.959 178.05Z" fill="#032068"/>
<path d="M222.199 232.689L192.722 298.575C191.242 301.883 193.703 305.596 197.375 305.596H287.322C289.388 305.596 291.248 304.366 292.029 302.484L319.357 236.597C320.722 233.305 318.262 229.701 314.65 229.701H226.852C224.837 229.701 223.011 230.873 222.199 232.689Z" fill="white"/>
<path fill-rule="evenodd" clip-rule="evenodd" d="M226.852 230.741C225.255 230.741 223.809 231.669 223.165 233.108L193.688 298.994C192.516 301.615 194.466 304.557 197.375 304.557H287.322C288.959 304.557 290.433 303.583 291.051 302.091L318.379 236.204C319.461 233.596 317.512 230.741 314.65 230.741H226.852ZM221.233 232.27C222.214 230.077 224.418 228.662 226.852 228.662H314.65C319.012 228.662 321.983 233.015 320.334 236.99L293.007 302.877C292.064 305.15 289.817 306.636 287.322 306.636H197.375C192.941 306.636 189.968 302.151 191.756 298.157L221.233 232.27Z" fill="#032068"/>
<path d="M249.673 262.378C251.326 258.604 255.101 256.16 259.276 256.16C266.794 256.16 271.856 263.735 268.879 270.53L268.137 272.224C266.484 275.997 262.709 278.441 258.534 278.441C251.016 278.441 245.954 270.866 248.931 264.071L249.673 262.378Z" fill="#2792A8"/>
<path d="M285.91 311.863H129.806C127.266 311.863 125.208 309.837 125.208 307.337C125.208 304.838 127.266 302.812 129.806 302.812H285.91C289.205 302.812 291.43 306.122 290.142 309.107C289.421 310.778 287.755 311.863 285.91 311.863Z" fill="#032068"/>
<path d="M99.4733 75.2139C97.6469 78.9088 92.2575 80.1185 89.7911 80.2614L89.5219 95.9203C90.1078 96.457 91.6623 97.9804 93.1934 99.7807C94.084 101.193 105.994 100.987 111.838 100.707C113.127 100.396 115.801 99.6156 116.192 98.9791C116.68 98.1834 120.639 83.6684 118.412 80.1375C116.631 77.3127 109.639 77.7337 106.366 78.2973C108.415 75.4697 108.283 70.7047 107.658 66.9946C107.325 65.0174 105.154 64.0782 103.344 64.9624C102.118 65.5613 101.4 66.8567 101.304 68.2114C101.168 70.134 100.693 72.7454 99.4733 75.2139Z" fill="#2792A8"/>
<path d="M77.7289 78.2416C77.726 76.9356 78.7888 75.8746 80.1028 75.8717L88.6823 75.853C89.9963 75.8501 91.0638 76.9065 91.0667 78.2124L91.1117 98.5202C91.1146 99.8261 90.0517 100.887 88.7377 100.89L80.1583 100.909C78.8443 100.912 77.7768 99.8553 77.7739 98.5493L77.7289 78.2416Z" fill="#032068"/>
<path d="M148.288 25.8159L149.742 30.1223C149.831 30.3843 149.763 30.6687 149.566 30.8597L147.062 33.2885C146.523 33.8111 147.062 34.7072 147.804 34.5237L151.319 33.655C151.575 33.5916 151.851 33.6654 152.043 33.8491L154.919 36.5947C155.46 37.1108 156.343 36.6452 156.175 35.9324L155.247 31.9875C155.193 31.7558 155.256 31.5157 155.417 31.3426L157.616 28.979C158.112 28.4466 157.576 27.596 156.854 27.7686L153.719 28.5177C153.467 28.5779 153.198 28.5065 153.007 28.329L149.518 25.0806C148.947 24.5493 148.042 25.0901 148.288 25.8159Z" fill="#2792A8"/>
<path d="M321.718 263.161C316.181 266.247 324.434 281.321 329.439 288.75C329.617 289.014 329.944 289.127 330.249 289.037L335.989 287.355C336.337 287.253 336.555 286.914 336.496 286.558C334.355 273.51 328.668 259.287 321.718 263.161Z" fill="#032068"/>
<path d="M338.759 222.822C321.893 226.59 326.812 266.8 331.521 287.151C331.615 287.558 332.035 287.789 332.438 287.671L346.027 283.691C346.284 283.616 346.475 283.417 346.529 283.157C351.055 261.198 355.724 219.032 338.759 222.822Z" fill="white"/>
<path fill-rule="evenodd" clip-rule="evenodd" d="M332.228 286.977L345.815 282.998C348.073 272.043 350.358 256.079 349.973 243.35C349.78 236.967 348.916 231.495 347.112 227.878C346.214 226.079 345.11 224.792 343.792 224.053C342.489 223.323 340.897 223.085 338.924 223.526C335.031 224.396 332.319 227.372 330.53 231.869C328.738 236.371 327.923 242.289 327.779 248.787C327.491 261.766 329.882 276.833 332.228 286.977ZM329.17 231.331C331.055 226.593 334.053 223.129 338.593 222.115C340.861 221.608 342.835 221.859 344.506 222.796C346.162 223.723 347.441 225.28 348.421 227.244C350.371 231.154 351.239 236.886 351.434 243.316C351.824 256.209 349.513 272.302 347.245 283.306C347.136 283.837 346.741 284.238 346.239 284.385L332.649 288.365C331.861 288.595 331.001 288.145 330.808 287.308C328.446 277.1 326.026 261.895 326.318 248.746C326.464 242.177 327.287 236.063 329.17 231.331Z" fill="#032068"/>
<path d="M354.856 245.915C344.771 247.392 343.109 271.573 343.506 284.196C343.521 284.669 343.986 284.993 344.443 284.859L351.811 282.702C352.023 282.64 352.191 282.493 352.274 282.291C357.509 269.446 365.109 244.412 354.856 245.915Z" fill="#032068"/>
<path fill-rule="evenodd" clip-rule="evenodd" d="M340.021 239.38L340.114 228.584L338.654 228.563L338.464 250.663L332.826 245.31L331.819 246.35L338.447 252.643L338.26 274.391L333.324 270.309L332.392 271.416L338.244 276.255L338.162 285.752L339.622 285.774L339.789 266.391L345.591 260.761L344.566 259.725L339.806 264.343L340.003 241.496L344.799 236.534L343.741 235.531L340.021 239.38Z" fill="#032068"/>
<path d="M319.436 282.904C319.143 281.554 320.186 280.281 321.586 280.281H355.137C356.506 280.281 357.542 281.502 357.301 282.83L352.366 310.077C352.179 311.111 351.267 311.864 350.202 311.864H327.508C326.471 311.864 325.575 311.15 325.358 310.15L319.436 282.904Z" fill="#2792A8"/>
<path d="M344.708 56.2357L345.897 61.8137C345.969 62.1531 345.842 62.5011 345.569 62.7159L342.087 65.4477C341.338 66.0355 341.88 67.2256 342.834 67.0882L347.35 66.4375C347.68 66.39 348.013 66.5168 348.227 66.771L351.418 70.5702C352.018 71.2845 353.189 70.811 353.084 69.8968L352.5 64.8372C352.465 64.5402 352.579 64.2471 352.806 64.0502L355.897 61.3622C356.594 60.7567 356.049 59.6241 355.122 59.7503L351.097 60.2985C350.774 60.3425 350.448 60.2195 350.236 59.9732L346.351 55.4674C345.716 54.7305 344.507 55.2954 344.708 56.2357Z" fill="#2792A8"/>
<path d="M40.8126 172.236L39.5072 173.817C39.4278 173.913 39.2982 173.959 39.1714 173.937L37.5579 173.651C37.2108 173.59 37.0014 174.002 37.2693 174.219L38.5373 175.249C38.6299 175.324 38.6736 175.44 38.6524 175.553L38.3342 177.251C38.2744 177.57 38.6901 177.768 38.9255 177.532L40.228 176.227C40.3045 176.151 40.4154 176.114 40.5258 176.128L42.0333 176.322C42.3729 176.366 42.5652 175.966 42.307 175.753L41.1859 174.828C41.0958 174.754 41.0528 174.641 41.0721 174.529L41.4256 172.49C41.4834 172.157 41.0327 171.97 40.8126 172.236Z" fill="#2792A8"/>
</svg>
