<svg width="400" height="312" viewBox="0 0 400 312" fill="none" xmlns="http://www.w3.org/2000/svg">
<path d="M159.255 311.599H231.984H303.135C329.845 311.599 353.34 293.119 360.777 266.261L365.532 249.088C371.766 226.572 360.053 202.891 338.892 195.228C309.668 184.646 300.985 145.766 322.699 122.715L324.876 120.404C346.507 97.44 339.484 58.9118 311.295 45.9023L229.266 8.04455C204.585 -3.34612 176.23 -1.96115 152.669 11.7859L139.275 19.6007C111.594 35.752 98.4752 69.9742 107.811 101.68C115.146 126.589 108.708 153.702 91.0866 172.115L89.9844 173.267C61.5099 203.021 62.9419 251.765 93.1093 279.631L104.07 289.755C119.309 303.832 138.932 311.599 159.255 311.599Z" fill="#E7E8FF"/>
<path d="M383.474 273.024C383.701 291.049 371.978 306.268 366.024 311.598H356.899C363.682 287.548 374.897 275.59 381.181 271.61C382.227 270.947 383.458 271.742 383.474 273.024Z" fill="#032068"/>
<path d="M384.438 213.884C393.786 250.741 370.224 294.393 360.092 310.642H339.562C348.381 241.101 363.165 224.2 381.856 212.779C382.859 212.166 384.14 212.707 384.438 213.884Z" fill="white"/>
<path fill-rule="evenodd" clip-rule="evenodd" d="M382.315 213.606C382.809 213.305 383.416 213.575 383.557 214.13C388.162 232.287 384.673 252.197 378.711 269.668C372.86 286.817 364.667 301.504 359.598 309.685H340.605C344.994 275.591 350.828 254.409 357.816 240.358C364.853 226.208 373.081 219.248 382.315 213.606ZM385.32 213.638C384.864 211.839 382.91 211.027 381.397 211.952C371.94 217.731 363.43 224.931 356.198 239.473C348.991 253.964 343.072 275.703 338.658 310.516L338.521 311.599H360.586L360.856 311.166C365.945 303.005 374.408 287.96 380.429 270.313C386.445 252.683 390.063 232.338 385.32 213.638Z" fill="#032068"/>
<path d="M351.336 236.559C359.41 267.446 350.167 299.544 344.124 311.599H329.069C325.682 273.956 339.446 246.583 348.496 235.822C349.389 234.76 350.979 235.194 351.336 236.559Z" fill="#032068"/>
<path fill-rule="evenodd" clip-rule="evenodd" d="M371.658 240.11L376.57 225.64L378.289 226.281L367.039 259.426L374.43 257.099L374.954 258.931L366.28 261.663L356.049 291.807L365.257 288.216L365.893 290.01L355.25 294.16L349.547 310.963L347.827 310.321L359.41 276.196L355.127 263.599L356.846 262.956L360.378 273.344L370.624 243.158L367.431 231.976L369.179 231.427L371.658 240.11Z" fill="#032068"/>
<path fill-rule="evenodd" clip-rule="evenodd" d="M343.637 261.222L345.964 247.797L347.76 248.139L343.035 275.39L349.174 272L350.025 273.693L342.62 277.782L338.568 301.154L343.644 296.972L344.771 298.477L338.076 303.994L336.81 311.291L335.015 310.949L338.261 292.229L332.908 284.911L334.356 283.746L338.701 289.687L343.228 263.577L338.893 258.665L340.232 257.365L343.637 261.222Z" fill="white"/>
<path d="M185.502 31.7305C185.502 25.034 190.695 19.6055 197.1 19.6055H327.577C333.983 19.6055 339.175 25.034 339.175 31.7305V298.67C339.175 305.367 333.983 310.795 327.577 310.795H197.1C190.695 310.795 185.502 305.367 185.502 298.67V31.7305Z" fill="white"/>
<path fill-rule="evenodd" clip-rule="evenodd" d="M184.536 31.7311C184.536 24.4766 190.161 18.5957 197.1 18.5957H327.577C334.516 18.5957 340.142 24.4766 340.142 31.7311V298.671C340.142 305.925 334.516 311.806 327.577 311.806H197.1C190.161 311.806 184.536 305.925 184.536 298.671V31.7311ZM197.1 20.6165C191.229 20.6165 186.469 25.5927 186.469 31.7311V298.671C186.469 304.809 191.229 309.786 197.1 309.786H327.577C333.449 309.786 338.209 304.809 338.209 298.671V31.7311C338.209 25.5927 333.449 20.6165 327.577 20.6165H197.1Z" fill="#032068"/>
<path d="M201.933 212.578C201.933 220.391 207.991 226.724 215.464 226.724C218.045 226.724 220.457 225.969 222.509 224.658L226.439 226.115C227.154 226.381 227.87 225.72 227.706 224.945L226.745 220.392C228.167 218.153 228.995 215.467 228.995 212.578C228.995 204.766 222.937 198.433 215.464 198.433C207.991 198.433 201.933 204.766 201.933 212.578Z" fill="white"/>
<path fill-rule="evenodd" clip-rule="evenodd" d="M215.464 199.443C208.525 199.443 202.899 205.324 202.899 212.578C202.899 219.833 208.525 225.714 215.464 225.714C217.862 225.714 220.1 225.012 222.005 223.795L222.398 223.544L226.762 225.163L225.713 220.19L225.94 219.833C227.259 217.754 228.028 215.262 228.028 212.578C228.028 205.324 222.403 199.443 215.464 199.443ZM200.966 212.578C200.966 204.208 207.457 197.422 215.464 197.422C223.47 197.422 229.961 204.208 229.961 212.578C229.961 215.516 229.161 218.261 227.776 220.584L228.65 224.727C228.977 226.277 227.547 227.598 226.116 227.067L222.611 225.768C220.501 227.02 218.061 227.734 215.464 227.734C207.457 227.734 200.966 220.949 200.966 212.578Z" fill="#032068"/>
<path d="M222.513 207.974C223.058 210.819 220.949 214.493 219.827 215.975C217.884 218.539 215.164 220.771 213.379 220.789C208.024 220.842 208.318 217.446 208.638 216.934C208.958 216.422 211.044 213.856 212.681 215.367C214.317 216.878 215.77 216.015 217.538 214.131C219.306 212.248 218.968 210.724 217.496 209.551C216.025 208.378 217.787 205.816 218.589 204.79C219.391 203.764 221.832 204.418 222.513 207.974Z" fill="#2792A8"/>
<path d="M231.756 29.3177L226.801 19.6055H297.875L292.046 29.7614C290.3 32.8048 287.154 34.667 283.759 34.667H240.284C236.714 34.667 233.436 32.6103 231.756 29.3177Z" fill="#032068"/>
<path d="M337.29 25.6299H186.407C191.401 20.4085 196.171 19.4379 197.932 19.6053H325.764C331.911 19.6053 336.009 23.6217 337.29 25.6299Z" fill="#032068"/>
<path d="M337.219 305.086H187.462C192.652 310.392 195.652 311.378 197.482 311.208H327.2C333.588 311.208 335.889 307.127 337.219 305.086Z" fill="#032068"/>
<path d="M229.961 63.0361C229.961 61.362 231.259 60.0049 232.861 60.0049H289.884C291.485 60.0049 292.783 61.362 292.783 63.0361C292.783 64.7103 291.485 66.0674 289.884 66.0674H232.861C231.259 66.0674 229.961 64.7103 229.961 63.0361Z" fill="#2792A8"/>
<path d="M239.626 120.124C239.626 119.287 240.275 118.608 241.076 118.608H294.233C295.034 118.608 295.683 119.287 295.683 120.124C295.683 120.961 295.034 121.64 294.233 121.64H241.076C240.275 121.64 239.626 120.961 239.626 120.124Z" fill="#E7E8FF"/>
<path d="M239.626 166.604C239.626 165.766 240.275 165.088 241.076 165.088H294.233C295.034 165.088 295.683 165.766 295.683 166.604C295.683 167.441 295.034 168.119 294.233 168.119H241.076C240.275 168.119 239.626 167.441 239.626 166.604Z" fill="#E7E8FF"/>
<path d="M239.626 213.083C239.626 212.246 240.275 211.567 241.076 211.567H294.233C295.034 211.567 295.683 212.246 295.683 213.083C295.683 213.92 295.034 214.599 294.233 214.599H241.076C240.275 214.599 239.626 213.92 239.626 213.083Z" fill="#E7E8FF"/>
<path d="M239.626 259.562C239.626 258.725 240.275 258.047 241.076 258.047H294.233C295.034 258.047 295.683 258.725 295.683 259.562C295.683 260.4 295.034 261.078 294.233 261.078H241.076C240.275 261.078 239.626 260.4 239.626 259.562Z" fill="#E7E8FF"/>
<path d="M196.134 87.0234C196.134 86.1864 196.783 85.5078 197.584 85.5078H327.094C327.895 85.5078 328.544 86.1864 328.544 87.0234C328.544 87.8605 327.895 88.5391 327.094 88.5391H197.584C196.783 88.5391 196.134 87.8605 196.134 87.0234Z" fill="#E7E8FF"/>
<path d="M196.134 291.128C196.134 290.291 196.783 289.612 197.584 289.612H327.094C327.895 289.612 328.544 290.291 328.544 291.128C328.544 291.965 327.895 292.644 327.094 292.644H197.584C196.783 292.644 196.134 291.965 196.134 291.128Z" fill="#E7E8FF"/>
<path fill-rule="evenodd" clip-rule="evenodd" d="M329.752 34.2939V42.5585H327.819V34.2939H329.752Z" fill="#032068"/>
<path fill-rule="evenodd" clip-rule="evenodd" d="M324.811 35.3271V42.5587H322.878V35.3271H324.811Z" fill="#032068"/>
<path fill-rule="evenodd" clip-rule="evenodd" d="M319.871 37.3936V42.5589H317.938V37.3936H319.871Z" fill="#032068"/>
<path fill-rule="evenodd" clip-rule="evenodd" d="M314.93 39.459V42.5582H312.997V39.459H314.93Z" fill="#032068"/>
<path d="M308.247 163.067C308.247 161.393 309.545 160.036 311.147 160.036H325.644C327.246 160.036 328.544 161.393 328.544 163.067V169.13C328.544 170.804 327.246 172.161 325.644 172.161H311.147C309.545 172.161 308.247 170.804 308.247 169.13V163.067Z" fill="white"/>
<path fill-rule="evenodd" clip-rule="evenodd" d="M307.281 163.067C307.281 160.835 309.012 159.025 311.147 159.025H325.644C327.779 159.025 329.51 160.835 329.51 163.067V169.13C329.51 171.362 327.779 173.171 325.644 173.171H311.147C309.012 173.171 307.281 171.362 307.281 169.13V163.067ZM311.147 161.046C310.079 161.046 309.214 161.951 309.214 163.067V169.13C309.214 170.246 310.079 171.15 311.147 171.15H325.644C326.712 171.15 327.577 170.246 327.577 169.13V163.067C327.577 161.951 326.712 161.046 325.644 161.046H311.147Z" fill="#032068"/>
<path d="M319.845 163.067C319.845 161.393 321.143 160.036 322.745 160.036H325.644C327.246 160.036 328.544 161.393 328.544 163.067V169.13C328.544 170.804 327.246 172.161 325.644 172.161H322.745C321.143 172.161 319.845 170.804 319.845 169.13V163.067Z" fill="#2792A8"/>
<path fill-rule="evenodd" clip-rule="evenodd" d="M318.879 163.067C318.879 160.835 320.61 159.025 322.745 159.025H325.644C327.779 159.025 329.51 160.835 329.51 163.067V169.13C329.51 171.362 327.779 173.171 325.644 173.171H322.745C320.61 173.171 318.879 171.362 318.879 169.13V163.067ZM322.745 161.046C321.677 161.046 320.812 161.951 320.812 163.067V169.13C320.812 170.246 321.677 171.15 322.745 171.15H325.644C326.712 171.15 327.577 170.246 327.577 169.13V163.067C327.577 161.951 326.712 161.046 325.644 161.046H322.745Z" fill="#032068"/>
<path d="M308.247 209.547C308.247 207.873 309.545 206.516 311.147 206.516H325.644C327.246 206.516 328.544 207.873 328.544 209.547V215.609C328.544 217.284 327.246 218.641 325.644 218.641H311.147C309.545 218.641 308.247 217.284 308.247 215.609V209.547Z" fill="white"/>
<path fill-rule="evenodd" clip-rule="evenodd" d="M307.281 209.547C307.281 207.314 309.012 205.505 311.147 205.505H325.644C327.779 205.505 329.51 207.314 329.51 209.547V215.609C329.51 217.841 327.779 219.651 325.644 219.651H311.147C309.012 219.651 307.281 217.841 307.281 215.609V209.547ZM311.147 207.526C310.079 207.526 309.214 208.43 309.214 209.547V215.609C309.214 216.725 310.079 217.63 311.147 217.63H325.644C326.712 217.63 327.577 216.725 327.577 215.609V209.547C327.577 208.43 326.712 207.526 325.644 207.526H311.147Z" fill="#032068"/>
<path d="M308.247 209.547C308.247 207.873 309.545 206.516 311.147 206.516H314.046C315.648 206.516 316.946 207.873 316.946 209.547V215.609C316.946 217.284 315.648 218.641 314.046 218.641H311.147C309.545 218.641 308.247 217.284 308.247 215.609V209.547Z" fill="#032068"/>
<path fill-rule="evenodd" clip-rule="evenodd" d="M307.281 209.547C307.281 207.314 309.012 205.505 311.147 205.505H314.046C316.181 205.505 317.912 207.314 317.912 209.547V215.609C317.912 217.841 316.181 219.651 314.046 219.651H311.147C309.012 219.651 307.281 217.841 307.281 215.609V209.547ZM311.147 207.526C310.079 207.526 309.214 208.43 309.214 209.547V215.609C309.214 216.725 310.079 217.63 311.147 217.63H314.046C315.114 217.63 315.979 216.725 315.979 215.609V209.547C315.979 208.43 315.114 207.526 314.046 207.526H311.147Z" fill="#032068"/>
<path d="M308.247 257.036C308.247 255.362 309.545 254.005 311.147 254.005H325.644C327.246 254.005 328.544 255.362 328.544 257.036V263.099C328.544 264.773 327.246 266.13 325.644 266.13H311.147C309.545 266.13 308.247 264.773 308.247 263.099V257.036Z" fill="white"/>
<path fill-rule="evenodd" clip-rule="evenodd" d="M307.281 257.036C307.281 254.804 309.012 252.994 311.147 252.994H325.644C327.779 252.994 329.51 254.804 329.51 257.036V263.098C329.51 265.33 327.779 267.14 325.644 267.14H311.147C309.012 267.14 307.281 265.33 307.281 263.098V257.036ZM311.147 255.015C310.079 255.015 309.214 255.92 309.214 257.036V263.098C309.214 264.214 310.079 265.119 311.147 265.119H325.644C326.712 265.119 327.577 264.214 327.577 263.098V257.036C327.577 255.92 326.712 255.015 325.644 255.015H311.147Z" fill="#032068"/>
<path d="M308.247 257.036C308.247 255.362 309.545 254.005 311.147 254.005H314.046C315.648 254.005 316.946 255.362 316.946 257.036V263.099C316.946 264.773 315.648 266.13 314.046 266.13H311.147C309.545 266.13 308.247 264.773 308.247 263.099V257.036Z" fill="#032068"/>
<path fill-rule="evenodd" clip-rule="evenodd" d="M307.281 257.036C307.281 254.804 309.012 252.994 311.147 252.994H314.046C316.181 252.994 317.912 254.804 317.912 257.036V263.098C317.912 265.33 316.181 267.14 314.046 267.14H311.147C309.012 267.14 307.281 265.33 307.281 263.098V257.036ZM311.147 255.015C310.079 255.015 309.214 255.92 309.214 257.036V263.098C309.214 264.214 310.079 265.119 311.147 265.119H314.046C315.114 265.119 315.979 264.214 315.979 263.098V257.036C315.979 255.92 315.114 255.015 314.046 255.015H311.147Z" fill="#032068"/>
<path d="M308.247 117.599C308.247 115.925 309.545 114.567 311.147 114.567H325.644C327.246 114.567 328.544 115.925 328.544 117.599V123.661C328.544 125.335 327.246 126.692 325.644 126.692H311.147C309.545 126.692 308.247 125.335 308.247 123.661V117.599Z" fill="white"/>
<path fill-rule="evenodd" clip-rule="evenodd" d="M307.281 117.598C307.281 115.366 309.012 113.557 311.147 113.557H325.644C327.779 113.557 329.51 115.366 329.51 117.598V123.661C329.51 125.893 327.779 127.702 325.644 127.702H311.147C309.012 127.702 307.281 125.893 307.281 123.661V117.598ZM311.147 115.577C310.079 115.577 309.214 116.482 309.214 117.598V123.661C309.214 124.777 310.079 125.682 311.147 125.682H325.644C326.712 125.682 327.577 124.777 327.577 123.661V117.598C327.577 116.482 326.712 115.577 325.644 115.577H311.147Z" fill="#032068"/>
<path d="M308.247 117.599C308.247 115.925 309.545 114.567 311.147 114.567H314.046C315.648 114.567 316.946 115.925 316.946 117.599V123.661C316.946 125.335 315.648 126.692 314.046 126.692H311.147C309.545 126.692 308.247 125.335 308.247 123.661V117.599Z" fill="#032068"/>
<path fill-rule="evenodd" clip-rule="evenodd" d="M307.281 117.598C307.281 115.366 309.012 113.557 311.147 113.557H314.046C316.181 113.557 317.912 115.366 317.912 117.598V123.661C317.912 125.893 316.181 127.702 314.046 127.702H311.147C309.012 127.702 307.281 125.893 307.281 123.661V117.598ZM311.147 115.577C310.079 115.577 309.214 116.482 309.214 117.598V123.661C309.214 124.777 310.079 125.682 311.147 125.682H314.046C315.114 125.682 315.979 124.777 315.979 123.661V117.598C315.979 116.482 315.114 115.577 314.046 115.577H311.147Z" fill="#032068"/>
<path d="M200.966 160.036C200.966 158.362 202.264 157.005 203.866 157.005H226.095C227.697 157.005 228.995 158.362 228.995 160.036V173.172C228.995 174.846 227.697 176.203 226.095 176.203H203.866C202.264 176.203 200.966 174.846 200.966 173.172V160.036Z" fill="white"/>
<path fill-rule="evenodd" clip-rule="evenodd" d="M200 160.036C200 157.804 201.731 155.994 203.866 155.994H226.095C228.23 155.994 229.961 157.804 229.961 160.036V173.171C229.961 175.403 228.23 177.213 226.095 177.213H203.866C201.731 177.213 200 175.403 200 173.171V160.036ZM203.866 158.015C202.798 158.015 201.933 158.92 201.933 160.036V173.171C201.933 174.287 202.798 175.192 203.866 175.192H226.095C227.163 175.192 228.028 174.287 228.028 173.171V160.036C228.028 158.92 227.163 158.015 226.095 158.015H203.866Z" fill="#032068"/>
<path fill-rule="evenodd" clip-rule="evenodd" d="M212.035 166.603L206.173 161.844L207.358 160.248L214.981 166.436L222.603 160.248L223.789 161.844L217.877 166.643L223.168 171.394L221.909 172.927L216.319 167.908L216.166 168.032C215.469 168.598 214.493 168.598 213.795 168.032L213.611 167.883L207.358 172.959L206.173 171.363L212.035 166.603Z" fill="#2792A8"/>
<path fill-rule="evenodd" clip-rule="evenodd" d="M214.98 106.484C207.774 106.484 201.933 112.591 201.933 120.124C201.933 127.658 207.774 133.765 214.98 133.765C222.186 133.765 228.028 127.658 228.028 120.124C228.028 112.591 222.186 106.484 214.98 106.484ZM200 120.124C200 111.475 206.707 104.463 214.98 104.463C223.254 104.463 229.961 111.475 229.961 120.124C229.961 128.774 223.254 135.786 214.98 135.786C206.707 135.786 200 128.774 200 120.124Z" fill="#032068"/>
<path d="M220.903 119.059L213.04 114.41C212.396 114.029 211.598 114.515 211.598 115.289V125.751C211.598 126.57 212.482 127.049 213.122 126.576L220.985 120.764C221.564 120.336 221.52 119.424 220.903 119.059Z" fill="#2792A8"/>
<path d="M203.866 251.984C203.866 250.31 205.164 248.953 206.765 248.953H223.196C224.797 248.953 226.095 250.31 226.095 251.984V269.161C226.095 270.836 224.797 272.193 223.196 272.193H206.765C205.164 272.193 203.866 270.836 203.866 269.161V251.984Z" fill="white"/>
<path fill-rule="evenodd" clip-rule="evenodd" d="M202.899 251.984C202.899 249.752 204.63 247.942 206.765 247.942H223.196C225.331 247.942 227.062 249.752 227.062 251.984V269.161C227.062 271.393 225.331 273.203 223.196 273.203H206.765C204.63 273.203 202.899 271.393 202.899 269.161V251.984ZM206.765 249.963C205.698 249.963 204.832 250.868 204.832 251.984V269.161C204.832 270.277 205.698 271.182 206.765 271.182H223.196C224.263 271.182 225.129 270.277 225.129 269.161V251.984C225.129 250.868 224.263 249.963 223.196 249.963H206.765Z" fill="#032068"/>
<path d="M220.296 260.573C220.296 263.642 217.916 266.13 214.981 266.13C212.045 266.13 209.665 263.642 209.665 260.573C209.665 257.504 212.045 255.016 214.981 255.016C217.916 255.016 220.296 257.504 220.296 260.573Z" fill="#2792A8"/>
<path d="M223.196 253.5C223.196 254.337 222.547 255.016 221.746 255.016C220.945 255.016 220.296 254.337 220.296 253.5C220.296 252.663 220.945 251.984 221.746 251.984C222.547 251.984 223.196 252.663 223.196 253.5Z" fill="#2792A8"/>
<path d="M73.961 186.308L72.0281 196.917L73.961 208.032C78.9546 208.705 89.135 210.053 89.9082 210.053C90.6814 210.053 96.3515 205 99.0899 202.474L96.1904 186.308C104.309 183.479 106.983 170.983 107.305 165.089C109.238 140.839 93.7742 137.808 90.8747 137.808C87.9752 137.808 69.6118 137.808 67.1956 158.016C65.2626 174.183 70.9005 183.613 73.961 186.308Z" fill="#EFCB96"/>
<path d="M86.8572 186.308C91.3579 187.876 95.1397 186.961 96.7025 186.308L97.6401 192.189C91.6392 191.405 88.1074 188.105 86.8572 186.308Z" fill="#032068"/>
<path d="M85.5589 203.484C75.894 203.484 71.8669 197.422 70.5782 194.391L67.1956 195.401L88.4585 310.589H91.8412H143.549L111.171 201.464L100.056 194.391H98.6066C97.9623 197.422 95.2239 203.484 85.5589 203.484Z" fill="white"/>
<path fill-rule="evenodd" clip-rule="evenodd" d="M71.1203 193.179L71.4615 193.981C72.6447 196.764 76.3849 202.475 85.5589 202.475C90.1834 202.475 93.0405 201.032 94.8118 199.331C96.6014 197.613 97.3712 195.546 97.6632 194.172L97.8314 193.381H100.327L111.986 200.8L144.86 311.6H87.6607L66.0789 194.685L71.1203 193.179ZM99.3526 195.402C98.8959 196.998 97.955 199.057 96.1193 200.819C93.9441 202.908 90.5995 204.496 85.5589 204.496C76.1718 204.496 71.7757 199.015 70.0631 195.596L68.3123 196.119L89.2563 309.579H142.237L110.356 202.129L99.7854 195.402H99.3526Z" fill="#032068"/>
<path d="M86.5255 254.511C83.8193 236.323 74.4443 206.516 70.0951 193.886C61.8799 195.401 43.6131 201.262 36.2677 212.578C28.9223 223.895 19.0319 261.415 15.0048 278.761C10.6556 294.422 10.6556 311.599 27.086 311.599H101.506C109.238 295.938 106.822 288.36 104.406 285.329C102.473 282.904 93.8969 280.95 89.8506 280.276C88.7991 271.227 87.6431 262.022 86.5255 254.511Z" fill="#2792A8"/>
<path d="M117.936 254.511C114.844 234.302 104.405 205.674 99.5729 193.886C105.211 194.223 118.42 197.018 126.152 205.506C135.817 216.115 151.281 255.521 154.18 259.563C159.979 266.636 204.473 285.469 205.404 288.865C209.27 294.422 204.921 309.073 200.089 311.599H124.219C123.413 300.653 121.029 274.719 117.936 254.511Z" fill="#2792A8"/>
<path d="M59.4636 272.699L66.7123 241.881L64.7794 272.193L100.675 281.688C103.376 282.403 105.846 284.158 106.631 286.953C109.058 295.597 105.374 305.607 102.473 309.074C105.433 305.537 105.372 288.36 101.989 285.834C99.2832 283.813 65.7459 277.245 49.3154 274.214L59.4636 272.699Z" fill="#032068"/>
<path d="M131.468 233.797L149.348 311.599H157.08L131.468 233.797Z" fill="#032068"/>
<path d="M136.3 311.6C136.3 297.858 116.809 293.749 107.305 293.412C107.305 300.283 103.922 307.053 101.023 311.6H136.3Z" fill="#EFCB96"/>
<path d="M230.05 311.6C230.05 299.385 214.703 295.227 206.371 294.928C206.371 301.035 202.549 308.755 200.572 311.6H230.05Z" fill="#EFCB96"/>
<path d="M71.0615 160.542C69.1285 166.2 74.4443 169.636 77.3438 170.646L72.5113 196.412L71.5448 194.391C60.4301 195.401 50.1208 200.454 45.9326 203.485C43.5164 187.823 52.6981 181.256 58.0138 169.131C63.3296 157.006 58.9803 128.714 86.0422 128.714C107.692 128.714 110.849 148.922 109.721 159.026C100.056 156.197 94.4185 145.723 92.8077 140.839C91.8412 143.365 83.626 166.099 80.7265 160.542C77.827 154.985 73.4778 153.469 71.0615 160.542Z" fill="#032068"/>
<path d="M116.487 198.938C109.915 192.067 107.305 176.204 106.822 169.131C105.275 180.851 99.0899 185.466 96.1904 186.308L97.6402 194.391C106.145 193.987 113.748 197.254 116.487 198.938Z" fill="#032068"/>
<path d="M33.8515 311.6C31.5319 295.433 19.8373 285.161 14.0383 282.298C10.9052 295.508 11.6221 311.6 25.153 311.6H33.8515Z" fill="#032068"/>
<path d="M195.991 234.682L169.011 298.733C167.657 301.948 169.91 305.558 173.27 305.558H255.597C257.488 305.558 259.191 304.362 259.906 302.532L284.918 238.481C286.168 235.281 283.916 231.777 280.61 231.777H200.25C198.405 231.777 196.735 232.917 195.991 234.682Z" fill="white"/>
<path fill-rule="evenodd" clip-rule="evenodd" d="M200.25 232.787C198.788 232.787 197.465 233.69 196.876 235.088L169.896 299.14C168.823 301.687 170.607 304.548 173.27 304.548H255.597C257.095 304.548 258.444 303.6 259.011 302.15L284.023 238.099C285.013 235.563 283.229 232.787 280.61 232.787H200.25ZM195.107 234.274C196.004 232.142 198.022 230.767 200.25 230.767H280.61C284.603 230.767 287.322 234.998 285.813 238.863L260.8 302.914C259.937 305.124 257.881 306.568 255.597 306.568H173.27C169.211 306.568 166.491 302.208 168.127 298.325L195.107 234.274Z" fill="#032068"/>
<path d="M221.138 263.543C222.651 259.875 226.106 257.499 229.927 257.499C236.808 257.499 241.442 264.863 238.717 271.469L238.037 273.115C236.524 276.784 233.069 279.159 229.248 279.159C222.367 279.159 217.733 271.796 220.458 265.19L221.138 263.543Z" fill="#2792A8"/>
<path d="M254.305 311.65H111.425C109.101 311.65 107.216 309.68 107.216 307.25C107.216 304.82 109.101 302.851 111.425 302.851H254.305C257.321 302.851 259.358 306.069 258.178 308.971C257.518 310.595 255.993 311.65 254.305 311.65Z" fill="#032068"/>
<path d="M75.3929 52.4317L72.4788 47.8329C71.9599 47.0139 70.7413 47.3725 70.7072 48.3543L70.5205 53.7378C70.5092 54.0635 70.3483 54.3635 70.0884 54.5435L65.3874 57.7992C64.6303 58.3236 64.9202 59.5512 65.8238 59.6469L71.4945 60.2475C71.7703 60.2767 72.0207 60.4282 72.1823 60.6636L75.8337 65.9818C76.376 66.7716 77.5679 66.3834 77.5852 65.4114L77.6941 59.2746C77.6994 58.9757 77.831 58.6946 78.0537 58.5069L83.0253 54.3152C83.7565 53.6986 83.3016 52.4642 82.3637 52.5198L76.2534 52.8825C75.9103 52.9028 75.5827 52.7312 75.3929 52.4317Z" fill="#2792A8"/>
<path d="M41.7697 110.731L40.3096 109.813C39.5044 109.306 38.5514 110.178 38.9241 111.08L39.58 112.667C39.7037 112.966 39.6817 113.309 39.521 113.588L38.4557 115.439C37.9875 116.253 38.7538 117.231 39.609 116.912L41.6123 116.164C41.8732 116.066 42.1616 116.091 42.4043 116.23L44.4877 117.432C45.3019 117.902 46.2187 117.016 45.8348 116.13L44.9513 114.092C44.8333 113.82 44.8366 113.507 44.9605 113.238L46.0041 110.968C46.411 110.082 45.493 109.172 44.6689 109.644L42.732 110.752C42.4305 110.924 42.0641 110.917 41.7697 110.731Z" fill="#2792A8"/>
<path d="M151.573 157.363L146.472 164.149C146.161 164.562 145.655 164.76 145.159 164.664L138.854 163.437C137.497 163.173 136.679 164.944 137.726 165.877L142.682 170.298C143.043 170.621 143.214 171.118 143.131 171.606L141.888 178.895C141.654 180.265 143.279 181.113 144.198 180.101L149.289 174.499C149.588 174.17 150.021 174.012 150.452 174.073L156.344 174.906C157.671 175.094 158.422 173.376 157.413 172.461L153.032 168.49C152.68 168.172 152.512 167.687 152.588 167.208L153.969 158.452C154.195 157.02 152.433 156.219 151.573 157.363Z" fill="#2792A8"/>
<path d="M149.074 101.623C149.074 107.098 144.814 111.536 139.559 111.536C134.303 111.536 130.043 107.098 130.043 101.623C130.043 96.1475 134.303 91.709 139.559 91.709C144.814 91.709 149.074 96.1475 149.074 101.623Z" fill="#2792A8"/>
<path d="M114.567 102.666H166.053C166.796 102.666 167.305 101.884 167.029 101.166L164.921 95.6769C163.386 91.6769 162.596 87.4083 162.596 83.1002V74.7512C162.596 61.9277 152.619 51.5322 140.31 51.5322C128.002 51.5322 118.024 61.9277 118.024 74.7512V83.1002C118.024 87.4083 117.235 91.6769 115.699 95.6769L113.592 101.166C113.316 101.884 113.824 102.666 114.567 102.666Z" fill="#032068"/>
<path d="M168.106 60.4025C168.106 67.3185 162.724 72.9251 156.086 72.9251C149.448 72.9251 144.066 67.3185 144.066 60.4025C144.066 53.4864 149.448 47.8799 156.086 47.8799C162.724 47.8799 168.106 53.4864 168.106 60.4025Z" fill="white"/>
<path fill-rule="evenodd" clip-rule="evenodd" d="M156.086 48.4043C149.726 48.4043 144.57 53.7761 144.57 60.4025C144.57 67.0289 149.726 72.4006 156.086 72.4006C162.446 72.4006 167.602 67.0289 167.602 60.4025C167.602 53.7761 162.446 48.4043 156.086 48.4043ZM143.563 60.4025C143.563 53.1968 149.17 47.3555 156.086 47.3555C163.002 47.3555 168.609 53.1968 168.609 60.4025C168.609 67.6082 163.002 73.4495 156.086 73.4495C149.17 73.4495 143.563 67.6082 143.563 60.4025Z" fill="#032068"/>
<path fill-rule="evenodd" clip-rule="evenodd" d="M154.386 61.2048C154.582 61 154.582 60.668 154.386 60.4632L150.174 56.0755C149.977 55.8707 149.977 55.5386 150.174 55.3338L151.221 54.2434C151.417 54.0386 151.736 54.0386 151.932 54.2434L156.144 58.6312C156.341 58.836 156.659 58.836 156.856 58.6312L161.067 54.2434C161.264 54.0386 161.583 54.0386 161.779 54.2434L162.826 55.3338C163.022 55.5386 163.022 55.8707 162.826 56.0755L158.614 60.4632C158.418 60.668 158.418 61 158.614 61.2048L162.826 65.5926C163.022 65.7974 163.022 66.1294 162.826 66.3342L161.779 67.4246C161.583 67.6294 161.264 67.6294 161.067 67.4246L156.856 63.0369C156.659 62.8321 156.341 62.8321 156.144 63.0369L151.932 67.4246C151.736 67.6294 151.417 67.6294 151.221 67.4246L150.174 66.3342C149.977 66.1294 149.977 65.7974 150.174 65.5926L154.386 61.2048Z" fill="#2792A8"/>
</svg>
