<svg width="512" height="371" viewBox="0 0 512 371" fill="none" xmlns="http://www.w3.org/2000/svg">
<g clip-path="url(#clip0_2108_4448)">
<path d="M98.9439 366.197H423.433C470.266 366.197 501.603 318.06 482.606 275.302C476.224 260.939 475.297 244.747 479.998 229.751L492.744 189.087C506.029 146.7 477.191 102.764 432.978 98.0322L428.422 97.5446C401.523 94.6658 379.341 75.2026 373.016 48.9286C361.475 0.983134 302.231 -16.4068 266.555 17.679L247.207 36.1651C229.457 53.1241 204.723 60.6977 180.507 56.5883L176.964 55.987C126.883 47.4884 82.9947 90.1029 90.0817 140.347C93.9313 167.639 82.4762 194.84 60.2532 211.177L50.3758 218.439C31.6208 232.226 19.6252 253.334 17.3869 276.487C12.7381 324.573 50.5796 366.197 98.9439 366.197Z" fill="#E7E8FF"/>
<path d="M186.372 324.874C195.749 336.747 173.608 356.38 161.365 364.712H154.332C161.105 346.485 176.994 313 186.372 324.874Z" fill="white"/>
<path fill-rule="evenodd" clip-rule="evenodd" d="M182.429 323.527C183.421 323.663 184.458 324.239 185.502 325.56C187.583 328.195 187.952 331.269 187.07 334.656C186.177 338.084 184.01 341.771 181.107 345.432C175.397 352.635 167.071 359.453 161.023 363.604H155.934C159.351 354.649 164.696 342.69 170.303 334.111C173.284 329.551 176.248 326.092 178.934 324.475C180.258 323.678 181.418 323.387 182.429 323.527ZM168.447 332.899C162.391 342.165 156.691 355.181 153.293 364.326L152.738 365.82H161.707L161.989 365.628C168.163 361.426 176.857 354.362 182.845 346.809C185.836 343.037 188.211 339.068 189.215 335.215C190.229 331.321 189.85 327.488 187.242 324.187C185.941 322.54 184.43 321.565 182.732 321.331C181.053 321.1 179.38 321.62 177.79 322.577C174.648 324.468 171.457 328.294 168.447 332.899Z" fill="#032068"/>
<path d="M168.399 264.725C189.029 280.973 169.701 338.153 157.458 364.712H136.359C137.141 328.779 142.611 244.415 168.399 264.725Z" fill="#032068"/>
<path fill-rule="evenodd" clip-rule="evenodd" d="M158.578 292.523L161.837 274.681L164.018 275.079L156.29 317.385L167.889 311.391L168.907 313.36L155.787 320.14L147.608 364.911L145.427 364.513L150.202 338.375L141.669 324.678L143.551 323.507L150.794 335.133L157.788 296.848L152.508 282.288L154.593 281.533L158.578 292.523Z" fill="white"/>
<path d="M106.663 252.226C137.296 254.726 149.643 328.259 151.988 364.712H132.451C112.915 341.278 68.3721 249.102 106.663 252.226Z" fill="white"/>
<path fill-rule="evenodd" clip-rule="evenodd" d="M96.7363 256.008C98.8534 254.016 102.002 252.958 106.573 253.331C113.762 253.918 120.019 258.679 125.432 266.368C130.839 274.048 135.286 284.489 138.875 296.065C145.896 318.711 149.554 345.439 150.803 363.604H132.974C123.283 351.766 107.582 323.354 98.9204 298.15C94.5334 285.384 92.0171 273.618 92.8937 265.305C93.3305 261.163 94.5945 258.025 96.7363 256.008ZM96.8235 298.87C105.646 324.544 121.724 353.575 131.6 365.422L131.932 365.82H153.17L153.094 364.641C151.918 346.361 148.236 318.771 140.993 295.409C137.373 283.732 132.843 273.043 127.245 265.093C121.655 257.152 114.881 251.785 106.753 251.122C101.752 250.714 97.9161 251.853 95.2163 254.395C92.5412 256.913 91.1555 260.646 90.6888 265.073C89.7583 273.896 92.4191 286.053 96.8235 298.87Z" fill="#032068"/>
<path d="M109.789 331.904C118.541 328.155 131.319 353.699 136.268 366.197H128.453C120.639 360.729 98.8486 336.591 109.789 331.904Z" fill="#032068"/>
<path fill-rule="evenodd" clip-rule="evenodd" d="M112.668 282.916L106.399 265.092L108.491 264.357L122.619 304.529L129.206 295.326L131.009 296.616L123.518 307.083L143.656 364.345L141.565 365.08L130.154 332.635L119.356 325.81L120.541 323.937L128.968 329.263L113.697 285.842L100.725 279.79L101.662 277.781L112.668 282.916Z" fill="#032068"/>
<path d="M437.132 274.021L433.899 278.259C433.703 278.517 433.382 278.641 433.067 278.581L429.071 277.815C428.212 277.65 427.693 278.756 428.356 279.339L431.497 282.1C431.726 282.302 431.835 282.612 431.782 282.917L430.994 287.469C430.846 288.325 431.876 288.855 432.458 288.223L435.685 284.724C435.874 284.519 436.149 284.419 436.422 284.458L440.156 284.978C440.997 285.095 441.473 284.022 440.834 283.451L438.057 280.971C437.834 280.772 437.727 280.469 437.775 280.17L438.651 274.701C438.794 273.807 437.677 273.307 437.132 274.021Z" fill="white"/>
<path d="M168.02 7.45596L167.694 11.8122C167.674 12.0772 167.509 12.304 167.268 12.4L164.194 13.6217C163.533 13.8845 163.67 14.8787 164.383 14.992L167.758 15.5282C168.005 15.5674 168.217 15.7351 168.316 15.9694L169.802 19.4709C170.081 20.1291 171.02 20.0448 171.138 19.3509L171.789 15.5104C171.827 15.285 171.971 15.0957 172.175 15.0022L174.96 13.7251C175.587 13.4375 175.436 12.4848 174.744 12.3694L171.743 11.8682C171.502 11.8279 171.294 11.6646 171.194 11.4365L169.361 7.26148C169.062 6.57866 168.076 6.72167 168.02 7.45596Z" fill="#2792A8"/>
<path d="M336.742 45.015C336.742 42.4274 338.839 40.3298 341.427 40.3298H464.363C466.951 40.3298 469.049 42.4274 469.049 45.015V232.88C469.049 235.468 466.951 237.565 464.363 237.565H341.427C338.839 237.565 336.742 235.468 336.742 232.88V45.015Z" fill="white"/>
<path fill-rule="evenodd" clip-rule="evenodd" d="M336.039 45.0151C336.039 42.0397 338.451 39.6277 341.427 39.6277H464.363C467.339 39.6277 469.751 42.0397 469.751 45.0151V232.88C469.751 235.855 467.339 238.267 464.363 238.267H341.427C338.451 238.267 336.039 235.855 336.039 232.88V45.0151ZM341.427 41.0322C339.227 41.0322 337.444 42.8154 337.444 45.0151V232.88C337.444 235.08 339.227 236.863 341.427 236.863H464.363C466.563 236.863 468.346 235.08 468.346 232.88V45.0151C468.346 42.8154 466.563 41.0322 464.363 41.0322H341.427Z" fill="#032068"/>
<path d="M336.742 45.015C336.742 42.4274 338.839 40.3298 341.427 40.3298H464.363C466.951 40.3298 469.049 42.4274 469.049 45.015V68.5063H336.742V45.015Z" fill="#032068"/>
<path d="M362.599 54.6185C362.599 58.0006 359.857 60.7424 356.475 60.7424C353.093 60.7424 350.351 58.0006 350.351 54.6185C350.351 51.2364 353.093 48.4946 356.475 48.4946C359.857 48.4946 362.599 51.2364 362.599 54.6185Z" fill="white"/>
<path d="M383.014 54.6185C383.014 58.0006 380.272 60.7424 376.89 60.7424C373.508 60.7424 370.766 58.0006 370.766 54.6185C370.766 51.2364 373.508 48.4946 376.89 48.4946C380.272 48.4946 383.014 51.2364 383.014 54.6185Z" fill="white"/>
<path d="M403.424 54.6185C403.424 58.0006 400.682 60.7424 397.3 60.7424C393.918 60.7424 391.176 58.0006 391.176 54.6185C391.176 51.2364 393.918 48.4946 397.3 48.4946C400.682 48.4946 403.424 51.2364 403.424 54.6185Z" fill="white"/>
<path d="M444.548 139.56C444.548 162.564 425.899 181.212 402.895 181.212C379.892 181.212 361.243 162.564 361.243 139.56C361.243 116.556 379.892 97.9077 402.895 97.9077C425.899 97.9077 444.548 116.556 444.548 139.56Z" fill="#E7E8FF"/>
<path d="M379.619 198.543C379.619 197.767 380.248 197.138 381.024 197.138H425.992C426.768 197.138 427.397 197.767 427.397 198.543V203.084C427.397 203.86 426.768 204.489 425.992 204.489H381.024C380.248 204.489 379.619 203.86 379.619 203.084V198.543Z" fill="#032068"/>
<path d="M409.877 132.186H424.946V145.213H409.877V162.836H395.957V145.213H380.844V132.186H395.957V115.059H409.877V132.186Z" fill="#032068"/>
<path d="M179.934 43.8192C179.934 41.2156 182.031 39.105 184.619 39.105H307.555C310.143 39.105 312.24 41.2156 312.24 43.8192V232.851C312.24 235.455 310.143 237.565 307.555 237.565H184.619C182.031 237.565 179.934 235.455 179.934 232.851V43.8192Z" fill="white"/>
<path fill-rule="evenodd" clip-rule="evenodd" d="M179.231 43.8193C179.231 40.8254 181.643 38.3984 184.619 38.3984H307.555C310.531 38.3984 312.943 40.8254 312.943 43.8193V232.851C312.943 235.845 310.531 238.272 307.555 238.272H184.619C181.643 238.272 179.231 235.845 179.231 232.851V43.8193ZM184.619 39.8116C182.419 39.8116 180.636 41.6059 180.636 43.8193V232.851C180.636 235.065 182.419 236.859 184.619 236.859H307.555C309.755 236.859 311.538 235.065 311.538 232.851V43.8193C311.538 41.6059 309.755 39.8116 307.555 39.8116H184.619Z" fill="#032068"/>
<path d="M179.934 43.8192C179.934 41.2156 182.031 39.105 184.619 39.105H307.555C310.143 39.105 312.24 41.2156 312.24 43.8192V67.4565H179.934V43.8192Z" fill="#032068"/>
<path d="M205.791 53.4825C205.791 56.8856 203.049 59.6444 199.667 59.6444C196.285 59.6444 193.543 56.8856 193.543 53.4825C193.543 50.0793 196.285 47.3206 199.667 47.3206C203.049 47.3206 205.791 50.0793 205.791 53.4825Z" fill="white"/>
<path d="M226.205 53.4825C226.205 56.8856 223.464 59.6444 220.082 59.6444C216.699 59.6444 213.958 56.8856 213.958 53.4825C213.958 50.0793 216.699 47.3206 220.082 47.3206C223.464 47.3206 226.205 50.0793 226.205 53.4825Z" fill="white"/>
<path d="M246.616 53.4825C246.616 56.8856 243.874 59.6444 240.492 59.6444C237.11 59.6444 234.368 56.8856 234.368 53.4825C234.368 50.0793 237.11 47.3206 240.492 47.3206C243.874 47.3206 246.616 50.0793 246.616 53.4825Z" fill="white"/>
<path d="M271.129 132.628C271.609 132.195 272.321 132.147 272.855 132.511L294.949 147.584C295.335 147.847 295.566 148.285 295.566 148.753V168.746C295.566 169.526 294.937 170.159 294.161 170.159H233.183C231.894 170.159 231.286 168.559 232.246 167.693L271.129 132.628Z" fill="#032068"/>
<path d="M262.736 115.376C262.736 120.27 258.792 124.238 253.928 124.238C249.064 124.238 245.121 120.27 245.121 115.376C245.121 110.482 249.064 106.514 253.928 106.514C258.792 106.514 262.736 110.482 262.736 115.376Z" fill="#2792A8"/>
<path fill-rule="evenodd" clip-rule="evenodd" d="M196.383 88.5925C196.383 87.4217 197.326 86.4727 198.49 86.4727H294.162C295.325 86.4727 296.269 87.4217 296.269 88.5925V168.746C296.269 169.917 295.325 170.866 294.162 170.866H198.49C197.326 170.866 196.383 169.917 196.383 168.746V88.5925ZM198.49 87.8859C198.102 87.8859 197.788 88.2022 197.788 88.5925V168.746C197.788 169.136 198.102 169.453 198.49 169.453H294.162C294.55 169.453 294.864 169.136 294.864 168.746V88.5925C294.864 88.2022 294.55 87.8859 294.162 87.8859H198.49Z" fill="#E7E8FF"/>
<path d="M197.084 148.285C197.084 147.853 197.28 147.445 197.617 147.177L226.994 123.76C227.524 123.337 228.28 123.355 228.79 123.803L278.733 167.681C279.711 168.54 279.107 170.159 277.81 170.159H198.489C197.713 170.159 197.084 169.526 197.084 168.746V148.285Z" fill="#E7E8FF"/>
<path fill-rule="evenodd" clip-rule="evenodd" d="M228.328 124.335C228.073 124.111 227.695 124.102 227.43 124.314L198.053 147.731C197.884 147.865 197.786 148.069 197.786 148.285V168.746C197.786 169.136 198.101 169.452 198.489 169.452H277.81C278.458 169.452 278.76 168.643 278.271 168.214L228.328 124.335ZM226.558 123.206C227.354 122.571 228.486 122.598 229.251 123.271L279.195 167.149C280.661 168.437 279.756 170.866 277.81 170.866H198.489C197.325 170.866 196.382 169.917 196.382 168.746V148.285C196.382 147.637 196.676 147.025 197.18 146.623L226.558 123.206Z" fill="#E7E8FF"/>
<path d="M282.228 236.286L272.856 229.892C272.322 229.528 271.61 229.577 271.13 230.01L264.17 236.286H282.228Z" fill="#032068"/>
<path d="M262.736 212.757C262.736 217.652 258.793 221.619 253.928 221.619C249.064 221.619 245.121 217.652 245.121 212.757C245.121 207.863 249.064 203.896 253.928 203.896C258.793 203.896 262.736 207.863 262.736 212.757Z" fill="#2792A8"/>
<path fill-rule="evenodd" clip-rule="evenodd" d="M196.382 185.974C196.382 184.803 197.325 183.854 198.489 183.854H294.161C295.324 183.854 296.267 184.803 296.267 185.974V236.333H294.863V185.974C294.863 185.583 294.548 185.267 294.161 185.267H198.489C198.101 185.267 197.786 185.583 197.786 185.974V236.333H196.382V185.974Z" fill="#E7E8FF"/>
<path d="M246.084 236.333L228.793 221.185C228.281 220.737 227.524 220.721 226.994 221.147L208.107 236.333H246.084Z" fill="#E7E8FF"/>
<path d="M23.1252 45.015C23.1252 42.4274 25.2423 40.3298 27.8538 40.3298H151.929C154.54 40.3298 156.657 42.4274 156.657 45.015V232.88C156.657 235.468 154.54 237.565 151.929 237.565H27.8538C25.2423 237.565 23.1252 235.468 23.1252 232.88V45.015Z" fill="white"/>
<path fill-rule="evenodd" clip-rule="evenodd" d="M22.4165 45.0151C22.4165 42.0397 24.8508 39.6277 27.8538 39.6277H151.929C154.932 39.6277 157.366 42.0397 157.366 45.0151V232.88C157.366 235.855 154.932 238.267 151.929 238.267H27.8538C24.8508 238.267 22.4165 235.855 22.4165 232.88V45.0151ZM27.8538 41.0322C25.6337 41.0322 23.834 42.8154 23.834 45.0151V232.88C23.834 235.08 25.6337 236.863 27.8538 236.863H151.929C154.149 236.863 155.948 235.08 155.948 232.88V45.0151C155.948 42.8154 154.149 41.0322 151.929 41.0322H27.8538Z" fill="#032068"/>
<path d="M23.1252 45.015C23.1252 42.4274 25.2423 40.3298 27.8538 40.3298H151.929C154.54 40.3298 156.657 42.4274 156.657 45.015V68.5063H23.1252V45.015Z" fill="#032068"/>
<path d="M49.222 54.6185C49.222 58.0006 46.4549 60.7424 43.0414 60.7424C39.628 60.7424 36.8608 58.0006 36.8608 54.6185C36.8608 51.2364 39.628 48.4946 43.0414 48.4946C46.4549 48.4946 49.222 51.2364 49.222 54.6185Z" fill="white"/>
<path d="M69.8255 54.6185C69.8255 58.0006 67.0584 60.7424 63.6449 60.7424C60.2315 60.7424 57.4644 58.0006 57.4644 54.6185C57.4644 51.2364 60.2315 48.4946 63.6449 48.4946C67.0584 48.4946 69.8255 51.2364 69.8255 54.6185Z" fill="white"/>
<path d="M90.4246 54.6185C90.4246 58.0006 87.6575 60.7424 84.2441 60.7424C80.8306 60.7424 78.0635 58.0006 78.0635 54.6185C78.0635 51.2364 80.8306 48.4946 84.2441 48.4946C87.6575 48.4946 90.4246 51.2364 90.4246 54.6185Z" fill="white"/>
<path d="M113.383 106.483C113.383 119.338 102.866 129.759 89.8914 129.759C76.9173 129.759 66.3997 119.338 66.3997 106.483C66.3997 93.6281 76.9173 83.207 89.8914 83.207C102.866 83.207 113.383 93.6281 113.383 106.483Z" fill="#E7E8FF"/>
<path d="M90.1183 106.764C83.718 106.764 78.4085 111.46 77.4113 117.613C77.2251 118.762 78.195 119.712 79.3693 119.712H100.867C102.042 119.712 103.012 118.762 102.825 117.613C101.828 111.46 96.5186 106.764 90.1183 106.764Z" fill="white"/>
<path d="M96.4592 99.1477C96.4592 102.513 93.706 105.241 90.3098 105.241C86.9136 105.241 84.1604 102.513 84.1604 99.1477C84.1604 95.7826 86.9136 93.0547 90.3098 93.0547C93.706 93.0547 96.4592 95.7826 96.4592 99.1477Z" fill="white"/>
<path d="M65.1631 144.64C65.1631 143.864 65.7977 143.235 66.5806 143.235H111.965C112.748 143.235 113.383 143.864 113.383 144.64V149.181C113.383 149.957 112.748 150.586 111.965 150.586H66.5806C65.7977 150.586 65.1631 149.957 65.1631 149.181V144.64Z" fill="#032068"/>
<path d="M37.962 171.591C37.962 170.816 38.5967 170.187 39.3795 170.187H66.2183C67.0012 170.187 67.6358 170.816 67.6358 171.591V199.409C67.6358 200.185 67.0012 200.813 66.2183 200.813H39.3795C38.5967 200.813 37.962 200.185 37.962 199.409V171.591Z" fill="#E7E8FF"/>
<path d="M75.0543 171.591C75.0543 170.815 75.689 170.187 76.4718 170.187H103.311C104.093 170.187 104.728 170.815 104.728 171.591V199.409C104.728 200.184 104.093 200.813 103.311 200.813H76.4718C75.689 200.813 75.0543 200.184 75.0543 199.409V171.591Z" fill="#E7E8FF"/>
<path d="M112.147 171.591C112.147 170.815 112.782 170.187 113.564 170.187H140.403C141.186 170.187 141.821 170.815 141.821 171.591V199.409C141.821 200.184 141.186 200.813 140.403 200.813H113.564C112.782 200.813 112.147 200.184 112.147 199.409V171.591Z" fill="#2792A8"/>
<path d="M37.962 216.918C37.962 216.143 38.5967 215.514 39.3795 215.514H66.2183C67.0012 215.514 67.6358 216.143 67.6358 216.918V236.34H37.962V216.918Z" fill="#E7E8FF"/>
<path d="M75.0543 216.918C75.0543 216.143 75.689 215.514 76.4718 215.514H103.311C104.093 215.514 104.728 216.143 104.728 216.918V236.34H75.0543V216.918Z" fill="#E7E8FF"/>
<path d="M112.147 216.918C112.147 216.143 112.782 215.514 113.564 215.514H140.403C141.186 215.514 141.821 216.143 141.821 216.918V236.34H112.147V216.918Z" fill="#E7E8FF"/>
<path d="M130.931 187.338H168.295M168.295 187.338V147.46C168.295 145.804 169.639 144.46 171.295 144.46H179.933M168.295 187.338V256.004C168.295 257.661 169.639 259.004 171.295 259.004H399.283C400.939 259.004 402.283 257.661 402.283 256.004V238.79" stroke="#032068" stroke-width="2"/>
<path d="M185.719 213.344C185.719 215.946 189.711 220.157 191.012 221.458L179.952 229.265C179.952 228.398 178.781 226.012 174.097 223.41C168.242 220.157 164.339 218.205 163.038 212.35C161.737 206.495 165.64 200.314 169.543 201.29C174.748 202.591 179.302 210.398 179.952 207.796C180.473 205.714 179.466 204.031 179.25 202.73C179.683 202.296 180.176 199.469 182.778 201.551C186.031 204.153 185.719 210.091 185.719 213.344Z" fill="#EFCB96"/>
<path d="M327.784 190.524L330.731 205.893C329.356 207.469 324.954 210.74 318.351 211.213C311.749 211.686 305.775 208.651 303.613 207.075L305.382 192.889C295.36 187.569 298.897 167.472 303.613 160.379C308.329 153.285 327.784 152.103 332.5 168.654C336.273 181.894 330.928 188.751 327.784 190.524Z" fill="#EFCB96"/>
<path d="M367.34 217.138C350.833 200.114 330.789 200.587 311.924 200.587C270.658 200.587 241.771 241.373 233.518 240.781C225.264 240.19 193.43 214.773 190.482 214.773C187.535 214.773 171.617 226.004 172.207 234.279C172.796 242.555 205.81 293.389 217.011 298.118C225.972 301.901 245.898 296.541 254.74 293.389C253.954 312.895 253.326 353.208 257.099 358.409C261.815 364.911 267.12 367.276 296.597 370.231C322.668 372.845 367.189 368.985 379.573 366.014C384.658 365.062 384.773 335.15 384.195 320.313C399.449 320.313 400.144 302.364 398.585 293.389C397.995 282.749 387.973 238.417 367.34 217.138Z" fill="#2792A8"/>
<path d="M204.631 286.296C225.382 284.404 241.181 291.812 246.487 295.753C241.181 297.526 228.447 300.718 219.958 299.3C211.469 297.881 206.203 290.039 204.631 286.296Z" fill="#032068"/>
<path d="M377.261 253.686C380.959 268.981 383.425 304.477 384.195 320.313H387.662C385.351 289.607 380.343 263.149 377.261 253.686Z" fill="#032068"/>
<path d="M284.808 275.065C278.205 281.685 262.013 290.039 254.742 293.389V301.664C261.345 299.3 277.537 282.946 284.808 275.065Z" fill="#032068"/>
<path d="M399.22 300.615C394.597 301.773 385.121 307.335 384.196 320.313C388.819 320.699 398.642 319.734 399.22 300.615Z" fill="#032068"/>
<path d="M338.115 158.955C334.187 152.391 326.294 148.926 322.839 148.014C302.653 142.544 295.561 158.955 298.289 163.331C301.017 167.707 298.834 172.084 301.562 177.007C304.29 181.93 304.29 185.759 301.562 193.965C298.834 202.17 299.926 208.187 301.562 213.111C303.199 218.034 298.834 221.863 301.562 229.521C304.29 237.18 315.747 236.086 321.203 233.35C326.659 230.615 333.749 239.368 343.025 237.727C352.301 236.086 355.572 228.427 351.209 219.675C346.845 210.922 349.572 213.111 351.209 205.452C352.845 197.794 347.39 193.965 343.025 186.306C338.661 178.648 343.025 167.16 338.115 158.955Z" fill="#032068"/>
</g>
<defs>
<clipPath id="clip0_2108_4448">
<rect width="512" height="371" fill="white"/>
</clipPath>
</defs>
</svg>
