<svg width="512" height="400" viewBox="0 0 512 400" fill="none" xmlns="http://www.w3.org/2000/svg">
<g clip-path="url(#clip0_72_4521)">
<path d="M388.338 105.146C368.173 108.116 325.076 76.1914 306.048 59.8579C297.893 34.6152 379.441 67.2822 400.94 79.1611C422.44 91.04 413.543 101.434 388.338 105.146Z" fill="#E7E8FF"/>
<path d="M20.333 275.212C11.6864 298.674 17.6912 327.237 27.7815 352.087C40.7507 384.029 74.5877 399.892 109.019 399.892H336.064C389.519 399.892 439.137 336.815 467.023 291.144C499.59 237.809 478.11 183.088 455.937 150.533C433.764 117.977 381.102 146.377 331.906 117.977C282.709 89.578 291.717 75.032 250.142 57.0228C195.821 33.4919 77.8446 32.3882 77.8446 158.152C77.8446 210.909 39.7345 222.57 20.333 275.212Z" fill="#E7E8FF"/>
<path d="M286.69 31.2928C286.69 27.154 290.038 23.7988 294.168 23.7988H486.493C490.623 23.7988 493.971 27.154 493.971 31.2928V390.546C493.971 394.684 490.623 398.04 486.493 398.04H294.168C290.038 398.04 286.69 394.684 286.69 390.546V31.2928Z" fill="#032068"/>
<path fill-rule="evenodd" clip-rule="evenodd" d="M284.84 30.9559C284.84 25.98 288.871 21.9463 293.843 21.9463H486.818C491.791 21.9463 495.822 25.98 495.822 30.9559V390.883C495.822 395.859 491.791 399.892 486.818 399.892H293.843C288.871 399.892 284.84 395.859 284.84 390.883V30.9559ZM293.843 24.9495C290.528 24.9495 287.841 27.6387 287.841 30.9559V390.883C287.841 394.2 290.528 396.889 293.843 396.889H486.818C490.133 396.889 492.821 394.2 492.821 390.883V30.9559C492.821 27.6387 490.133 24.9495 486.818 24.9495H293.843Z" fill="#032068"/>
<path d="M286.69 44.2557C286.69 40.1201 290.038 36.7676 294.168 36.7676H486.493C490.623 36.7676 493.971 40.1201 493.971 44.2557V390.552C493.971 394.687 490.623 398.04 486.493 398.04H294.168C290.038 398.04 286.69 394.687 286.69 390.552V44.2557Z" fill="white"/>
<path fill-rule="evenodd" clip-rule="evenodd" d="M284.84 43.9183C284.84 38.9459 288.871 34.915 293.843 34.915H486.818C491.791 34.915 495.822 38.9459 495.822 43.9183V390.889C495.822 395.862 491.791 399.892 486.818 399.892H293.843C288.871 399.892 284.84 395.862 284.84 390.889V43.9183ZM293.843 37.9161C290.528 37.9161 287.841 40.6034 287.841 43.9183V390.889C287.841 394.204 290.528 396.891 293.843 396.891H486.818C490.133 396.891 492.821 394.204 492.821 390.889V43.9183C492.821 40.6034 490.133 37.9161 486.818 37.9161H293.843Z" fill="#032068"/>
<path d="M403.286 70.9188C403.286 68.4287 405.342 66.4102 407.878 66.4102H450.515C453.051 66.4102 455.106 68.4287 455.106 70.9188V263.843C455.106 266.333 453.051 268.352 450.515 268.352H407.878C405.342 268.352 403.286 266.333 403.286 263.843V70.9188Z" fill="#2792A8"/>
<path d="M403.286 162.519L455.106 96.0537V107.401L403.286 173.866V162.519Z" fill="white"/>
<path d="M403.286 192.28L455.106 127.549V153.599L403.286 218.33L403.286 192.28Z" fill="white"/>
<path d="M47.5369 303.455C34.5445 328.543 55.9064 374.44 69.3638 396.264C70.1794 397.586 71.6285 398.374 73.1824 398.374H93.8075C96.5753 398.374 98.698 395.876 98.273 393.141C84.9842 307.615 52.0761 296.078 47.5369 303.455Z" fill="white"/>
<path fill-rule="evenodd" clip-rule="evenodd" d="M48.855 304.21C42.6919 316.179 44.6079 333.375 49.9811 350.632C55.3325 367.818 63.9749 384.632 70.656 395.467C71.1879 396.329 72.1411 396.856 73.1827 396.856H93.8077C95.636 396.856 97.0567 395.196 96.7734 393.373C90.152 350.759 78.6712 326.79 68.454 314.426C63.3403 308.237 58.5999 305.022 55.0079 303.761C51.3241 302.467 49.4326 303.335 48.855 304.21ZM70.7942 312.492C81.488 325.433 93.1056 349.996 99.7731 392.907C100.34 396.554 97.5149 399.892 93.8077 399.892H73.1827C71.1163 399.892 69.1715 398.843 68.0721 397.06C61.2957 386.071 52.5285 369.024 47.0827 351.534C41.6674 334.142 39.3961 315.874 46.1893 302.756L46.2151 302.706L46.2444 302.659C47.9679 299.858 51.891 299.449 56.0138 300.896C60.284 302.396 65.4524 306.028 70.7942 312.492Z" fill="#032068"/>
<path d="M86.5805 255.016C57.2399 272.089 70.7307 352.956 81.9314 394.484C82.4628 396.454 84.2529 397.795 86.2934 397.795H101.636C103.827 397.795 105.713 396.22 106.098 394.063C120.597 312.884 108.69 247.569 87.2468 254.713C87.0192 254.789 86.7878 254.895 86.5805 255.016Z" fill="#032068"/>
<path d="M157.505 308.663C126.721 310.831 101.993 362.228 91.6858 392.517C90.6994 395.416 92.8855 398.374 95.9473 398.374H112.579C113.564 398.374 114.519 398.061 115.298 397.458C151.686 369.256 176.398 308.663 157.505 308.663Z" fill="white"/>
<path fill-rule="evenodd" clip-rule="evenodd" d="M157.557 310.181C150.294 310.708 143.286 314.136 136.647 319.593C129.992 325.064 123.788 332.509 118.178 340.889C106.957 357.65 98.2498 377.94 93.1227 393.007C92.4827 394.887 93.8901 396.856 95.9474 396.856H112.579C113.243 396.856 113.867 396.647 114.368 396.258C132.32 382.345 147.457 360.369 155.747 341.865C159.898 332.597 162.263 324.35 162.481 318.515C162.59 315.584 162.149 313.462 161.318 312.122C160.564 310.905 159.409 310.194 157.557 310.181ZM158.517 343.106C150.077 361.948 134.664 384.369 116.228 398.658C115.172 399.477 113.886 399.892 112.579 399.892H95.9474C91.8809 399.892 88.9161 395.945 90.2488 392.029C95.4291 376.806 104.24 356.252 115.655 339.2C121.364 330.674 127.758 322.971 134.72 317.248C141.681 311.526 149.289 307.72 157.399 307.149L157.452 307.146H157.505C160.346 307.146 162.537 308.326 163.898 310.522C165.19 312.606 165.634 315.438 165.515 318.628C165.275 325.036 162.73 333.7 158.517 343.106Z" fill="#032068"/>
<path fill-rule="evenodd" clip-rule="evenodd" d="M58.0723 315.363C61.767 321.073 65.9056 330.499 69.9483 341.114C72.5743 348.009 75.1772 355.453 77.6098 362.789L81.3983 351.028L84.2878 351.959L79.218 367.698C82.982 379.323 86.2298 390.31 88.357 397.968L85.432 398.781C84.4449 395.227 83.2141 390.949 81.8012 386.22L71.6879 380.602L73.1621 377.948L80.5425 382.048C79.203 377.65 77.7343 372.96 76.1791 368.168C73.4403 359.728 70.4362 350.978 67.3993 342.953L52.9873 339.661L53.6632 336.702L66.0882 339.54C62.3927 330.067 58.7323 321.971 55.5236 317.012L58.0723 315.363Z" fill="#032068"/>
<path fill-rule="evenodd" clip-rule="evenodd" d="M92.0666 292.861C91.5438 281.511 90.9059 272.629 90.122 268.448L87.1383 269.008C87.9668 273.426 88.658 283.753 89.2158 297.151C89.5313 304.731 89.803 313.252 90.035 322.17L79.8826 311.661L77.6992 313.77L90.1477 326.656C90.3643 335.595 90.5427 344.83 90.687 353.833C90.9523 370.375 91.1026 386.127 91.1638 397.804L94.1994 397.788C94.1389 386.226 93.991 370.675 93.7309 354.317L103.721 341.426L101.321 339.567L93.6507 349.465C93.5166 341.638 93.3566 333.7 93.1681 325.99C92.9206 315.871 92.6238 306.143 92.2717 297.576L100.831 286.437L98.4234 284.588L92.0666 292.861Z" fill="white"/>
<path fill-rule="evenodd" clip-rule="evenodd" d="M139.212 335.565C145.103 328.167 150.716 322.133 155.517 318.563L153.706 316.127C148.036 320.343 141.512 327.6 134.89 336.153C131.788 340.16 128.649 344.473 125.547 348.924V340.496H122.512V353.342C118.418 359.379 114.433 365.572 110.735 371.528C104.543 381.502 99.1526 390.821 95.4033 397.643L98.0638 399.105C101.709 392.472 106.927 383.445 112.929 373.751L127.007 372.1L126.653 369.085L114.985 370.454C118.263 365.234 121.736 359.883 125.285 354.661C129.1 349.048 132.999 343.588 136.836 338.6H150.56V335.565H139.212Z" fill="#032068"/>
<path d="M145.551 400L147.157 383.941L329.43 369.487L332.642 400H145.551Z" fill="#032068"/>
<path d="M131.098 155.898C143.303 146.263 204.167 143.05 217.015 151.08C186.77 184.27 111.506 250.648 107.009 241.012C101.388 228.968 115.842 167.943 131.098 155.898Z" fill="#032068"/>
<path d="M142.339 352.624C140.733 360.119 138.485 372.859 142.339 383.137C149.927 403.371 313.809 393.708 331.036 379.925C340.672 372.217 335.051 349.413 331.036 336.565C339.066 344.595 361.549 352.624 375.2 336.565C388.85 320.506 370.382 252.254 339.066 202.47C314.013 162.642 272.955 152.686 255.557 152.686C254.487 156.7 248.331 164.73 232.271 164.73C216.212 164.73 208.45 156.7 206.577 152.686C182.488 154.291 131.9 167.139 105.402 237.8C84.2559 294.188 83.7224 334.156 94.161 352.624C102.512 367.399 129.759 358.781 142.339 352.624Z" fill="#2792A8"/>
<path d="M177.67 261.89L124.674 280.358L164.822 258.678L174.458 234.589L172.049 258.678L177.67 261.89Z" fill="#032068"/>
<path d="M194.532 286.782C196.1 231.909 180.321 182.904 173.345 162.178C173.072 161.368 173.526 160.509 174.343 160.257L181.96 157.913C182.713 157.682 183.51 158.043 183.797 158.776C195.648 189.033 206.543 252.705 204.167 284.373C198.033 320.415 159.431 357.433 142.215 369.549C141.233 370.241 139.942 369.511 140.012 368.311C140.249 364.23 140.954 360.988 141.414 359.439C141.49 359.181 141.647 358.951 141.849 358.774C183.985 321.661 194.532 295.326 194.532 286.782Z" fill="#032068"/>
<path d="M192.123 297.22C179.276 319.06 153.581 343.257 142.339 352.625L140.733 363.063C171.567 336.083 187.841 307.926 192.123 297.22Z" fill="#032068"/>
<path d="M289.896 260.479C280.037 228.737 272.374 179.395 269.48 156.482C269.347 155.425 270.317 154.569 271.35 154.828L277.809 156.442C278.43 156.598 278.888 157.142 278.954 157.779C285.05 217.308 293.27 241.882 298.868 262.681C299.207 263.939 297.901 264.994 296.735 264.412L290.662 261.375C290.293 261.191 290.018 260.872 289.896 260.479Z" fill="#032068"/>
<path d="M334.068 363.069C324.225 353.078 311.696 331.493 304.329 317.511C303.579 316.088 305.264 314.685 306.543 315.662L314.665 321.874C314.87 322.03 315.03 322.235 315.135 322.47C319.573 332.333 328.696 341.447 333.086 345.103C333.32 345.298 333.492 345.552 333.576 345.845C334.988 350.76 335.891 357.362 336.354 361.945C336.488 363.273 335.005 364.02 334.068 363.069Z" fill="#032068"/>
<path d="M181.685 264.298L191.32 287.584C194.532 286.781 199.35 285.978 205.773 282.766C220.316 275.495 219.424 262.692 213 253.057C207.861 245.348 198.279 250.38 192.926 254.662L192.927 243.421C185.86 246.633 180.882 258.945 181.685 264.298Z" fill="#EFCB96"/>
<path d="M303.322 265.453L290.944 284.71C288.203 283.473 284.027 281.976 278.804 278.066C266.98 269.216 269.848 257.915 277.147 250.341C282.987 244.281 292.556 249.968 296.649 254.662L294.1 245.026C303.321 249.041 304.905 260.797 303.322 265.453Z" fill="#EFCB96"/>
<path d="M290.888 290.796C299.881 308.14 321.4 328.535 331.036 336.565L333.445 345.398C309.035 328.696 294.903 302.037 290.888 290.796Z" fill="#032068"/>
<path d="M339.034 273.907C339.047 273.917 339.058 273.926 339.066 273.934C339.056 273.925 339.045 273.916 339.034 273.907C337.731 272.906 311.709 261.882 306.144 261.087L309.356 256.269L302.933 230.574L315.78 257.875C321.655 261.613 334.508 270.04 339.034 273.907Z" fill="#032068"/>
<path d="M213 132.612L208.183 159.11C232.593 175.812 248.332 167.14 253.15 160.716L246.726 138.233C255.559 131.006 257.968 118.962 253.15 97.2818C246.726 73.996 229.595 76.9402 219.424 80.4197C195.014 92.6248 205.238 121.371 213 132.612Z" fill="#EFCB96"/>
<path d="M200.154 103.705C199.582 120.294 205.972 130.048 211.158 133.876C212.008 134.503 213.136 133.901 213.473 132.901C213.797 131.942 214.212 130.969 214.607 128.597C215.249 124.743 214.339 123.779 213.804 123.779C201.759 119.764 210.592 102.902 213.001 103.705C215.409 104.508 215.41 114.947 217.819 115.75C220.228 116.553 221.031 98.8872 223.439 96.4783C225.848 94.0694 233.075 94.0694 243.514 96.4783C253.952 98.8872 267.928 99.5419 261.179 76.4035C255.558 57.1319 225.848 69.9801 216.213 72.389C206.577 74.7979 200.957 80.419 200.154 103.705Z" fill="#032068"/>
<path d="M225.848 140.641C236.768 142.568 244.316 139.838 246.725 138.232L249.134 146.262C234.359 148.832 227.454 143.586 225.848 140.641Z" fill="#032068"/>
<path d="M123.068 359.048C113.432 338.492 95.4993 329.606 87.7373 327.733C88.2726 334.959 90.9492 350.858 97.3729 356.639C103.797 362.421 117.179 360.654 123.068 359.048Z" fill="#032068"/>
<path d="M337.964 341.455C352.096 326.038 372.523 321.041 380.018 320.506C380.285 325.324 378.483 337.308 367.562 343.731C356.642 350.155 342.514 344.666 337.964 341.455Z" fill="#032068"/>
<path d="M192.909 -4.75706L187.902 1.72976C187.597 2.12444 187.1 2.31436 186.613 2.22213L180.424 1.04912C179.093 0.796748 178.29 2.48946 179.317 3.38223L184.181 7.60803C184.536 7.91655 184.704 8.39174 184.623 8.85797L183.402 15.8259C183.173 17.1358 184.767 17.9466 185.67 16.9791L190.667 11.6243C190.96 11.3099 191.385 11.158 191.809 11.2163L197.591 12.0129C198.894 12.1923 199.632 10.5503 198.641 9.67599L194.341 5.88013C193.995 5.57531 193.83 5.1116 193.905 4.65413L195.26 -3.71599C195.482 -5.08492 193.753 -5.85048 192.909 -4.75706Z" fill="#2792A8"/>
<path d="M58.2294 169.837L54.7242 174.47C54.5109 174.752 54.1631 174.888 53.8224 174.822L49.4901 173.984C48.558 173.804 47.9957 175.013 48.7151 175.65L52.12 178.669C52.3686 178.889 52.486 179.229 52.4288 179.562L51.5746 184.539C51.414 185.474 52.5302 186.054 53.1621 185.362L56.6597 181.538C56.865 181.313 57.1628 181.205 57.4592 181.246L61.507 181.815C62.4188 181.943 62.9352 180.77 62.2419 180.146L59.2316 177.435C58.9899 177.217 58.8744 176.886 58.9262 176.559L59.8754 170.58C60.0306 169.602 58.8202 169.056 58.2294 169.837Z" fill="#2792A8"/>
<path d="M132.355 64.856C132.355 91.9075 110.425 113.837 83.3736 113.837C56.3221 113.837 34.3926 91.9075 34.3926 64.856C34.3926 37.8046 56.3221 15.875 83.3736 15.875C110.425 15.875 132.355 37.8046 132.355 64.856Z" fill="white"/>
<path fill-rule="evenodd" clip-rule="evenodd" d="M83.3739 17.3931C57.1607 17.3931 35.9107 38.6431 35.9107 64.8563C35.9107 91.0695 57.1607 112.319 83.3739 112.319C109.587 112.319 130.837 91.0695 130.837 64.8563C130.837 38.6431 109.587 17.3931 83.3739 17.3931ZM32.875 64.8563C32.875 36.9665 55.4841 14.3574 83.3739 14.3574C111.264 14.3574 133.873 36.9665 133.873 64.8563C133.873 92.7461 111.264 115.355 83.3739 115.355C55.4841 115.355 32.875 92.7461 32.875 64.8563Z" fill="#032068"/>
<path fill-rule="evenodd" clip-rule="evenodd" d="M114.926 44.0139C116.358 45.3657 116.358 47.5574 114.926 48.9092L74.5927 86.9861C73.1608 88.338 70.8392 88.338 69.4073 86.9861L51.0739 69.6784C49.642 68.3266 49.642 66.1349 51.0739 64.7831C52.5059 63.4313 54.8275 63.4313 56.2594 64.7831L72 79.6431L109.741 44.0139C111.173 42.662 113.494 42.662 114.926 44.0139Z" fill="#27AE60"/>
</g>
<defs>
<clipPath id="clip0_72_4521">
<rect width="512" height="400" fill="white"/>
</clipPath>
</defs>
</svg>
