<svg width="56" height="56" viewBox="0 0 56 56" fill="none" xmlns="http://www.w3.org/2000/svg">
<g clip-path="url(#clip0_201_8338)">
<path d="M55.5083 10.556L50.4228 29.3904C50.1424 30.4371 49.5239 31.3619 48.6635 32.0206C47.8031 32.6794 46.749 33.0354 45.6654 33.033H36.2031V36.3143C36.2052 36.5303 36.1642 36.7446 36.0825 36.9446C36.0008 37.1446 35.8801 37.3263 35.7273 37.479C35.5745 37.6318 35.3928 37.7526 35.1928 37.8343C34.9928 37.916 34.7785 37.957 34.5625 37.9549H21.4375C21.2215 37.957 21.0072 37.916 20.8072 37.8343C20.6072 37.7526 20.4255 37.6318 20.2727 37.479C20.1199 37.3263 19.9992 37.1446 19.9175 36.9446C19.8358 36.7446 19.7948 36.5303 19.7969 36.3143V33.033H10.3364C9.25258 33.0356 8.19834 32.6797 7.33776 32.0209C6.47717 31.3621 5.85853 30.4373 5.57813 29.3904L0.49263 10.556C0.338319 10.7048 0.215263 10.8829 0.130672 11.0799C0.0460811 11.2769 0.0016577 11.4888 4.99244e-06 11.7031V47.7969C-0.000916596 48.4435 0.125762 49.0839 0.372783 49.6815C0.619804 50.2791 0.982312 50.822 1.43953 51.2792C1.89676 51.7364 2.4397 52.0989 3.03727 52.346C3.63484 52.593 4.27527 52.7197 4.92188 52.7188H51.0781C51.7247 52.7197 52.3652 52.593 52.9627 52.346C53.5603 52.0989 54.1033 51.7364 54.5605 51.2792C55.0177 50.822 55.3802 50.2791 55.6272 49.6815C55.8742 49.0839 56.0009 48.4435 56 47.7969V11.7031C55.9984 11.4888 55.9541 11.277 55.8697 11.08C55.7852 10.8831 55.6624 10.7049 55.5083 10.556Z" fill="#78C6FF"/>
<path d="M19.7969 10.0625V8.42188C19.7948 8.20584 19.8358 7.99156 19.9175 7.79156C19.9992 7.59156 20.1199 7.40986 20.2727 7.25709C20.4255 7.10433 20.6072 6.98356 20.8072 6.90185C21.0072 6.82015 21.2215 6.77915 21.4375 6.78125H34.5625C34.7785 6.77915 34.9928 6.82015 35.1928 6.90185C35.3928 6.98356 35.5745 7.10433 35.7273 7.25709C35.8801 7.40986 36.0008 7.59156 36.0825 7.79156C36.1642 7.99156 36.2052 8.20584 36.2031 8.42188V10.0625H39.4844V8.42188C39.4853 7.77527 39.3586 7.13484 39.1116 6.53727C38.8646 5.93971 38.5021 5.39676 38.0449 4.93953C37.5876 4.48231 37.0447 4.1198 36.4471 3.87278C35.8495 3.62576 35.2091 3.49908 34.5625 3.5H21.4375C20.7909 3.49908 20.1505 3.62576 19.5529 3.87278C18.9553 4.1198 18.4124 4.48231 17.9552 4.93953C17.4979 5.39676 17.1354 5.93971 16.8884 6.53727C16.6414 7.13484 16.5147 7.77527 16.5156 8.42188V10.0625H19.7969Z" fill="#0015D3"/>
<path d="M54.3594 10.0625H1.64068C1.42622 10.0639 1.21421 10.1082 1.01708 10.1926C0.819948 10.277 0.641661 10.4 0.492676 10.5542L5.57818 29.3886C5.85874 30.4354 6.47745 31.36 7.33802 32.0186C8.19859 32.6773 9.25274 33.033 10.3364 33.0304H19.7969V29.75C19.7948 29.534 19.8358 29.3197 19.9175 29.1197C19.9992 28.9197 20.12 28.738 20.2728 28.5852C20.4255 28.4324 20.6072 28.3117 20.8072 28.23C21.0072 28.1483 21.2215 28.1073 21.4376 28.1094H34.5625C34.7786 28.1073 34.9929 28.1483 35.1929 28.23C35.3929 28.3117 35.5746 28.4324 35.7273 28.5852C35.8801 28.738 36.0009 28.9197 36.0826 29.1197C36.1643 29.3197 36.2053 29.534 36.2032 29.75V33.0313H45.6646C46.7482 33.0339 47.8024 32.6782 48.663 32.0195C49.5235 31.3609 50.1422 30.4362 50.4228 29.3895L55.5083 10.5551C55.3593 10.4006 55.1809 10.2774 54.9836 10.1928C54.7863 10.1082 54.5741 10.0639 54.3594 10.0625Z" fill="#2792A8"/>
<path d="M34.5626 28.1094H21.4376C21.2215 28.1073 21.0073 28.1482 20.8073 28.23C20.6073 28.3117 20.4256 28.4324 20.2728 28.5852C20.12 28.738 19.9993 28.9197 19.9176 29.1197C19.8359 29.3197 19.7948 29.534 19.797 29.75V36.3125C19.7948 36.5285 19.8359 36.7428 19.9176 36.9428C19.9993 37.1428 20.12 37.3245 20.2728 37.4773C20.4256 37.63 20.6073 37.7508 20.8073 37.8325C21.0073 37.9142 21.2215 37.9552 21.4376 37.9531H34.5626C34.7786 37.9552 34.9929 37.9142 35.1929 37.8325C35.3929 37.7508 35.5746 37.63 35.7274 37.4773C35.8801 37.3245 36.0009 37.1428 36.0826 36.9428C36.1643 36.7428 36.2053 36.5285 36.2032 36.3125V29.75C36.2053 29.534 36.1643 29.3197 36.0826 29.1197C36.0009 28.9197 35.8801 28.738 35.7274 28.5852C35.5746 28.4324 35.3929 28.3117 35.1929 28.23C34.9929 28.1482 34.7786 28.1073 34.5626 28.1094Z" fill="#FFF8E1"/>
</g>
<defs>
<clipPath id="clip0_201_8338">
<rect width="56" height="56" fill="white"/>
</clipPath>
</defs>
</svg>
