<svg width="349" height="295" viewBox="0 0 349 295" fill="none" xmlns="http://www.w3.org/2000/svg">
<path d="M42.5341 294.871H188.05H276.598C286.1 294.871 295.366 291.912 303.111 286.403L312.859 279.469C333.047 265.111 333.653 235.319 314.066 220.151C294.964 205.358 294.974 176.49 314.087 161.711L320.922 156.426C340.829 141.034 343.618 112.016 327.008 93.1077L295.894 57.6897C274.322 33.1335 236.271 32.6231 214.05 56.5921C194.106 78.104 160.832 80.2365 138.31 61.4461L131.051 55.3902C113.414 40.675 89.1571 36.7709 67.7996 45.21C36.6006 57.5379 20.5945 92.2346 31.4533 123.999L45.3911 164.769C52.1223 184.459 42.8604 206.052 23.9617 214.729C9.57443 221.334 0.351562 235.725 0.351562 251.567V252.651C0.351562 275.969 19.2373 294.871 42.5341 294.871Z" fill="#E7E8FF"/>
<path d="M166.584 8.99128C166.584 4.73504 170.043 1.28467 174.309 1.28467H339.492C343.758 1.28467 347.217 4.73503 347.217 8.99127V173.777C347.217 178.033 343.758 181.483 339.492 181.483H174.309C170.043 181.483 166.584 178.033 166.584 173.777V8.99128Z" fill="white"/>
<path fill-rule="evenodd" clip-rule="evenodd" d="M165.426 8.99113C165.426 4.09693 169.403 0.129395 174.309 0.129395H339.492C344.398 0.129395 348.375 4.09692 348.375 8.99112V173.777C348.375 178.671 344.398 182.638 339.492 182.638H174.309C169.403 182.638 165.426 178.671 165.426 173.777V8.99113ZM174.309 2.43964C170.682 2.43964 167.742 5.37284 167.742 8.99113V173.777C167.742 177.395 170.682 180.328 174.309 180.328H339.492C343.119 180.328 346.059 177.395 346.059 173.777V8.99112C346.059 5.37284 343.119 2.43964 339.492 2.43964H174.309Z" fill="#032068"/>
<path d="M166.584 8.99127C166.584 4.73503 170.043 1.28467 174.309 1.28467H339.492C343.758 1.28467 347.217 4.73503 347.217 8.99127V27.8524H166.584V8.99127Z" fill="#032068"/>
<path d="M191.024 14.7576C191.024 17.9467 188.432 20.5319 185.235 20.5319C182.039 20.5319 179.447 17.9467 179.447 14.7576C179.447 11.5686 182.039 8.9834 185.235 8.9834C188.432 8.9834 191.024 11.5686 191.024 14.7576Z" fill="white"/>
<path d="M210.319 14.7576C210.319 17.9467 207.727 20.5319 204.53 20.5319C201.334 20.5319 198.742 17.9467 198.742 14.7576C198.742 11.5686 201.334 8.9834 204.53 8.9834C207.727 8.9834 210.319 11.5686 210.319 14.7576Z" fill="white"/>
<path d="M229.61 14.7576C229.61 17.9467 227.018 20.5319 223.821 20.5319C220.625 20.5319 218.033 17.9467 218.033 14.7576C218.033 11.5686 220.625 8.9834 223.821 8.9834C227.018 8.9834 229.61 11.5686 229.61 14.7576Z" fill="white"/>
<path d="M157.686 101.083C156.575 104.175 158.878 107.906 160.169 109.384L150.847 120.134C150.212 120.101 148.654 117.413 145.816 116.689C142.978 115.966 140.445 113.858 137.353 110.387C136.815 109.483 134.448 106.575 134.795 103.489C135.14 100.403 141.035 93.7816 144.308 93.0795C146.927 92.5179 151.37 96.2605 152.868 98.431C153.509 96.4327 154.471 95.2968 156.356 93.3469C157.68 92.4354 160.034 92.2841 160.532 93.8031C160.87 94.8321 160.523 95.9601 159.796 96.7685C158.764 97.9157 158.429 99.0167 157.686 101.083Z" fill="#EFCB96"/>
<path d="M244.213 74.0088L241.703 83.1472C240.447 87.7164 244.213 93.1163 254.675 93.1163C263.044 93.1163 264.299 85.3625 263.881 81.4857L261.788 71.1011C263.881 69.0242 265.554 67.7781 265.554 57.8089C265.554 45.3475 258.859 40.7783 250.909 40.7783C242.958 40.7783 236.263 47.4173 236.263 59.4705C236.262 69.855 241.842 73.178 244.213 74.0088Z" fill="#EFCB96"/>
<path d="M251.744 88.5469C259.444 88.5469 263.321 83.5624 264.298 81.0701L264.338 81.0701C271.734 81.07 283.783 81.07 296.099 92.2854C308.438 103.521 318.74 119.285 328.061 147.35C331.712 158.344 332.121 173.538 331.005 179.491H204.924C190.697 179.491 179.413 176.968 175.488 172.187C166.282 160.971 146.688 127.154 147.525 123.001C148.362 118.847 158.822 105.684 161.752 106.93C164.095 107.927 175.979 116.67 188.243 125.922C202.47 88.5469 231.659 80.5162 241.283 81.0701C241.562 83.5624 244.045 88.5469 251.744 88.5469Z" fill="#2792A8"/>
<path d="M223.708 65.2856C217.348 71.9317 217.71 83.5624 218.687 88.5469C229.411 82.1596 237.681 80.927 241.252 81.0701C241.252 81.7736 241.75 83.2214 241.998 83.2565L244.212 74.0086C239.758 72.1342 236.68 68.6086 236.262 59.0549C236.262 51.6009 239.749 46.1781 241.702 44.5165C248.397 44.1012 251.744 52.4088 253.837 55.7318C255.51 58.3903 256.766 57.9472 257.184 57.3934C259.276 52.4088 263.042 51.9934 263.879 57.3934C264.549 61.7133 261.369 63.901 259.695 64.4548L264.034 82.1443L264.407 81.4028C271.877 81.4028 281.939 83.7279 285.639 85.2239C286.894 71.9317 276.433 67.3625 273.085 59.0549C269.738 50.7473 274.341 46.5935 270.993 41.1935C268.512 37.1912 263.879 36.6243 260.95 35.7936C258.021 34.9628 256.347 31.6398 253 29.9782C247.141 27.9013 241.562 33.0244 240.028 36.6243C239.051 36.4859 236.262 36.8735 232.914 39.532C223.29 46.1781 231.659 56.978 223.708 65.2856Z" fill="#032068"/>
<path d="M290.777 128.844C294.702 147.35 299.222 173.486 298.627 179.491H304.514C304.726 167.906 294.211 135.175 290.777 128.844Z" fill="#032068"/>
<path d="M252.999 73.5933C247.977 74.9225 245.048 74.424 244.211 74.0086L242.956 78.5778C248.312 79.2424 251.883 75.5317 252.999 73.5933Z" fill="#032068"/>
<path d="M207.378 123.488C203.845 138.292 201.654 166.992 201 179.492H197.075C197.86 159.233 204.27 133.715 207.378 123.488Z" fill="#032068"/>
<path d="M176.961 173.161C189.912 170.044 196.748 171.862 198.547 173.161L197.566 179.492C187.754 179.492 179.741 175.271 176.961 173.161Z" fill="#032068"/>
<path d="M76.6236 168.504L74.5886 179.198L76.6236 190.401C81.8805 191.08 92.5978 192.438 93.4117 192.438C94.2257 192.438 100.195 187.346 103.078 184.799L100.025 168.504C108.572 165.652 111.387 153.056 111.726 147.115C113.761 122.671 97.4816 119.616 94.4292 119.616C91.3768 119.616 72.045 119.616 69.5013 139.986C67.4664 156.282 73.4016 165.788 76.6236 168.504Z" fill="#EFCB96"/>
<path d="M27.2761 294.797H107.147L208.385 294.288C214.649 290.198 216.403 283.6 216.42 278.004C216.434 273.418 213.132 269.729 209.005 267.738C192.612 259.827 167.729 247.584 163.108 244.382C156.494 239.798 150.39 214.845 138.18 195.494C128.412 180.013 110.03 176.482 102.569 176.652C101.89 179.707 99.0075 185.818 88.8328 185.818C78.6582 185.818 74.4187 179.707 73.0621 176.652C67.8052 176.652 53.2215 179.504 41.0119 190.911C25.7605 205.16 19.1455 237.716 13.0442 267.744L13.0315 267.807C8.14767 291.844 20.4929 295.476 27.2761 294.797Z" fill="#2792A8"/>
<path d="M61.3611 255.585L68.9921 224.521L67.4659 255.585L102.214 264.069C106.676 265.158 110.848 267.935 111.693 272.454C113.199 280.515 110.195 289.087 106.638 292.251C109.691 287.879 109.691 271.372 106.13 268.826C103.281 266.789 67.9747 260.168 50.6777 257.113L61.3611 255.585Z" fill="#032068"/>
<path d="M137.163 216.373L155.986 294.797H164.126L137.163 216.373Z" fill="#032068"/>
<path d="M82.2177 158.319C80.1827 170.133 77.2999 171.389 76.1129 170.541C61.8683 161.374 62.212 132.087 71.0256 122.162C79.1653 112.996 85.2701 116.56 102.058 112.486C118.846 108.412 124.443 115.542 121.39 124.708C116.996 137.904 103.076 130.819 99.5146 132.347C95.9535 133.875 91.3749 137.949 89.3399 146.097C87.305 154.245 86.2875 152.717 84.7613 148.134C83.2351 143.551 79.1653 136.93 76.1129 145.078C73.6709 151.597 79.1653 156.621 82.2177 158.319Z" fill="#032068"/>
<path d="M142.25 294.797C142.25 280.946 121.731 276.804 111.726 276.464C111.726 283.39 107.486 291.572 105.112 294.797H142.25Z" fill="#EFCB96"/>
<path d="M241.129 293.861C241.129 281.549 224.869 278.932 216.098 278.63C216.098 284.787 210.652 290.994 208.57 293.861H241.129Z" fill="#EFCB96"/>
<path fill-rule="evenodd" clip-rule="evenodd" d="M11.9433 276.416C11.7028 286.247 15.1466 294.797 25.6549 294.797H34.9092C32.4673 278.502 19.5507 268.657 13.4457 265.771C13.3117 266.43 13.178 267.088 13.0445 267.745L13.0318 267.807C12.3811 271.01 12.0362 273.868 11.9433 276.416Z" fill="#032068"/>
<path d="M90.261 168.349C94.9991 169.93 98.2818 169.007 99.9269 168.349L101.453 175.478C95.1357 174.688 91.5771 170.16 90.261 168.349Z" fill="#032068"/>
<path d="M194.645 220.011L167.231 282.307C165.855 285.435 168.144 288.946 171.559 288.946H255.21C257.131 288.946 258.861 287.783 259.587 286.003L285.002 223.706C286.272 220.594 283.984 217.186 280.624 217.186H198.972C197.098 217.186 195.401 218.294 194.645 220.011Z" fill="white"/>
<path fill-rule="evenodd" clip-rule="evenodd" d="M198.973 218.169C197.488 218.169 196.143 219.046 195.545 220.407L168.131 282.703C167.041 285.181 168.854 287.963 171.559 287.963H255.21C256.732 287.963 258.103 287.041 258.679 285.631L284.093 223.334C285.099 220.868 283.287 218.169 280.625 218.169H198.973ZM193.747 219.614C194.659 217.541 196.709 216.203 198.973 216.203H280.625C284.682 216.203 287.445 220.318 285.912 224.077L260.497 286.374C259.62 288.524 257.53 289.928 255.21 289.928H171.559C167.436 289.928 164.671 285.688 166.333 281.911L193.747 219.614Z" fill="#032068"/>
<path d="M220.196 248.082C221.733 244.514 225.244 242.203 229.127 242.203C236.119 242.203 240.826 249.365 238.058 255.79L237.368 257.392C235.83 260.959 232.319 263.27 228.437 263.27C221.445 263.27 216.737 256.108 219.506 249.683L220.196 248.082Z" fill="#2792A8"/>
<path d="M253.897 294.871H108.72C106.358 294.871 104.443 292.955 104.443 290.592C104.443 288.228 106.358 286.312 108.72 286.312H253.897C256.961 286.312 259.031 289.443 257.832 292.265C257.162 293.845 255.612 294.871 253.897 294.871Z" fill="#032068"/>
<path d="M80.5102 71.1163C78.8116 74.6099 73.7995 75.7536 71.5057 75.8888L71.2554 90.6944C71.8002 91.2019 73.2459 92.6423 74.6698 94.3445C75.4981 95.6799 86.5748 95.4849 92.0097 95.2205C93.208 94.9266 95.6952 94.1884 96.0582 93.5865C96.5119 92.8342 100.194 79.1101 98.1234 75.7716C96.4668 73.1008 89.9644 73.4988 86.9203 74.0316C88.8255 71.3581 88.7034 66.8527 88.1222 63.3448C87.8125 61.4754 85.7936 60.5873 84.1101 61.4233C82.9696 61.9897 82.3022 63.2144 82.213 64.4954C82.0865 66.3132 81.6449 68.7823 80.5102 71.1163Z" fill="#2792A8"/>
<path d="M60.2881 73.979C60.2854 72.7442 61.2738 71.741 62.4959 71.7382L70.4747 71.7205C71.6967 71.7178 72.6896 72.7166 72.6923 73.9514L72.7341 93.1526C72.7368 94.3874 71.7483 95.3906 70.5263 95.3933L62.5475 95.4111C61.3254 95.4138 60.3326 94.415 60.3299 93.1802L60.2881 73.979Z" fill="#032068"/>
<path d="M125.907 24.4089L127.26 28.4806C127.342 28.7283 127.279 28.9973 127.096 29.1779L124.767 31.4744C124.266 31.9684 124.767 32.8157 125.458 32.6422L128.726 31.8209C128.965 31.7609 129.221 31.8307 129.4 32.0044L132.075 34.6003C132.577 35.0884 133.399 34.6481 133.243 33.9742L132.379 30.2442C132.329 30.0252 132.388 29.7981 132.537 29.6344L134.583 27.3996C135.043 26.8962 134.545 26.092 133.874 26.2552L130.958 26.9635C130.724 27.0204 130.474 26.9529 130.296 26.785L127.051 23.7136C126.52 23.2113 125.679 23.7226 125.907 24.4089Z" fill="#2792A8"/>
<path d="M287.216 248.848C282.032 251.785 289.689 266.002 294.338 273.007C294.503 273.255 294.808 273.361 295.094 273.275L300.463 271.665C300.788 271.568 300.994 271.246 300.94 270.91C298.987 258.585 293.724 245.162 287.216 248.848Z" fill="#032068"/>
<path d="M303.159 210.705C287.401 214.324 291.847 252.295 296.17 271.506C296.257 271.89 296.648 272.107 297.025 271.994L309.725 268.186C309.965 268.114 310.144 267.925 310.195 267.68C314.499 246.918 319.01 207.064 303.159 210.705Z" fill="white"/>
<path fill-rule="evenodd" clip-rule="evenodd" d="M296.832 271.339L309.529 267.531C311.676 257.174 313.867 242.084 313.553 230.06C313.396 224.03 312.61 218.864 310.938 215.453C310.107 213.757 309.081 212.544 307.853 211.851C306.639 211.166 305.154 210.947 303.31 211.371C299.673 212.206 297.131 215.027 295.445 219.282C293.756 223.542 292.974 229.136 292.816 235.275C292.5 247.538 294.678 261.764 296.832 271.339ZM294.177 218.779C295.954 214.295 298.765 211.013 303.007 210.039C305.126 209.552 306.967 209.782 308.524 210.661C310.066 211.532 311.255 212.998 312.163 214.85C313.969 218.536 314.758 223.949 314.917 230.023C315.234 242.202 313.02 257.414 310.863 267.818C310.759 268.32 310.389 268.699 309.92 268.84L297.22 272.648C296.483 272.869 295.682 272.446 295.505 271.656C293.336 262.021 291.133 247.665 291.452 235.241C291.612 229.035 292.402 223.256 294.177 218.779Z" fill="#032068"/>
<path d="M318.096 232.526C308.685 233.957 307.048 256.795 307.372 268.713C307.384 269.159 307.817 269.464 308.244 269.336L315.124 267.273C315.321 267.214 315.479 267.074 315.557 266.883C320.486 254.736 327.664 231.071 318.096 232.526Z" fill="#032068"/>
<path fill-rule="evenodd" clip-rule="evenodd" d="M304.286 226.34L304.411 216.136L303.047 216.121L302.79 237.011L297.541 231.971L296.596 232.958L302.767 238.883L302.514 259.439L297.916 255.598L297.041 256.648L302.492 261.201L302.382 270.179L303.746 270.194L303.971 251.872L309.414 246.531L308.46 245.555L303.995 249.937L304.261 228.341L308.761 223.633L307.776 222.689L304.286 226.34Z" fill="#032068"/>
<path d="M285.075 267.489C284.803 266.213 285.773 265.01 287.075 265.01H318.277C319.55 265.01 320.514 266.164 320.29 267.42L315.701 293.182C315.527 294.16 314.678 294.872 313.688 294.872H292.582C291.618 294.872 290.785 294.196 290.583 293.251L285.075 267.489Z" fill="#2792A8"/>
<path d="M308.579 53.1717L309.684 58.4459C309.751 58.7668 309.634 59.0958 309.379 59.2989L306.141 61.8819C305.445 62.4376 305.949 63.5629 306.836 63.4329L311.036 62.8177C311.343 62.7728 311.652 62.8927 311.851 63.133L314.819 66.7252C315.377 67.4005 316.466 66.9529 316.368 66.0885L315.825 61.3046C315.793 61.0237 315.899 60.7467 316.11 60.5605L318.985 58.019C319.632 57.4464 319.126 56.3755 318.263 56.4949L314.52 57.0132C314.22 57.0548 313.917 56.9385 313.72 56.7056L310.107 52.4453C309.516 51.7486 308.392 52.2827 308.579 53.1717Z" fill="#2792A8"/>
<path d="M25.9557 162.852L24.7417 164.346C24.6678 164.437 24.5474 164.481 24.4294 164.46L22.9289 164.189C22.606 164.131 22.4113 164.521 22.6604 164.727L23.8397 165.7C23.9258 165.771 23.9665 165.881 23.9467 165.988L23.6508 167.593C23.5952 167.895 23.9818 168.082 24.2007 167.859L25.4121 166.625C25.4832 166.553 25.5863 166.518 25.689 166.531L27.091 166.715C27.4068 166.756 27.5856 166.378 27.3455 166.177L26.3029 165.302C26.2191 165.232 26.1791 165.125 26.1971 165.02L26.5258 163.092C26.5796 162.776 26.1604 162.6 25.9557 162.852Z" fill="#2792A8"/>
</svg>
