<svg width="372" height="303" viewBox="0 0 372 303" fill="none" xmlns="http://www.w3.org/2000/svg">
<g clip-path="url(#clip0_44_1169)">
<path d="M77.5876 301.444H202.456H311.593C340.232 301.444 356.888 269.181 340.237 245.961C333.732 236.889 331.941 225.275 335.413 214.675L354.772 155.569C367.331 117.224 358.445 75.1146 331.452 45.0581L317.996 30.0758C288.691 -2.55392 239.471 -8.9056 202.412 14.6248C181.958 27.6125 156.76 31.7327 133.269 25.7175L125.924 23.8366C87.3452 13.9576 47.4187 34.2381 32.7732 71.1525L32.2296 72.5226C24.6303 91.6765 25.2351 113.096 33.903 131.794L37.5865 139.74C47.2461 160.577 44.2494 185.189 30.0008 203.223C10.5865 227.795 12.9834 263.257 35.7386 284.795C47.0318 295.484 62.0124 301.444 77.5876 301.444Z" fill="#E7E8FF"/>
<path d="M293.446 301.577H284.65C292.95 276.752 303.223 265.232 309.063 261.342C310.163 260.61 311.444 261.493 311.329 262.806C309.689 281.455 298.889 296.297 293.446 301.577Z" fill="white"/>
<path fill-rule="evenodd" clip-rule="evenodd" d="M310.139 262.075C310.29 262.175 310.435 262.393 310.406 262.725C308.818 280.795 298.478 295.263 293.066 300.653H285.939C294.127 276.781 304.063 265.782 309.578 262.109C309.813 261.952 310.004 261.986 310.139 262.075ZM311.164 260.537C310.413 260.04 309.413 259.998 308.549 260.574C302.476 264.618 292.108 276.349 283.771 301.285L283.365 302.5H293.822L294.092 302.238C299.647 296.849 310.587 281.812 312.251 262.886C312.337 261.904 311.899 261.024 311.164 260.537Z" fill="#032068"/>
<path d="M313.283 211.936C317.709 246.772 296.235 286.599 284.65 302.5H271.687C277.863 236.816 298.558 214.133 310.281 209.929C311.699 209.42 313.094 210.446 313.283 211.936Z" fill="#032068"/>
<path fill-rule="evenodd" clip-rule="evenodd" d="M299.299 236.538L303.679 223.284L305.438 223.862L294.507 256.941L302.786 253.195L303.552 254.877L293.72 259.325L284.701 286.618L292.557 282.748L293.378 284.403L283.889 289.078L279.511 302.327L277.752 301.749L286.644 274.837L281.939 263.149L283.658 262.462L287.544 272.115L298.389 239.292L294.899 230.37L296.624 229.699L299.299 236.538Z" fill="white"/>
<path d="M291.812 188.809C305.676 223.026 288.073 277.883 277.242 301.577H261.964C262.306 227.022 278.415 195.912 288.304 187.772C289.515 186.776 291.224 187.357 291.812 188.809Z" fill="white"/>
<path fill-rule="evenodd" clip-rule="evenodd" d="M288.894 188.485C289.538 187.954 290.558 188.177 290.954 189.155C297.784 206.012 296.89 228.065 292.878 248.966C288.933 269.522 282.002 288.813 276.645 300.654H262.895C263.129 263.927 267.211 237.889 272.442 220.028C277.728 201.985 284.158 192.382 288.894 188.485ZM292.671 188.463C291.891 186.538 289.492 185.598 287.715 187.061C282.56 191.303 275.992 201.324 270.665 219.51C265.328 237.728 261.209 264.234 261.038 301.573L261.034 302.5H277.838L278.085 301.96C283.526 290.055 290.66 270.347 294.697 249.313C298.729 228.308 299.704 205.823 292.671 188.463Z" fill="#032068"/>
<path fill-rule="evenodd" clip-rule="evenodd" d="M282.368 224.866L285.588 205.88L287.414 206.188L280.948 244.313L288.787 239.407L289.771 240.971L280.535 246.751L275.113 278.718L280.999 275.824L281.818 277.48L274.732 280.964L271.21 301.73L269.384 301.423L275.206 267.098L269.465 255.364L271.13 254.554L275.736 263.971L281.857 227.879L275.958 216.615L277.6 215.761L282.368 224.866Z" fill="#032068"/>
<path d="M305.991 56.75C305.991 75.5692 290.722 90.8252 271.888 90.8252C253.053 90.8252 237.784 75.5692 237.784 56.75C237.784 37.9308 253.053 22.6748 271.888 22.6748C290.722 22.6748 305.991 37.9308 305.991 56.75Z" fill="white"/>
<path fill-rule="evenodd" clip-rule="evenodd" d="M271.888 23.7305C253.637 23.7305 238.841 38.5138 238.841 56.7498C238.841 74.9858 253.637 89.769 271.888 89.769C290.139 89.769 304.934 74.9858 304.934 56.7498C304.934 38.5138 290.139 23.7305 271.888 23.7305ZM236.728 56.7498C236.728 37.3474 252.469 21.6187 271.888 21.6187C291.306 21.6187 307.048 37.3474 307.048 56.7498C307.048 76.1522 291.306 91.8809 271.888 91.8809C252.469 91.8809 236.728 76.1522 236.728 56.7498Z" fill="#032068"/>
<path d="M279.156 56.7497C279.156 60.7604 275.902 64.0116 271.888 64.0116C267.874 64.0116 264.62 60.7604 264.62 56.7497C264.62 52.7391 267.874 49.4878 271.888 49.4878C275.902 49.4878 279.156 52.7391 279.156 56.7497Z" fill="#2792A8"/>
<path fill-rule="evenodd" clip-rule="evenodd" d="M271.039 28.1675L273.538 56.2679L260.96 71.3902L259.334 70.0403L271.355 55.5876L268.934 28.3544L271.039 28.1675Z" fill="#032068"/>
<path d="M261.058 115.562L262.78 110.06C263.087 109.08 264.471 109.07 264.792 110.045L266.555 115.392C266.662 115.715 266.918 115.968 267.244 116.069L273.128 117.908C274.076 118.204 274.129 119.525 273.208 119.895L267.427 122.222C267.146 122.335 266.927 122.564 266.826 122.849L264.538 129.297C264.199 130.255 262.834 130.228 262.533 129.257L260.632 123.13C260.54 122.832 260.32 122.59 260.031 122.469L253.59 119.773C252.643 119.376 252.761 117.999 253.762 117.77L260.285 116.276C260.652 116.192 260.946 115.92 261.058 115.562Z" fill="#2792A8"/>
<path d="M313.338 163.86L314.604 162.495C315.302 161.741 316.557 162.326 316.428 163.345L316.201 165.137C316.158 165.475 316.281 165.813 316.531 166.044L318.189 167.579C318.917 168.253 318.397 169.468 317.406 169.407L315.084 169.265C314.782 169.247 314.486 169.359 314.272 169.573L312.433 171.413C311.715 172.132 310.494 171.521 310.64 170.515L310.974 168.201C311.019 167.892 310.924 167.579 310.716 167.346L308.959 165.385C308.274 164.62 308.973 163.427 309.976 163.65L312.333 164.173C312.7 164.255 313.082 164.136 313.338 163.86Z" fill="#2792A8"/>
<path d="M73.4945 68.4822L69.1364 74.2843C68.8712 74.6374 68.4388 74.8072 68.0153 74.7247L62.6288 73.6755C61.47 73.4498 60.7708 74.9638 61.6652 75.7624L65.8986 79.5421C66.2076 79.8181 66.3536 80.2431 66.2826 80.6601L65.2205 86.8926C65.0209 88.0643 66.4086 88.7895 67.1943 87.9241L71.5429 83.1345C71.7982 82.8533 72.1684 82.7174 72.537 82.7696L77.5696 83.482C78.7033 83.6425 79.3453 82.1738 78.4833 81.3918L74.7406 77.9966C74.44 77.724 74.2964 77.3092 74.3609 76.9L75.541 69.4134C75.734 68.189 74.2291 67.5042 73.4945 68.4822Z" fill="#2792A8"/>
<path d="M22.7946 145.08L19.8311 148.949C19.6508 149.184 19.3567 149.297 19.0687 149.242L15.4059 148.543C14.6179 148.392 14.1425 149.402 14.7507 149.934L17.6293 152.454C17.8395 152.638 17.9388 152.921 17.8905 153.199L17.1683 157.354C17.0325 158.135 17.9761 158.619 18.5104 158.042L21.4675 154.849C21.6411 154.661 21.8928 154.571 22.1434 154.605L25.5657 155.08C26.3366 155.187 26.7731 154.208 26.187 153.687L23.6419 151.423C23.4375 151.242 23.3399 150.965 23.3837 150.692L24.1862 145.701C24.3174 144.885 23.2941 144.428 22.7946 145.08Z" fill="#2792A8"/>
<path d="M91.5103 122.544L62.8528 142.067C62.7878 142.111 62.699 142.094 62.6546 142.029C59.4702 137.372 60.6688 131.021 65.3318 127.844L77.3387 119.665C82.0017 116.488 88.3632 117.688 91.5477 122.346C91.5921 122.411 91.5754 122.499 91.5103 122.544Z" fill="#032068"/>
<path d="M95.1112 132.618L70.9375 149.086C69.6343 149.974 67.8563 149.639 66.9663 148.337L64.3429 144.5C63.4529 143.198 63.7879 141.423 65.0911 140.536L89.2648 124.067C90.5681 123.179 92.346 123.515 93.236 124.816L95.8594 128.653C96.7494 129.955 96.4144 131.73 95.1112 132.618Z" fill="#2792A8"/>
<path d="M94.5689 147.084L84.6323 153.853C79.3977 157.419 72.2563 156.072 68.6815 150.843C68.6239 150.759 68.6456 150.644 68.73 150.586L97.3171 131.111C97.4015 131.054 97.5167 131.076 97.5743 131.16C101.149 136.388 99.8035 143.518 94.5689 147.084Z" fill="#032068"/>
<path d="M62.411 159.309C63.1581 161.768 62.0998 166.187 61.4773 168.089L79.6871 170.284C79.8428 168.821 80.2474 165.543 80.6209 164.138C81.0878 162.382 85.2897 158.87 86.2235 156.236C86.9705 154.129 85.601 147.164 84.8229 143.945C81.0878 144.384 80.154 146.579 79.6871 147.457C79.2203 148.335 78.7534 154.919 78.7534 155.358C77.2162 156.09 73.2022 155.797 69.4443 152.286L63.3448 143.945C59.6098 150.091 61.4773 156.236 62.411 159.309Z" fill="#EFCB96"/>
<path d="M189.18 126.524L193.654 145.169C192.521 149.163 187.635 157.365 177.161 158.228C166.687 159.09 161.366 150.265 160.015 145.745L160.447 133.277C157.962 132.751 152.63 129.094 151.182 118.683C149.371 105.669 150.837 87.9971 159.931 82.8606C169.026 77.724 183.874 80.158 194.288 99.7768C202.618 115.472 194.354 124.148 189.18 126.524Z" fill="#EFCB96"/>
<path d="M186.465 120.168C186.706 123.074 188.138 128.562 189.672 132.337C193.489 134.216 205.198 116.432 205.268 99.6055C205.325 86.1445 197.076 83.2157 192.854 82.3445C192.411 79.9432 188.253 72.7773 172.737 69.3742C153.342 65.1204 137.941 73.7018 142.114 88.716C146.288 103.73 169.203 97.4555 172.84 97.1561C176.477 96.8566 176.051 100.548 179.683 109.025C183.315 117.502 182.893 112.418 184.047 108.666C185.201 104.914 190.66 100.077 192.049 108.007C193.438 115.937 186.164 116.536 186.465 120.168Z" fill="#032068"/>
<path d="M175.784 132.745C168.314 134.53 162.446 133.843 160.446 133.276L160.14 138.422C164.214 138.086 172.267 134.497 175.784 132.745Z" fill="#032068"/>
<path d="M177.714 148.719C166.618 148.719 160.924 143.375 159.464 140.703C150.075 141.896 136.27 146.954 125.488 154.033C125.178 154.231 124.844 154.454 124.486 154.702C121.383 156.813 118.56 159.094 116.204 161.496C109.026 168.121 99.6576 178.492 91.1878 192.402C90.3083 185.554 88.1272 171.331 86.4386 169.224C84.3278 166.59 59.5264 164.483 55.8326 167.643C52.1388 170.804 34.1974 245.607 44.2234 262.991C54.2495 280.375 77.679 280.902 89.6047 270.366L104.908 255.616L101.214 302.486H249.984C256.798 302.729 272.323 299.862 279.915 286.453C289.405 269.692 266.775 187.343 252.175 166.938C240.495 150.614 208.861 142.646 194.505 140.703C193.531 143.375 188.811 148.719 177.714 148.719Z" fill="#2792A8"/>
<path d="M145.598 252.479L148.408 300.862C148.437 301.365 148.854 301.758 149.359 301.758H176.761C177.266 301.758 177.683 301.365 177.712 300.862L180.522 252.479C180.554 251.934 180.119 251.474 179.571 251.474H146.549C146.001 251.474 145.567 251.934 145.598 252.479Z" fill="white"/>
<path fill-rule="evenodd" clip-rule="evenodd" d="M144.648 252.534C144.584 251.442 145.454 250.522 146.549 250.522H179.571C180.667 250.522 181.536 251.442 181.473 252.534L178.663 300.917C178.605 301.922 177.771 302.708 176.762 302.708H149.359C148.35 302.708 147.516 301.922 147.457 300.917L144.648 252.534ZM179.571 252.424L146.549 252.424L149.359 300.806H176.762L179.571 252.424Z" fill="#032068"/>
<path d="M149.358 301.757H176.761C177.266 301.757 177.683 301.364 177.712 300.862L179.603 268.299C179.629 267.84 179.313 267.423 178.863 267.327C164.906 264.345 161.558 273.972 147.947 268.177C147.279 267.892 146.522 268.396 146.564 269.12L148.407 300.862C148.437 301.364 148.854 301.757 149.358 301.757Z" fill="#032068"/>
<path fill-rule="evenodd" clip-rule="evenodd" d="M156.573 271.02C153.977 271.063 151.083 270.545 147.574 269.051C147.567 269.048 147.563 269.047 147.56 269.047C147.557 269.046 147.554 269.046 147.551 269.047C147.543 269.048 147.533 269.051 147.524 269.057C147.52 269.06 147.517 269.062 147.515 269.064C147.515 269.064 147.515 269.064 147.515 269.064L149.359 300.806H176.761L178.652 268.254C172.476 266.938 168.51 268.174 164.561 269.404C164.226 269.509 163.891 269.613 163.555 269.716C161.395 270.376 159.159 270.977 156.573 271.02ZM179.062 266.397L178.863 267.327L178.863 267.329M179.062 266.397C172.381 264.97 167.992 266.34 164.007 267.584L179.062 266.397ZM164.007 267.584C163.668 267.69 163.331 267.795 162.997 267.898L164.007 267.584ZM162.997 267.898C160.873 268.547 158.848 269.08 156.542 269.119L162.997 267.898ZM156.542 269.119C154.246 269.157 151.617 268.705 148.321 267.302L156.542 269.119ZM179.062 266.397C179.975 266.592 180.608 267.429 180.554 268.354L178.663 300.916C178.605 301.922 177.771 302.708 176.761 302.708H149.359C148.35 302.708 147.515 301.922 147.457 300.916L145.614 269.175C145.528 267.704 147.042 266.757 148.321 267.302M179.062 266.397L178.863 267.327L179.062 266.397Z" fill="#032068"/>
<path d="M156.449 216.788C156.253 215.641 157.025 214.552 158.174 214.356C159.323 214.16 160.414 214.931 160.611 216.078L165.769 246.194C165.965 247.341 165.193 248.43 164.044 248.626C162.895 248.822 161.804 248.051 161.608 246.904L156.449 216.788Z" fill="#032068"/>
<path d="M190.642 273.309L190.839 291.679C188.563 291.507 184.683 294.306 175.847 294.875C165.653 295.531 160.358 292.259 160.657 279.702C160.957 267.144 172.028 270.044 175.018 270.064C178.008 270.085 176.042 267.873 181.04 266.808C185.037 265.956 189.107 270.787 190.642 273.309Z" fill="#EFCB96"/>
<path d="M114.044 187.661L105.436 255.089L96.993 262.991L114.044 187.661Z" fill="#032068"/>
<path d="M234.72 246.661L230.498 212.42L227.86 248.241C222.372 251.613 200.42 260.357 191.449 268.259C197.781 264.567 228.739 253.158 245.801 246.661H234.72Z" fill="#032068"/>
<path d="M258.465 302.5C248.334 302.5 210.973 298.286 193.56 296.179L216.25 302.5H258.465Z" fill="#032068"/>
<path d="M184.693 252.982H141.216C140.69 252.982 140.264 252.557 140.264 252.032V246.558C140.264 246.033 140.69 245.607 141.216 245.607H184.693C185.219 245.607 185.645 246.033 185.645 246.558V252.032C185.645 252.557 185.219 252.982 184.693 252.982Z" fill="#032068"/>
<path d="M147.651 241.92L145.54 246.661H180.368L178.257 241.92H147.651Z" fill="white"/>
<path fill-rule="evenodd" clip-rule="evenodd" d="M147.032 240.969H178.875L181.833 247.611H144.074L147.032 240.969ZM148.269 242.87L147.005 245.71H178.902L177.637 242.87H148.269Z" fill="#032068"/>
<path d="M91.3562 7.99608C86.5745 10.1342 84.199 11.9108 80.3789 15.8815C76.6944 19.7113 80.4649 33.0996 90.5207 47.2068C100.576 61.3139 111.639 68.7344 116.794 66.968C121.746 64.5942 124.208 62.9087 127.793 59.097C127.818 59.0698 127.842 59.0408 127.863 59.01C131.289 53.964 127.395 41.3453 117.69 27.7304C107.993 14.1261 96.9354 6.65148 91.4786 7.95392C91.4365 7.96398 91.3958 7.97839 91.3562 7.99608Z" fill="white"/>
<path fill-rule="evenodd" clip-rule="evenodd" d="M103.442 11.6376C108.178 15.1006 113.421 20.433 118.308 27.2881C123.193 34.1409 126.635 40.7695 128.424 46.3508C129.318 49.1409 129.806 51.6935 129.843 53.8957C129.879 56.0916 129.467 58.0009 128.491 59.438L127.864 59.01L128.491 59.4381C128.445 59.506 128.395 59.5661 128.345 59.6189L127.794 59.097L128.345 59.6188C128.345 59.6188 128.345 59.6189 128.345 59.6189C124.687 63.509 122.145 65.2466 117.122 67.6542L117.082 67.6733L117.04 67.6877C115.526 68.2067 113.678 68.023 111.68 67.3279C109.67 66.6284 107.423 65.3827 105.05 63.6554C100.303 60.1993 94.9685 54.7533 89.9045 47.6491C84.8409 40.5455 81.3422 33.5996 79.574 27.9166C78.6906 25.0776 78.2295 22.523 78.2375 20.4051C78.2453 18.3057 78.716 16.5154 79.8339 15.3534C83.7114 11.323 86.1651 9.48491 91.0482 7.30144L91.3571 7.99608L91.0482 7.30144C91.1244 7.26738 91.2097 7.23649 91.3038 7.21402L91.4794 7.95391L91.4804 7.95789M91.4794 7.95391L91.3038 7.21402C92.8727 6.83954 94.7512 7.11189 96.778 7.86865C98.8164 8.62975 101.074 9.90657 103.442 11.6376M91.6635 8.6918C92.822 8.41791 94.369 8.59233 96.2487 9.29418C98.1213 9.99338 100.257 11.1913 102.548 12.8667C107.129 16.2164 112.263 21.4235 117.074 28.1727C121.894 34.9348 125.251 41.423 126.979 46.8162C127.844 49.5134 128.293 51.9126 128.326 53.921C128.36 55.9325 127.976 57.4909 127.241 58.5766C123.741 62.2981 121.362 63.9328 116.51 66.2617C115.45 66.6104 113.995 66.523 112.178 65.8908C110.35 65.2549 108.236 64.095 105.941 62.4245C101.355 59.0852 96.1303 53.7674 91.1385 46.7645C86.1462 39.7609 82.7318 32.9591 81.022 27.4636C80.1663 24.7135 79.7471 22.3211 79.7543 20.4108C79.7615 18.4818 80.2012 17.1625 80.9255 16.4095C84.6875 12.4993 86.9847 10.7842 91.6635 8.6918Z" fill="#032068"/>
<path fill-rule="evenodd" clip-rule="evenodd" d="M87.9827 9.67705C88.7 9.27303 90.1456 10.6703 90.073 11.4921C89.5544 17.365 93.5761 28.1048 101.554 39.2971C110.244 51.4879 119.685 58.6853 125.417 59.2759C126.318 59.3688 127.127 59.2983 127.828 59.0584C127.828 59.058 127.829 59.0576 127.83 59.0572C127.832 59.0562 127.834 59.0587 127.833 59.0606C127.833 59.0607 127.833 59.0608 127.833 59.0609C124.227 62.9016 121.765 64.5907 116.795 66.973C111.64 68.7395 100.578 61.319 90.5217 47.2118C80.4659 33.1047 76.6955 19.7163 80.38 15.8865C83.1849 12.971 85.211 11.2384 87.9827 9.67705Z" fill="#032068"/>
<path fill-rule="evenodd" clip-rule="evenodd" d="M128.087 59.7731L128.073 59.7782C128.063 59.7816 128.053 59.785 128.042 59.7884C128.057 59.7838 128.072 59.7787 128.087 59.7731ZM125.789 60.0669C125.64 60.0597 125.49 60.0482 125.339 60.0326C122.25 59.7143 118.314 57.6525 114.116 54.2266C109.892 50.7799 105.314 45.8804 100.937 39.7396C96.9178 34.1013 93.8869 28.5658 91.9236 23.6844C89.9688 18.8243 89.0422 14.5384 89.3172 11.4251C89.3169 11.4279 89.3169 11.4275 89.3163 11.4238C89.3138 11.4076 89.3014 11.3274 89.2186 11.1817C89.1265 11.0196 88.9835 10.8422 88.8145 10.6887C88.6425 10.5325 88.4784 10.4324 88.3593 10.3883C88.3339 10.3789 88.3147 10.3734 88.3009 10.3702C85.645 11.8737 83.6849 13.5464 80.9254 16.4147C80.201 17.1677 79.7614 18.487 79.7542 20.416C79.747 22.3263 80.1662 24.7186 81.0218 27.4688C82.7317 32.9643 86.1461 39.7661 91.1383 46.7697C96.1301 53.7726 101.355 59.0904 105.941 62.4297C108.236 64.1002 110.35 65.2601 112.177 65.896C113.995 66.5282 115.45 66.6156 116.51 66.2669C120.664 64.2733 123.005 62.7883 125.789 60.0669ZM88.2728 10.3659C88.2727 10.3658 88.2744 10.3657 88.278 10.366C88.2746 10.3662 88.2729 10.366 88.2728 10.3659ZM128.155 59.7446L128.157 59.7435L128.155 59.7446ZM127.558 58.3468C128.241 58.0777 128.891 58.8674 128.455 59.4953C128.433 59.5267 128.409 59.5558 128.385 59.5823C124.705 63.5015 122.163 65.2429 117.122 67.6594L117.082 67.6785L117.04 67.6929C115.525 68.2118 113.678 68.0282 111.68 67.3331C109.67 66.6335 107.423 65.3879 105.05 63.6606C100.303 60.2045 94.9683 54.7585 89.9043 47.6542C84.8408 40.5507 81.342 33.6047 79.5738 27.9218C78.6905 25.0827 78.2294 22.5282 78.2373 20.4103C78.2452 18.3109 78.7159 16.5205 79.8338 15.3586C82.6659 12.4148 84.7503 10.6255 87.6109 9.01406C88.0626 8.75964 88.5433 8.83509 88.8842 8.96119C89.2356 9.09116 89.5629 9.31604 89.8329 9.56135C90.1059 9.80938 90.3555 10.1101 90.5364 10.4285C90.7082 10.7307 90.8658 11.1332 90.8281 11.5593C90.5844 14.3189 91.4094 18.3393 93.3303 23.1155C95.2428 27.8704 98.2118 33.3009 102.171 38.855C106.483 44.9049 110.971 49.6995 115.073 53.0468C119.201 56.4149 122.852 58.2472 125.494 58.5194C126.302 58.6026 126.989 58.5373 127.558 58.3468Z" fill="#032068"/>
<path fill-rule="evenodd" clip-rule="evenodd" d="M102.547 24.388C102.451 23.5133 102.532 22.641 102.987 21.9615L104.246 22.8096C104.08 23.0579 103.976 23.5032 104.055 24.2224C104.132 24.9262 104.372 25.791 104.762 26.7727C105.541 28.7327 106.868 31.0388 108.438 33.2414C110.007 35.4429 111.794 37.5054 113.473 38.9892C114.313 39.7316 115.109 40.3135 115.822 40.6972C116.546 41.0874 117.116 41.2352 117.528 41.2096L117.622 42.7278C116.806 42.7786 115.941 42.4879 115.104 42.0374C114.255 41.5805 113.364 40.9197 112.47 40.1305C110.683 38.5511 108.821 36.3947 107.204 34.126C105.588 31.8586 104.191 29.4436 103.353 27.3359C102.935 26.2838 102.644 25.2782 102.547 24.388Z" fill="#032068"/>
</g>
<defs>
<clipPath id="clip0_44_1169">
<rect width="372" height="302" fill="white" transform="translate(0 0.5)"/>
</clipPath>
</defs>
</svg>
