<svg width="412" height="275" viewBox="0 0 412 275" fill="none" xmlns="http://www.w3.org/2000/svg">
<g clip-path="url(#clip0_34_158)">
<path d="M127.508 269.42H283.054H324.407C358.185 269.42 378.053 231.495 358.809 203.752C353.953 196.751 351.352 188.436 351.352 179.918V116.511C351.352 86.7817 322.745 65.4111 294.215 73.8262C273.356 79.9785 251.102 70.1738 241.577 50.6349L235.219 37.5937C221.018 8.4658 185.358 -2.91542 156.893 12.5956L98.8716 44.2129C73.2809 58.1579 65.2636 91.0947 81.5852 115.229L92.842 131.875C103.462 147.579 97.9489 169.029 81.0703 177.674C64.8517 185.981 59.0037 206.237 68.302 221.902L80.692 242.775C90.497 259.293 108.291 269.42 127.508 269.42Z" fill="#E7E8FF"/>
<path d="M226.218 57.8228C140.826 57.8228 71.6023 127.135 71.6023 212.636C71.6023 232.315 75.2694 251.137 81.9568 268.453H370.48C377.167 251.137 380.834 232.315 380.834 212.636C380.834 127.135 311.61 57.8228 226.218 57.8228Z" fill="white"/>
<path fill-rule="evenodd" clip-rule="evenodd" d="M226.218 58.9621C141.455 58.9621 72.7402 127.764 72.7402 212.636C72.7402 231.897 76.2786 250.328 82.739 267.314H369.698C376.158 250.328 379.697 231.897 379.697 212.636C379.697 127.764 310.982 58.9621 226.218 58.9621ZM70.4646 212.636C70.4646 126.506 140.198 56.6836 226.218 56.6836C312.239 56.6836 381.972 126.506 381.972 212.636C381.972 232.458 378.278 251.419 371.541 268.864L371.26 269.593H81.177L80.8957 268.864C74.1585 251.419 70.4646 232.458 70.4646 212.636Z" fill="#032068"/>
<path d="M268.97 93.5942C269.946 92.2259 272.016 88.1992 272.484 83.0388C272.91 78.3533 279.483 72.6687 283.612 69.7599C293.764 72.8179 319.572 84.9153 341.593 108.841C363.614 132.767 374.586 166.114 377.319 179.797H369.119C365.996 180.97 359.28 183.316 357.406 183.316C355.532 183.316 352.33 180.97 350.964 179.797H345.107L335.736 188.007C333.979 188.789 329.763 190.822 326.951 192.698C324.14 194.575 321.876 193.48 321.095 192.698L318.752 188.007L307.624 185.661V183.316L304.11 179.797H297.082C295.716 179.797 291.343 177.921 284.783 170.415C280.098 168.069 284.783 166.31 263.114 146.372C263.114 144.495 257.647 143.244 254.914 142.853L247.886 146.372L240.273 148.717C238.516 148.326 235.002 146.606 235.002 142.853C235.002 138.162 230.316 139.335 230.316 136.989V129.366C232.464 127.411 237.461 121.625 240.273 114.119C242.147 109.427 248.472 109.427 251.4 110.014V105.323L254.914 102.977L263.114 100.045C263.699 98.6765 265.339 95.7053 267.213 94.7671C269.087 93.8288 269.166 93.5942 268.97 93.5942Z" fill="#032068"/>
<path d="M172.921 68.9648L170.578 67.792C161.598 70.7241 138.953 81.045 120.212 98.872C101.47 116.699 92.0985 133.275 89.7553 139.335L90.9282 142.853C90.5373 144.026 89.4039 147.075 87.9983 149.89C86.5927 152.705 88.584 153.409 89.7553 153.409C90.1458 154.581 91.2781 157.865 92.6837 161.618C94.0893 165.371 94.4409 167.873 94.441 168.655C94.8314 169.633 95.8463 172.643 96.7833 176.865C97.9547 182.143 95.6124 182.143 94.441 183.316C93.504 184.254 94.0506 185.27 94.441 185.661C95.6124 187.616 98.5407 192.581 100.883 196.803C103.812 202.081 102.64 202.081 103.226 204.427C103.812 206.772 106.74 206.186 109.668 202.081C111.425 200.322 111.425 200.908 112.597 195.63C113.768 190.353 112.597 193.285 112.597 187.421C113.182 185.075 113.182 185.661 114.939 184.488C116.696 183.316 119.039 183.316 119.039 179.797C119.039 176.279 118.453 177.452 119.039 175.692C119.624 173.933 121.381 174.519 125.481 170.415C126.067 168.069 126.067 168.655 127.824 162.791C129.581 156.927 128.995 160.445 134.266 155.754C139.537 151.063 137.78 153.409 138.366 151.063C138.951 148.717 141.88 147.544 145.979 146.372C150.079 145.199 153.007 147.544 154.764 146.372C156.521 145.199 158.278 146.372 160.037 146.372C161.795 146.372 164.722 146.372 166.479 144.612C168.235 142.853 166.479 139.921 166.479 138.162V132.298C166.479 131.125 164.722 129.366 164.722 128.193C164.722 127.02 161.208 125.261 160.037 122.915C158.865 120.569 158.28 119.396 160.037 117.637C161.442 116.23 161.403 113.141 161.208 111.773C160.818 110.796 160.037 108.137 160.037 105.323V101.218C160.037 99.4584 160.037 98.872 164.722 95.9399C167.65 94.7671 166.479 94.7671 166.479 88.3165V84.2116C166.479 82.4524 165.893 76.0018 166.479 74.829C166.947 73.8907 168.236 73.2652 168.821 73.0697L172.335 70.7241L172.921 68.9648Z" fill="#032068"/>
<path d="M254.914 261.895C256.281 262.873 259.834 265.414 263.114 267.759C263.452 268.001 263.734 268.232 263.968 268.454H276.486C276.082 267.548 275.54 266.535 274.828 265.414V261.895C276.585 259.745 279.864 254.624 278.927 251.34C278.927 248.408 278.927 249.58 284.783 241.957C288.297 236.679 284.783 240.198 289.469 236.679C294.155 233.161 292.983 234.334 298.84 229.056C301.768 224.951 300.597 226.71 301.768 223.778C302.94 220.846 301.768 216.741 305.282 214.396C308.093 212.519 308.015 213.223 307.624 213.809H311.725C313.599 213.809 313.677 210.682 313.482 209.118C312.31 208.531 308.796 205.951 304.11 200.322C304.891 199.149 305.985 196.334 304.11 194.458C301.767 192.112 302.94 191.525 301.768 190.939C300.597 190.353 296.497 186.834 294.74 183.316C292.983 179.797 292.983 179.797 290.641 179.797C288.766 179.797 287.907 178.233 287.712 177.452C285.565 176.865 280.801 175.34 278.927 173.933C276.585 172.174 278.927 170.415 278.927 168.655C278.927 166.896 274.828 162.791 272.485 162.791C270.142 162.791 270.728 159.859 268.971 159.273C267.565 158.804 267.604 155.559 267.8 153.995L260.186 152.236C257.843 151.845 252.924 151.297 251.987 152.236C250.815 153.409 245.544 153.409 243.787 153.995C242.03 154.581 240.273 158.686 240.273 159.859C240.273 161.032 236.174 165.137 232.66 165.137C229.146 165.137 230.316 168.655 226.803 170.415C223.29 172.174 222.703 175.692 221.532 177.452C220.361 179.211 220.946 179.797 224.46 185.661C227.974 191.525 225.632 188.007 226.217 189.18C226.803 190.353 226.217 192.698 226.803 194.458C227.389 196.217 230.316 196.217 232.66 196.803C235.003 197.39 235.002 199.149 236.174 200.322C237.111 201.26 237.736 203.449 237.931 204.427C237.345 205.208 236.174 207.241 236.174 209.118V213.809C236.174 215.568 236.174 218.501 235.002 219.673C233.83 220.846 232.66 222.605 232.66 223.778C232.66 224.951 230.316 226.124 232.66 229.056C235.003 229.056 235.002 231.402 236.174 231.988C237.111 232.457 237.736 233.747 237.931 234.334C238.126 235.116 238.868 236.914 240.273 237.852C242.029 239.025 243.202 240.784 245.544 241.957C247.887 243.13 249.644 245.476 251.401 247.235C252.807 248.642 251.987 249.385 251.401 249.58L254.914 254.272V258.377V261.895Z" fill="#032068"/>
<path d="M120.212 266.587C117.673 265.805 112.597 263.772 112.597 261.895C112.597 260.019 112.598 256.813 112.598 255.445C112.403 254.272 111.779 251.692 110.841 250.753C109.668 249.581 103.814 253.685 106.741 247.821C109.083 243.13 109.668 235.311 109.668 231.988L112.598 226.71C114.354 225.733 118.1 223.778 119.039 223.778C119.977 223.778 121.383 221.042 121.969 219.673V217.914C122.164 216.937 123.374 214.865 126.654 214.396C134.268 213.809 143.638 209.118 146.567 209.118C148.909 209.118 151.447 205.99 152.423 204.427H157.694C160.037 204.427 161.794 203.254 162.38 204.427C162.965 205.599 167.065 206.772 168.822 209.118C170.077 210.794 172.671 212.594 174.185 213.517C174.258 213.29 174.487 213.522 174.679 213.809C174.532 213.726 174.366 213.628 174.185 213.517C174.109 213.752 174.201 214.481 174.679 216.155C175.85 220.26 170.579 220.846 175.264 224.951C179.95 229.056 179.95 226.124 181.707 229.056C181.707 244.889 179.95 247.821 179.95 249.58C179.95 251.34 177.607 250.167 181.707 254.272C185.806 258.377 187.563 258.377 188.735 258.377C189.906 258.377 191.077 257.204 191.663 259.55C191.663 265.414 194.591 265.414 194.591 266.587C194.591 267.617 193.688 266.385 194.261 268.454H122.822L120.212 266.587Z" fill="#032068"/>
<path d="M164.722 100.044C164.722 99.1061 167.065 98.0897 168.236 97.6987L171.165 98.8716C172.141 99.2625 174.21 100.162 174.679 100.631C175.264 101.217 177.021 101.217 179.364 100.044C181.707 98.8716 182.292 100.044 184.049 98.8716C185.806 97.6987 190.492 100.044 191.077 101.217C191.663 102.39 194.591 102.976 195.177 104.736C195.763 106.495 194.006 110.013 193.42 110.013C192.834 110.013 189.32 115.291 188.149 115.291C186.978 115.291 181.707 117.637 180.535 117.637C179.364 117.637 178.778 118.81 177.021 118.81C175.264 118.81 175.85 121.155 174.093 122.915C172.687 124.322 172.336 125.847 172.336 126.433C171.555 127.41 169.993 129.131 169.993 128.192C169.993 127.019 169.408 127.019 169.408 125.847V121.155V118.81C169.408 117.637 168.236 118.81 168.236 117.637C168.236 116.464 164.722 115.291 164.722 110.013C164.722 108.254 164.137 108.841 164.137 107.668C164.137 106.495 163.551 105.909 164.137 105.322L164.722 104.736L164.722 100.044Z" fill="#2792A8"/>
<path d="M298.84 259.549C298.84 257.673 303.135 253.294 305.282 251.34V249.58C307.43 248.799 311.959 247.352 312.896 247.821C313.833 248.29 315.238 249.189 315.824 249.58C317.191 251.144 320.158 254.272 321.095 254.272C322.265 254.272 321.095 258.377 322.267 259.549C323.438 260.722 324.024 261.895 325.781 263.068C327.538 264.241 326.951 265.414 331.052 265.414H335.736C338.078 265.414 338.08 267.759 341.008 266.586C343.351 265.648 345.498 266.196 346.279 266.586L347.45 268.346H303.957C304.346 267.781 304.786 267.194 305.282 266.586C308.093 265.648 306.454 265.414 305.282 265.414C303.135 264.241 298.84 261.426 298.84 259.549Z" fill="#2792A8"/>
<path d="M333.394 256.031L334.566 251.34V247.235C334.956 246.844 336.322 245.71 338.665 244.303C341.594 242.543 339.251 246.062 341.008 247.821C342.765 249.58 343.351 251.34 343.351 253.099C343.351 254.858 345.107 256.031 350.964 254.272C352.134 254.272 355.064 254.272 356.235 256.031C355.064 257.79 353.307 260.722 350.964 260.722C349.089 260.722 348.621 259.94 348.622 259.549C346.865 259.94 342.882 260.722 341.008 260.722H335.736C335.736 259.94 335.502 258.377 334.566 258.377C333.629 258.377 333.394 256.813 333.394 256.031Z" fill="#2792A8"/>
<path fill-rule="evenodd" clip-rule="evenodd" d="M293.863 208.55C299.436 208.55 323.82 165.654 323.82 149.29C323.82 132.925 310.408 119.66 293.863 119.66C277.318 119.66 263.906 132.925 263.906 149.29C263.906 165.654 286.199 208.55 293.863 208.55ZM293.864 164.833C302.338 164.833 309.207 157.983 309.207 149.533C309.207 141.082 302.338 134.232 293.864 134.232C285.39 134.232 278.52 141.082 278.52 149.533C278.52 157.983 285.39 164.833 293.864 164.833Z" fill="#2792A8"/>
<path d="M97.5006 67.2446C81.6073 78.4811 88.2871 98.457 91.2816 106.198L89.9697 121.993C91.3284 126.966 96.257 136.911 105.102 136.911C113.947 136.911 118.001 128.421 118.923 124.176L117.541 112.19C127.906 108.445 128.597 93.463 127.906 81.4775C127.085 67.2446 111.5 57.3471 97.5006 67.2446Z" fill="#EFCB96"/>
<path d="M104.26 131.251C114.639 131.251 119.509 124.881 120.647 121.695C130.293 123.073 149.936 131.172 160.331 146.759C172.732 165.355 182.377 214.944 185.822 226.653C188.578 236.02 199.217 257.899 204.959 267.771H168.444H65.3401C54.8703 268.453 32.0189 268.726 24.3714 264.358C14.8121 258.897 5.9356 230.91 24.3714 175.62C39.1201 131.388 73.7612 121.24 89.2382 121.695C89.921 124.881 93.8813 131.251 104.26 131.251Z" fill="#2792A8"/>
<path d="M163.087 195.659L177.555 267.977H171.354L163.087 195.659Z" fill="#032068"/>
<path d="M54.5354 267.81C38.0741 247.754 20.6697 240.598 14.0251 239.526C14.0251 245.955 17.2402 258.168 23.0274 263.954C27.6572 268.582 45.9618 268.453 54.5354 267.81Z" fill="#032068"/>
<path d="M102.896 194.051C98.1163 196.098 62.6103 212.708 46.2229 220.672C48.2713 217.259 56.465 211.798 58.5134 209.75C60.5619 207.703 68.0728 183.812 68.0728 187.225C68.0728 190.638 63.9759 206.337 66.0243 206.337C68.0728 206.337 96.7507 194.051 102.896 194.051Z" fill="#032068"/>
<path d="M117.235 213.846C88.2839 252.617 64.6587 266.406 56.465 268.454H70.804C95.3851 249.341 112 224.085 117.235 213.846Z" fill="#032068"/>
<path d="M125.34 163.474L120.096 214.591C120.029 215.243 120.606 215.778 121.251 215.662L145.895 211.24C146.312 211.165 146.634 210.833 146.696 210.415L153.922 161.819C154.015 161.195 153.506 160.646 152.877 160.691L126.251 162.592C125.773 162.626 125.389 162.998 125.34 163.474Z" fill="white"/>
<path fill-rule="evenodd" clip-rule="evenodd" d="M152.806 159.707C154.065 159.617 155.083 160.716 154.897 161.964L147.671 210.56C147.547 211.397 146.902 212.061 146.069 212.21L121.425 216.632C120.134 216.864 118.981 215.795 119.115 214.491L124.359 163.374C124.457 162.421 125.225 161.677 126.181 161.609L152.806 159.707ZM152.947 161.674L126.321 163.575L121.077 214.692L145.721 210.27L152.947 161.674Z" fill="#032068"/>
<path d="M91.7819 102.282L90.405 115.864C89.9461 114.858 88.8905 111.941 88.3398 108.319C87.6514 103.791 76.6362 86.4358 80.0784 73.608C82.8322 63.3457 90.4051 63.7985 93.8473 65.3076C95.9128 61.5347 108.305 48.7069 126.204 50.2161C144.104 51.7252 146.169 77.3809 131.712 81.1538C120.146 84.1721 107.157 82.4114 102.109 81.1538C101.65 82.1599 100.319 85.5303 98.6665 90.9633C96.6011 97.7545 96.6011 99.2636 95.9127 94.7362C95.2242 90.2087 92.4704 81.9083 89.0281 90.2087C86.2744 96.849 89.7166 101.024 91.7819 102.282Z" fill="#032068"/>
<path d="M101.783 111.918C106.52 114.707 113.845 113.08 116.915 111.918L117.573 116.798C110.731 118.471 104.196 114.242 101.783 111.918Z" fill="#032068"/>
<path d="M113.136 187.225C111.497 191.593 108.356 194.506 106.991 195.416L115.867 209.068C118.598 206.337 122.013 206.337 129.523 202.924C137.034 199.511 139.083 187.225 137.034 180.399C135.396 174.938 125.882 179.034 122.013 181.764L122.695 174.255C117.916 176.303 115.184 181.764 113.136 187.225Z" fill="#EFCB96"/>
<path fill-rule="evenodd" clip-rule="evenodd" d="M293.863 209.516C299.436 209.516 323.82 166.154 323.82 149.612C323.82 133.07 310.408 119.66 293.863 119.66C277.318 119.66 263.906 133.07 263.906 149.612C263.906 166.154 286.199 209.516 293.863 209.516ZM293.864 165.324C302.338 165.324 309.207 158.399 309.207 149.857C309.207 141.315 302.338 134.39 293.864 134.39C285.39 134.39 278.52 141.315 278.52 149.857C278.52 158.399 285.39 165.324 293.864 165.324Z" fill="#2792A8"/>
<path d="M257.194 29.244L260.361 13.2466L264.38 16.1187L267.232 24.4145C270.716 25.4873 280.717 29.2961 293.099 33.5114C308.577 38.7804 312.932 41.3788 316.792 48.8533C320.651 56.3277 315.438 56.1055 313.061 55.248C310.853 55.0235 274.892 37.9206 257.194 29.244Z" fill="#2792A8"/>
<path d="M298.327 42.664L284.192 36.2999L264.292 50.2876L268.921 53.2216L298.327 42.664Z" fill="#2792A8"/>
<path d="M283.702 19.931L286.243 31.2744L298.462 35.2882L289.064 21.708L283.702 19.931Z" fill="#2792A8"/>
<path fill-rule="evenodd" clip-rule="evenodd" d="M233.712 26.2081C232.493 26.2058 231.242 26.2171 229.96 26.243L229.921 24.311C231.217 24.2848 232.482 24.2734 233.716 24.2757L233.712 26.2081ZM241.197 26.404C239.997 26.3411 238.75 26.2922 237.458 26.259L237.508 24.3273C238.816 24.3609 240.081 24.4105 241.298 24.4743L241.197 26.404ZM226.207 26.3582C224.979 26.4086 223.727 26.4722 222.454 26.5498L222.336 24.621C223.622 24.5426 224.887 24.4784 226.127 24.4275L226.207 26.3582ZM218.704 26.815C217.472 26.914 216.223 27.0261 214.957 27.152L214.766 25.2291C216.044 25.102 217.305 24.9888 218.549 24.8889L218.704 26.815ZM246.791 26.8288C246.195 26.7681 245.582 26.7111 244.952 26.6582L245.114 24.7326C245.755 24.7864 246.379 24.8444 246.987 24.9064L246.791 26.8288ZM211.223 27.5584C209.996 27.7036 208.755 27.8617 207.502 28.0333L207.24 26.1188C208.505 25.9455 209.757 25.7859 210.996 25.6394L211.223 27.5584ZM203.788 28.577C202.563 28.768 201.327 28.9721 200.082 29.1897L199.749 27.2862C201.006 27.0665 202.253 26.8605 203.491 26.6677L203.788 28.577ZM196.384 29.8715C195.162 30.1086 193.932 30.3589 192.696 30.6229L192.292 28.7332C193.54 28.4666 194.782 28.2139 196.016 27.9745L196.384 29.8715ZM189.036 31.441C187.825 31.7236 186.609 32.0194 185.389 32.3291L184.914 30.4561C186.146 30.1434 187.374 29.8446 188.596 29.5592L189.036 31.441ZM181.757 33.2887C180.555 33.619 179.349 33.9628 178.141 34.3207L177.592 32.4679C178.812 32.1063 180.03 31.759 181.245 31.4253L181.757 33.2887ZM174.553 35.4227C173.367 35.8003 172.179 36.1917 170.99 36.5973L170.366 34.7685C171.568 34.3585 172.768 33.963 173.967 33.5814L174.553 35.4227ZM167.449 37.8472C166.276 38.2751 165.104 38.717 163.932 39.1735L163.23 37.3729C164.415 36.9114 165.601 36.4645 166.786 36.0319L167.449 37.8472ZM160.454 40.5723C159.303 41.0501 158.153 41.5422 157.005 42.0491L156.224 40.2815C157.385 39.7687 158.548 39.2708 159.713 38.7876L160.454 40.5723ZM153.588 43.6054C152.459 44.1354 151.333 44.6801 150.21 45.2398L149.348 43.5104C150.484 42.9439 151.624 42.3926 152.766 41.8563L153.588 43.6054ZM146.876 46.9522C145.774 47.5353 144.675 48.1334 143.582 48.7469L142.636 47.0616C143.744 46.4403 144.856 45.8345 145.972 45.2441L146.876 46.9522ZM140.331 50.6241C139.261 51.2603 138.196 51.9119 137.137 52.579L136.106 50.9439C137.18 50.2679 138.259 49.6077 139.343 48.9631L140.331 50.6241ZM133.991 54.6181C132.953 55.3105 131.921 56.0184 130.897 56.7423L129.781 55.1641C130.82 54.4302 131.866 53.7125 132.918 53.0107L133.991 54.6181ZM127.869 58.9435C126.872 59.6895 125.882 60.4513 124.9 61.2291L123.7 59.7145C124.696 58.9255 125.7 58.1528 126.711 57.3963L127.869 58.9435ZM121.992 63.6001C121.04 64.3994 120.096 65.2147 119.161 66.0462L117.876 64.6021C118.825 63.7583 119.783 62.931 120.75 62.12L121.992 63.6001ZM116.398 68.5746C115.491 69.4293 114.593 70.3002 113.705 71.1875L112.339 69.8206C113.24 68.9198 114.152 68.0358 115.073 67.1683L116.398 68.5746ZM111.099 73.8687C110.67 74.3237 110.243 74.7828 109.819 75.246L108.393 73.9409C108.824 73.4706 109.257 73.0045 109.693 72.5426L111.099 73.8687Z" fill="#032068"/>
<path d="M373.224 136.212C365.114 120.166 350.539 103.241 344.265 96.7842C347.86 98.9548 356.539 104.904 362.49 111.336C365.017 109.183 371.26 106.104 376.015 111.018C381.959 117.161 376.253 121.16 376.287 122.609C376.321 124.058 380.691 124.922 379.816 128.808C378.941 132.695 377.02 133.223 377.571 136.11C378.122 138.996 375.246 140.001 373.224 136.212Z" fill="#E7E8FF"/>
</g>
<defs>
<clipPath id="clip0_34_158">
<rect width="412" height="275" fill="white"/>
</clipPath>
</defs>
</svg>
