<svg width="402" height="263" viewBox="0 0 402 263" fill="none" xmlns="http://www.w3.org/2000/svg">
<g clip-path="url(#clip0_34_317)">
<path d="M289.104 54.7105C289.104 60.3247 277.78 59.5722 269.941 57.3623C258.618 54.7105 250.778 49.4069 253.392 37.9156C253.392 28.6342 262.538 30.1706 273.425 34.3799C282.571 37.9156 289.104 49.0964 289.104 54.7105Z" fill="#E7E8FF"/>
<path d="M26.2737 207.622C26.2737 219.882 31.8959 231.847 38.8029 241.748C49.5378 257.135 68.6172 262.977 87.372 262.977H311.017C324.014 262.977 332.621 244.61 333.046 231.613C333.679 212.294 344.719 190.407 341.499 157.897C336.479 107.233 302.346 91.7523 266.708 72.5188C231.069 53.2853 254.159 25.1388 192.921 8.25081C131.683 -8.63713 66.9315 47.1869 68.9393 99.2581C70.9471 151.329 26.2737 158.835 26.2737 207.622Z" fill="#E7E8FF"/>
<path d="M166.308 262.977H207.994C230.604 254.846 253.213 217.372 232.37 221.26C211.527 225.149 191.037 223.382 218.239 209.947C245.441 196.513 230.604 186.261 218.239 187.321C205.875 188.382 207.994 179.897 212.94 163.635C217.886 147.372 212.94 132.524 199.163 132.524C185.385 132.524 196.336 172.827 185.385 175.655C174.434 178.483 179.733 159.746 166.308 163.635C152.884 167.524 174.787 213.836 166.308 209.947C157.83 206.059 158.89 187.321 143.699 201.463C131.547 212.776 153.708 247.186 166.308 262.977Z" fill="white"/>
<path d="M119.464 14.1546C119.464 10.3397 122.557 7.24707 126.372 7.24707H248.622C252.437 7.24707 255.53 10.3397 255.53 14.1546V170.962C255.53 174.777 252.437 177.869 248.622 177.869H126.372C122.557 177.869 119.464 174.777 119.464 170.962V14.1546Z" fill="white"/>
<path fill-rule="evenodd" clip-rule="evenodd" d="M118.429 14.1548C118.429 9.76805 121.985 6.21191 126.372 6.21191H248.622C253.009 6.21191 256.565 9.76804 256.565 14.1547V170.962C256.565 175.349 253.009 178.905 248.622 178.905H126.372C121.985 178.905 118.429 175.349 118.429 170.962V14.1548ZM126.372 8.2826C123.129 8.2826 120.5 10.9117 120.5 14.1548V170.962C120.5 174.205 123.129 176.834 126.372 176.834H248.622C251.865 176.834 254.494 174.205 254.494 170.962V14.1547C254.494 10.9117 251.865 8.2826 248.622 8.2826H126.372Z" fill="#032068"/>
<path d="M119.464 14.1546C119.464 10.3397 122.557 7.24707 126.372 7.24707H248.622C252.437 7.24707 255.53 10.3397 255.53 14.1546V30.6658H119.464V14.1546Z" fill="#032068"/>
<path d="M140.655 18.9568C140.655 21.7283 138.408 23.9751 135.636 23.9751C132.864 23.9751 130.617 21.7283 130.617 18.9568C130.617 16.1852 132.864 13.9385 135.636 13.9385C138.408 13.9385 140.655 16.1852 140.655 18.9568Z" fill="white"/>
<path d="M157.385 18.9568C157.385 21.7283 155.138 23.9751 152.366 23.9751C149.594 23.9751 147.347 21.7283 147.347 18.9568C147.347 16.1852 149.594 13.9385 152.366 13.9385C155.138 13.9385 157.385 16.1852 157.385 18.9568Z" fill="white"/>
<path d="M174.114 18.9568C174.114 21.7283 171.867 23.9751 169.095 23.9751C166.323 23.9751 164.076 21.7283 164.076 18.9568C164.076 16.1852 166.323 13.9385 169.095 13.9385C171.867 13.9385 174.114 16.1852 174.114 18.9568Z" fill="white"/>
<path fill-rule="evenodd" clip-rule="evenodd" d="M209.803 49.5443H138.982V47.4736H209.803V49.5443Z" fill="#E7E8FF"/>
<path fill-rule="evenodd" clip-rule="evenodd" d="M209.803 122.031H138.982V119.96H209.803V122.031Z" fill="#E7E8FF"/>
<path fill-rule="evenodd" clip-rule="evenodd" d="M209.803 142.104H138.982V140.033H209.803V142.104Z" fill="#E7E8FF"/>
<path fill-rule="evenodd" clip-rule="evenodd" d="M139.62 71.0288C139.62 66.6421 143.176 63.0859 147.564 63.0859H216.279C220.666 63.0859 224.222 66.6421 224.222 71.0288V97.3602C224.222 101.747 220.666 105.303 216.279 105.303H147.564C143.176 105.303 139.62 101.747 139.62 97.3602V71.0288ZM147.564 65.1566C144.32 65.1566 141.691 67.7857 141.691 71.0288V97.3602C141.691 100.603 144.32 103.232 147.564 103.232H216.279C219.522 103.232 222.152 100.603 222.152 97.3602V71.0288C222.152 67.7857 219.522 65.1566 216.279 65.1566H147.564Z" fill="#2792A8"/>
<path d="M180.807 159.128C180.807 155.313 183.9 152.22 187.715 152.22H188.397C192.213 152.22 195.305 155.313 195.305 159.128V159.81C195.305 163.625 192.213 166.718 188.397 166.718H187.715C183.9 166.718 180.807 163.625 180.807 159.81V159.128Z" fill="#2792A8"/>
<path fill-rule="evenodd" clip-rule="evenodd" d="M206.538 159.128C206.538 154.741 210.095 151.185 214.482 151.185H215.164C219.551 151.185 223.108 154.741 223.108 159.128V159.81C223.108 164.197 219.551 167.753 215.164 167.753H214.482C210.095 167.753 206.538 164.197 206.538 159.81V159.128ZM214.482 153.256C211.238 153.256 208.609 155.885 208.609 159.128V159.81C208.609 163.053 211.238 165.682 214.482 165.682H215.164C218.408 165.682 221.037 163.053 221.037 159.81V159.128C221.037 155.885 218.408 153.256 215.164 153.256H214.482Z" fill="#E7E8FF"/>
<path fill-rule="evenodd" clip-rule="evenodd" d="M170.19 74.879C168.943 72.9129 166.057 72.9642 164.88 74.9734L156.133 89.9153C155.204 91.5029 153.502 92.4784 151.662 92.4784H140.655V90.4078H151.662C152.766 90.4078 153.788 89.8222 154.346 88.8693L163.093 73.9274C165.053 70.58 169.861 70.4945 171.939 73.7701L179.672 85.9634C180.818 87.7704 183.404 87.9068 184.734 86.2304L190.97 78.3685C192.927 75.901 196.615 75.7364 198.785 78.0196L204.867 84.4217C205.454 85.0396 206.269 85.3895 207.122 85.3895H222.629V87.4601H207.122C205.702 87.4601 204.344 86.8773 203.366 85.8479L197.283 79.4458C195.981 78.0753 193.767 78.1741 192.593 79.6552L186.357 87.5171C184.141 90.31 179.832 90.0828 177.923 87.0724L170.19 74.879Z" fill="#2792A8"/>
<path d="M185.646 262.449C178.955 250.405 149.399 242.065 135.458 239.277L123.722 262.449H185.646Z" fill="#032068"/>
<path d="M85.0189 105.82L81.8313 115.8L100.759 122.873L103.365 108.47C106.411 108.82 113.37 106.706 116.84 95.4517C121.177 81.3843 115.462 63.5767 103.415 61.7858C91.368 59.995 82.5789 70.1484 80.3803 83.3722C78.6214 93.9513 82.7398 102.746 85.0189 105.82Z" fill="#EFCB96"/>
<path d="M84.9465 105.267C86.8902 106.361 94.8933 106.772 98.6519 106.84C101.416 106.477 102.784 104.047 104.487 99.8866C105.849 96.5582 103.688 93.8055 102.436 92.8452C94.7843 85.9776 102.643 79.3208 105.115 78.9958C107.629 78.6653 107.978 83.5241 108.039 87.9295C108.06 89.3871 109.733 89.6653 110.294 88.3198C111.565 85.2735 113.013 82.0963 114.203 79.7225C115.296 77.5415 117.332 76.1112 119.537 75.068C131.043 69.6262 130.387 59.1269 127.524 56.9292C124.396 54.5284 122.694 58.6892 111.535 55.0945C100.376 51.4998 84.1963 52.5016 77.0503 70.8748C69.9043 89.2481 82.5169 103.899 84.9465 105.267Z" fill="#032068"/>
<path d="M226.354 215.858C223.462 203.485 207.249 201.057 199.504 201.389L198.471 215.858H226.354Z" fill="#EFCB96"/>
<path d="M74.1164 112.704C64.7479 119.841 53.0857 139.34 48.9692 153.453C38.7327 188.546 25.0643 257.013 60.9923 262.449C91.5206 262.486 116.926 262.464 125.813 262.449C129.966 256.186 137.653 241.867 135.179 233.701L133.785 221.434C150.103 228.597 179.469 223.571 196.306 219.104C199.523 218.25 201.539 215.133 201.154 211.827L199.702 199.34C199.313 195.998 196.551 193.437 193.198 193.153C156.785 190.072 147.29 177.9 138.803 166.233C129.881 153.966 113.152 127.201 105.902 121.068C98.6528 114.935 85.827 103.783 74.1164 112.704Z" fill="#2792A8"/>
<path d="M90.8464 179.057C101.553 200.469 119.844 215.3 134.343 221.991L134.9 232.586C103.672 213.851 92.5194 189.094 90.8464 179.057Z" fill="#032068"/>
<path d="M139.919 223.664C136.759 216.787 125.643 202.699 106.46 201.361C112.223 207.866 126.982 221.434 139.919 223.664Z" fill="#032068"/>
<path d="M27.9971 227.433C34.2525 256.89 48.6622 261.424 58.1571 261.424H127.413C139.701 261.424 138.025 257.559 138.025 254.212C134.116 237.475 124.621 230.78 96.1364 222.412C67.6519 214.044 61.5081 180.57 52.0133 158.813C42.5185 137.055 16.8267 136.497 13.4756 140.96C10.1244 145.423 20.1778 190.612 27.9971 227.433Z" fill="white"/>
<path fill-rule="evenodd" clip-rule="evenodd" d="M16.0503 140.529C15.0911 140.87 14.5454 141.26 14.3037 141.582C14.2379 141.67 14.1173 141.92 14.0186 142.451C13.9244 142.959 13.8667 143.629 13.852 144.465C13.8226 146.136 13.9657 148.362 14.2606 151.064C14.8496 156.464 16.0306 163.65 17.5653 171.873C20.101 185.458 23.5893 201.803 26.9316 217.464C27.6342 220.756 28.3304 224.018 29.01 227.218C32.1082 241.808 37.1933 250.071 42.5395 254.692C47.8721 259.301 53.5824 260.389 58.1572 260.389H127.414C130.443 260.389 132.542 260.149 133.991 259.767C135.437 259.385 136.15 258.884 136.521 258.423C136.886 257.972 137.031 257.426 137.061 256.708C137.076 256.344 137.061 255.961 137.039 255.536C137.036 255.477 137.033 255.418 137.03 255.358C137.013 255.033 136.994 254.683 136.991 254.335C135.076 246.214 131.837 240.619 125.676 236.003C119.415 231.312 110.08 227.588 95.8445 223.406C81.2177 219.109 72.3805 208.365 66.0343 196.11C62.8621 189.984 60.2959 183.449 57.9372 177.114C57.417 175.716 56.9073 174.33 56.4037 172.961C54.6162 168.099 52.9045 163.444 51.0643 159.227C46.4658 148.689 37.954 143.284 30.1552 141.049C26.251 139.93 22.5525 139.614 19.6559 139.839C18.2064 139.952 16.9847 140.198 16.0503 140.529ZM30.7259 139.059C38.9845 141.426 48.0661 147.179 52.9624 158.399C54.8295 162.677 56.5697 167.41 58.3608 172.282C58.8612 173.643 59.3657 175.015 59.878 176.391C62.2318 182.713 64.7621 189.149 67.8733 195.158C74.0937 207.17 82.5707 217.348 96.4283 221.419C110.678 225.605 120.333 229.412 126.917 234.345C133.573 239.332 137.035 245.422 139.034 253.977L139.061 254.093V254.212C139.061 254.541 139.078 254.874 139.098 255.24C139.101 255.302 139.104 255.366 139.107 255.43C139.129 255.857 139.149 256.325 139.13 256.794C139.09 257.742 138.886 258.791 138.133 259.723C137.388 260.647 136.215 261.322 134.52 261.769C132.827 262.216 130.528 262.46 127.414 262.46H58.1572C53.2371 262.46 46.995 261.28 41.1852 256.258C35.3889 251.248 30.1414 242.515 26.9842 227.648C26.3059 224.454 25.6105 221.196 24.9084 217.906C21.5661 202.245 18.0707 185.867 15.5296 172.253C13.9925 164.017 12.7997 156.769 12.2019 151.289C11.9033 148.552 11.7498 146.227 11.7814 144.429C11.7972 143.53 11.8596 142.736 11.9824 142.074C12.1009 141.435 12.2944 140.809 12.6475 140.339C13.2436 139.545 14.2338 138.977 15.3582 138.578C16.5073 138.17 17.9167 137.898 19.4954 137.775C22.6553 137.529 26.6014 137.876 30.7259 139.059Z" fill="#032068"/>
<path d="M368.803 217.422H175.858C172.162 217.422 169.166 220.418 169.166 224.113C169.166 227.808 172.162 230.804 175.858 230.804H368.803C372.499 230.804 375.495 227.808 375.495 224.113C375.495 220.418 372.499 217.422 368.803 217.422Z" fill="white"/>
<path fill-rule="evenodd" clip-rule="evenodd" d="M168.13 224.113C168.13 219.846 171.59 216.387 175.858 216.387H368.803C373.071 216.387 376.53 219.846 376.53 224.113C376.53 228.38 373.071 231.84 368.803 231.84H175.858C171.59 231.84 168.13 228.38 168.13 224.113ZM175.858 218.457C172.734 218.457 170.201 220.99 170.201 224.113C170.201 227.237 172.734 229.769 175.858 229.769H368.803C371.927 229.769 374.46 227.237 374.46 224.113C374.46 220.99 371.927 218.457 368.803 218.457H175.858Z" fill="#032068"/>
<path d="M189.999 261.47L197.113 231.445H214.85L201.639 261.47H189.999Z" fill="white"/>
<path fill-rule="evenodd" clip-rule="evenodd" d="M196.294 230.41H216.437L202.315 262.505H188.69L196.294 230.41ZM197.932 232.48L191.309 260.435H200.963L213.263 232.48H197.932Z" fill="#032068"/>
<path d="M352.565 261.47L345.787 231.445H327.714L340.704 261.47H352.565Z" fill="white"/>
<path fill-rule="evenodd" clip-rule="evenodd" d="M346.892 230.063H325.611L339.797 262.851H354.293L346.892 230.063ZM344.683 232.826L350.837 260.088H341.612L329.817 232.826H344.683Z" fill="#032068"/>
<path d="M85.9959 4.89875L82.2384 9.74487C82.0097 10.0397 81.6369 10.1816 81.2717 10.1127L76.6275 9.23638C75.6283 9.04784 75.0255 10.3124 75.7966 10.9794L79.4467 14.1364C79.7132 14.3668 79.839 14.7218 79.7778 15.0702L78.8621 20.2757C78.6899 21.2543 79.8864 21.86 80.5638 21.1372L84.3132 17.1368C84.5334 16.9019 84.8525 16.7884 85.1703 16.832L89.5095 17.4271C90.487 17.5611 91.0406 16.3344 90.2973 15.6813L87.0703 12.8455C86.8112 12.6178 86.6874 12.2713 86.743 11.9296L87.7604 5.67651C87.9269 4.65381 86.6293 4.08189 85.9959 4.89875Z" fill="#2792A8"/>
<path d="M275.484 5.09164L272.95 5.63913C272.796 5.67244 272.639 5.61716 272.544 5.49582L271.331 3.95251C271.07 3.62048 270.528 3.86583 270.583 4.29068L270.846 6.30166C270.866 6.44848 270.806 6.59741 270.689 6.69341L268.947 8.1281C268.619 8.39781 268.826 8.91825 269.24 8.86834L271.535 8.59208C271.67 8.57586 271.802 8.62575 271.89 8.72606L273.085 10.0957C273.355 10.4042 273.871 10.1577 273.82 9.74491L273.6 7.95255C273.583 7.80861 273.64 7.66301 273.753 7.5676L275.821 5.82182C276.159 5.5363 275.911 4.99936 275.484 5.09164Z" fill="#2792A8"/>
<path d="M309.13 57.0417L306.9 67.6359V74.3268L311.918 78.7875L326.975 77.1148V67.0782L326.417 55.3688C332.551 47.5626 334.782 32.5079 328.09 24.7016C321.398 16.8954 304.111 15.7802 300.766 34.1806C298.089 48.901 305.227 55.5548 309.13 57.0417Z" fill="#EFCB96"/>
<path d="M272.883 263.35L278.595 200.9H358.57L366.567 263.35H272.883Z" fill="#032068"/>
<path d="M219.349 84.3634C219.349 86.1477 221.208 89.1959 222.137 90.4969L221.022 97.188L212.657 98.3032C210.427 95.5152 203.735 94.4 202.062 89.9393C200.724 86.3708 204.478 82.5048 206.523 81.5755L199.592 71.8727C198.78 70.7369 198.971 69.1697 200.031 68.2614C201.155 67.298 202.846 67.422 203.817 68.5391L213.215 79.3451C213.215 79.7169 213.549 79.6797 214.888 76.5572C216.561 72.6541 218.234 74.3268 219.349 74.8844C220.464 75.442 219.349 82.1331 219.349 84.3634Z" fill="#EFCB96"/>
<path d="M315.822 73.2119C308.238 73.2119 306.342 67.2643 306.342 64.2905C300.989 64.2905 297.482 66.904 296.367 67.6475L287.382 93.2851L285.709 201.457C304.446 207.256 328.09 203.874 337.57 201.457L343.704 68.1936C340.018 65.8482 334.633 64.8241 330.763 64.4596C328.87 64.2813 327.24 65.6217 326.273 67.259C324.591 70.1046 321.304 73.2119 315.822 73.2119Z" fill="white"/>
<path fill-rule="evenodd" clip-rule="evenodd" d="M297.231 68.313L288.415 93.4687L286.757 200.692C304.636 205.957 326.859 202.982 336.572 200.638L342.642 68.7597C339.188 66.7639 334.315 65.8337 330.666 65.4901C329.353 65.3664 328.04 66.3036 327.164 67.7854C325.351 70.853 321.767 74.247 315.822 74.247C311.719 74.247 309.04 72.6182 307.416 70.4952C306.141 68.8287 305.553 66.9101 305.372 65.3563C301.27 65.6174 298.47 67.4728 297.231 68.313ZM296.018 66.6332C297.353 65.7249 300.982 63.2549 306.342 63.2549H307.378V64.2902C307.378 65.5982 307.804 67.5941 309.061 69.237C310.28 70.8312 312.342 72.1763 315.822 72.1763C320.841 72.1763 323.831 69.3556 325.381 66.7319C326.441 64.9393 328.387 63.1956 330.86 63.4285C334.769 63.7966 340.359 64.8375 344.261 67.3199L344.767 67.6418L338.57 202.271L337.826 202.46C328.271 204.896 304.407 208.327 285.403 202.446L284.662 202.217L286.35 93.1009L295.505 66.9779L295.793 66.7857C295.859 66.7418 295.934 66.6907 296.018 66.6332Z" fill="#032068"/>
<path d="M296.304 122.28C297.084 108.629 301.332 84.037 304.126 69.3761C304.81 63.1558 307.149 62.7104 299.595 64.8811C273.144 72.4822 266.743 107.26 258.384 107.782C252.434 108.154 238.063 98.2206 228.708 91.0283C225.894 88.8653 221.899 89.0626 219.389 91.5719L213.409 97.5513C211.578 99.3824 210.897 102.085 211.913 104.467C218.822 120.663 238.248 146.226 250.577 152.389C261.284 157.742 269.909 150.159 272.883 145.698C272.697 160.01 272.437 190.529 272.883 198.112C273.441 207.591 272.883 215.397 279.575 216.512C286.267 217.627 299.092 215.397 299.092 213.167C299.092 210.936 295.189 141.795 296.304 122.28Z" fill="#2792A8"/>
<path d="M323.071 121.722C323.481 111.469 328.637 83.7779 331.776 68.1137C332.563 64.191 332.249 63.9542 336.373 65.1C365.275 73.1303 388.223 122.586 386.085 142.353C384.301 158.857 371.215 184.915 364.895 195.881C365.267 202.572 365.341 216.178 362.664 217.07C359.318 218.185 330.321 217.07 328.648 213.724C326.975 210.379 322.514 135.662 323.071 121.722Z" fill="#2792A8"/>
<path d="M329.413 197.14C325.911 195.627 324.298 191.562 325.811 188.06L336.796 162.634C338.309 159.132 342.375 157.519 345.878 159.032L383.216 175.161C386.719 176.674 388.331 180.739 386.818 184.241L375.833 209.667C374.32 213.169 370.254 214.782 366.752 213.269L329.413 197.14Z" fill="white"/>
<path fill-rule="evenodd" clip-rule="evenodd" d="M329.003 198.09C324.975 196.351 323.121 191.676 324.861 187.649L335.846 162.223C337.586 158.196 342.261 156.342 346.288 158.081L383.627 174.21C387.654 175.95 389.509 180.624 387.769 184.651L376.784 210.077C375.044 214.104 370.369 215.959 366.341 214.219L329.003 198.09ZM326.762 188.47C325.476 191.447 326.847 194.903 329.824 196.189L367.163 212.318C370.14 213.604 373.596 212.233 374.883 209.256L385.868 183.83C387.154 180.853 385.783 177.397 382.806 176.111L345.467 159.982C342.49 158.696 339.033 160.067 337.747 163.044L326.762 188.47Z" fill="#032068"/>
<path d="M383.297 122.28C379.766 127.856 374.375 143.245 381.067 160.196C384.413 153.876 389.543 137.446 383.297 122.28Z" fill="#032068"/>
<path d="M239.982 144.026C245.373 142.725 258.942 141.907 270.095 149.044C265.634 154.063 253.366 160.085 239.982 144.026Z" fill="#032068"/>
<path d="M275.671 114.474C274.555 124.51 273.44 137.335 272.882 146.814C270.206 149.936 263.588 152.947 260.614 154.062C268.198 145.587 272.325 126.741 275.671 114.474Z" fill="#032068"/>
<path d="M339.872 199.948C340.318 198.61 344.891 194.186 347.121 192.141C351.768 191.584 360.728 192.141 359.39 198.833C357.717 207.196 356.044 213.887 347.121 211.099C339.983 208.869 340.801 204.223 342.102 202.178C341.173 201.992 339.426 201.286 339.872 199.948Z" fill="#EFCB96"/>
<path d="M318.465 263.327L313.238 233.033V263.327H318.465Z" fill="white"/>
<path d="M325.86 44.2172L326.418 54.2538L326.554 65.2263C326.76 65.2174 327.386 64.2744 327.59 64.2695C337.574 64.0324 345.902 69.0706 348.817 71.4384C352.72 55.2683 339.243 44.2172 339.243 38.0837C339.243 31.9503 336.455 12.9924 317.495 12.4348C303.273 12.0165 299.38 23.6566 299.103 32.0047C299.074 32.8537 299.85 33.4781 300.648 33.184C304.467 31.7746 309.349 27.8536 312.253 24.7723C313.061 23.9153 314.726 24.1895 315.252 25.2431C316.594 27.9321 318.558 30.422 319.965 32.1237C320.171 32.3728 320.282 32.6825 320.288 33.0056C320.318 34.5866 320.483 36.7318 320.737 38.8504C320.916 40.3363 322.981 40.3309 323.448 38.909C323.973 37.3104 324.607 35.7815 325.302 34.7382C327.533 31.3927 330.879 34.1806 330.879 38.0837C330.879 41.2062 327.533 43.4738 325.86 44.2172Z" fill="#032068"/>
<path d="M295.747 66.5209C297.977 64.2905 300.394 53.3246 301.323 48.1205C302.216 52.5812 306.9 55.9267 309.13 57.0418L307.399 65.2263L306.881 63.6733C302.42 63.6733 297.792 65.5915 295.747 66.5209Z" fill="#032068"/>
<path d="M357.132 197.267L349.054 194.085C345.954 192.864 344.168 189.607 344.796 186.335C346.538 177.259 348.763 165.339 350.396 155.793L378.278 168.002C375.156 176.477 369.17 188.261 366.568 193.093L365.251 194.903C363.4 197.449 360.061 198.421 357.132 197.267Z" fill="#2792A8"/>
<path d="M352.626 140.123C352.626 135.216 343.89 120.793 339.8 112.243C348.783 138.949 349.306 145.221 345.124 184.946C347.738 171.879 352.626 142.464 352.626 140.123Z" fill="#032068"/>
<path d="M317.942 56.8862C314.178 58.5588 310.449 57.5832 309.056 56.8862L308.01 62.1131C313.028 62.1131 316.722 58.6285 317.942 56.8862Z" fill="#032068"/>
</g>
<defs>
<clipPath id="clip0_34_317">
<rect width="402" height="263" fill="white"/>
</clipPath>
</defs>
</svg>
