<svg width="480" height="371" viewBox="0 0 480 371" fill="none" xmlns="http://www.w3.org/2000/svg">
<path d="M82.4439 366.197H406.933C453.766 366.197 485.103 318.06 466.106 275.302C459.724 260.939 458.797 244.747 463.498 229.751L476.244 189.087C489.529 146.7 460.691 102.764 416.478 98.0322L411.922 97.5446C385.023 94.6658 362.841 75.2026 356.516 48.9286C344.975 0.983134 285.731 -16.4068 250.055 17.679L230.707 36.1651C212.957 53.1241 188.223 60.6977 164.007 56.5883L160.464 55.987C110.383 47.4884 66.4948 90.1029 73.5817 140.347C77.4313 167.639 65.9762 194.84 43.7532 211.177L33.8758 218.439C15.1208 232.226 3.12521 253.334 0.886861 276.487C-3.76191 324.573 34.0796 366.197 82.4439 366.197Z" fill="#E7E8FF"/>
<path d="M169.872 324.874C179.249 336.747 157.108 356.38 144.865 364.712H137.832C144.605 346.485 160.494 313 169.872 324.874Z" fill="white"/>
<path fill-rule="evenodd" clip-rule="evenodd" d="M165.929 323.527C166.921 323.663 167.958 324.239 169.002 325.56C171.083 328.195 171.452 331.269 170.57 334.656C169.677 338.084 167.51 341.771 164.607 345.432C158.897 352.635 150.571 359.453 144.523 363.604H139.434C142.851 354.649 148.196 342.69 153.803 334.111C156.784 329.551 159.748 326.092 162.434 324.475C163.758 323.678 164.918 323.387 165.929 323.527ZM151.947 332.899C145.891 342.165 140.191 355.181 136.793 364.326L136.238 365.82H145.207L145.489 365.628C151.663 361.426 160.357 354.362 166.345 346.809C169.336 343.037 171.711 339.068 172.715 335.215C173.729 331.321 173.35 327.488 170.742 324.187C169.441 322.54 167.93 321.565 166.232 321.331C164.553 321.1 162.88 321.62 161.29 322.577C158.148 324.468 154.957 328.294 151.947 332.899Z" fill="#032068"/>
<path d="M151.899 264.725C172.529 280.973 153.201 338.153 140.958 364.712H119.859C120.641 328.779 126.111 244.415 151.899 264.725Z" fill="#032068"/>
<path fill-rule="evenodd" clip-rule="evenodd" d="M142.078 292.523L145.337 274.681L147.518 275.079L139.79 317.385L151.389 311.391L152.407 313.36L139.287 320.14L131.108 364.911L128.927 364.513L133.702 338.375L125.169 324.678L127.051 323.507L134.294 335.133L141.288 296.848L136.008 282.288L138.093 281.533L142.078 292.523Z" fill="white"/>
<path d="M90.1633 252.226C120.796 254.726 133.143 328.259 135.488 364.712H115.951C96.4149 341.278 51.872 249.102 90.1633 252.226Z" fill="white"/>
<path fill-rule="evenodd" clip-rule="evenodd" d="M80.2363 256.008C82.3534 254.016 85.5016 252.958 90.0731 253.331C97.2617 253.918 103.519 258.679 108.932 266.368C114.339 274.048 118.786 284.489 122.375 296.065C129.396 318.711 133.054 345.439 134.303 363.604H116.474C106.783 351.766 91.0816 323.354 82.4204 298.15C78.0334 285.384 75.5171 273.618 76.3937 265.305C76.8305 261.163 78.0945 258.025 80.2363 256.008ZM80.3235 298.87C89.1461 324.544 105.224 353.575 115.1 365.422L115.432 365.82H136.67L136.594 364.641C135.418 346.361 131.736 318.771 124.493 295.409C120.873 283.732 116.343 273.043 110.745 265.093C105.155 257.152 98.3814 251.785 90.2535 251.122C85.2522 250.714 81.4161 251.853 78.7163 254.395C76.0412 256.913 74.6555 260.646 74.1888 265.073C73.2583 273.896 75.9191 286.053 80.3235 298.87Z" fill="#032068"/>
<path d="M93.2889 331.904C102.041 328.155 114.819 353.699 119.768 366.197H111.953C104.139 360.729 82.3485 336.591 93.2889 331.904Z" fill="#032068"/>
<path fill-rule="evenodd" clip-rule="evenodd" d="M96.1679 282.916L89.8994 265.092L91.9911 264.357L106.119 304.529L112.706 295.326L114.509 296.616L107.018 307.083L127.157 364.345L125.065 365.08L113.654 332.635L102.856 325.81L104.041 323.937L112.468 329.263L97.197 285.842L84.2248 279.79L85.1625 277.781L96.1679 282.916Z" fill="#032068"/>
<path d="M420.632 274.021L417.399 278.259C417.202 278.517 416.882 278.641 416.567 278.581L412.571 277.815C411.712 277.65 411.193 278.756 411.856 279.339L414.997 282.1C415.226 282.302 415.335 282.612 415.282 282.917L414.494 287.469C414.346 288.325 415.375 288.855 415.958 288.223L419.185 284.724C419.374 284.519 419.649 284.419 419.922 284.458L423.656 284.978C424.497 285.095 424.973 284.022 424.334 283.451L421.557 280.971C421.334 280.772 421.227 280.469 421.275 280.17L422.151 274.701C422.294 273.807 421.177 273.307 420.632 274.021Z" fill="white"/>
<path d="M151.52 7.45596L151.194 11.8122C151.174 12.0772 151.009 12.304 150.768 12.4L147.694 13.6217C147.033 13.8845 147.17 14.8787 147.883 14.992L151.258 15.5282C151.505 15.5674 151.717 15.7351 151.816 15.9694L153.302 19.4709C153.581 20.1291 154.52 20.0448 154.638 19.3509L155.289 15.5104C155.327 15.285 155.471 15.0957 155.675 15.0022L158.46 13.7251C159.087 13.4375 158.936 12.4848 158.244 12.3694L155.243 11.8682C155.002 11.8279 154.794 11.6646 154.694 11.4365L152.861 7.26148C152.562 6.57866 151.576 6.72167 151.52 7.45596Z" fill="#2792A8"/>
<path d="M320.242 45.015C320.242 42.4274 322.339 40.3298 324.927 40.3298H447.863C450.451 40.3298 452.549 42.4274 452.549 45.015V232.88C452.549 235.468 450.451 237.565 447.863 237.565H324.927C322.339 237.565 320.242 235.468 320.242 232.88V45.015Z" fill="white"/>
<path fill-rule="evenodd" clip-rule="evenodd" d="M319.539 45.0151C319.539 42.0397 321.951 39.6277 324.927 39.6277H447.863C450.839 39.6277 453.251 42.0397 453.251 45.0151V232.88C453.251 235.855 450.839 238.267 447.863 238.267H324.927C321.951 238.267 319.539 235.855 319.539 232.88V45.0151ZM324.927 41.0322C322.727 41.0322 320.944 42.8154 320.944 45.0151V232.88C320.944 235.08 322.727 236.863 324.927 236.863H447.863C450.063 236.863 451.846 235.08 451.846 232.88V45.0151C451.846 42.8154 450.063 41.0322 447.863 41.0322H324.927Z" fill="#032068"/>
<path d="M320.242 45.015C320.242 42.4274 322.339 40.3298 324.927 40.3298H447.863C450.451 40.3298 452.549 42.4274 452.549 45.015V68.5063H320.242V45.015Z" fill="#032068"/>
<path d="M346.099 54.6185C346.099 58.0006 343.357 60.7424 339.975 60.7424C336.593 60.7424 333.851 58.0006 333.851 54.6185C333.851 51.2364 336.593 48.4946 339.975 48.4946C343.357 48.4946 346.099 51.2364 346.099 54.6185Z" fill="white"/>
<path d="M366.514 54.6185C366.514 58.0006 363.772 60.7424 360.39 60.7424C357.008 60.7424 354.266 58.0006 354.266 54.6185C354.266 51.2364 357.008 48.4946 360.39 48.4946C363.772 48.4946 366.514 51.2364 366.514 54.6185Z" fill="white"/>
<path d="M386.924 54.6185C386.924 58.0006 384.182 60.7424 380.8 60.7424C377.418 60.7424 374.676 58.0006 374.676 54.6185C374.676 51.2364 377.418 48.4946 380.8 48.4946C384.182 48.4946 386.924 51.2364 386.924 54.6185Z" fill="white"/>
<path d="M428.048 139.56C428.048 162.564 409.399 181.212 386.395 181.212C363.392 181.212 344.743 162.564 344.743 139.56C344.743 116.556 363.392 97.9077 386.395 97.9077C409.399 97.9077 428.048 116.556 428.048 139.56Z" fill="#E7E8FF"/>
<path d="M363.119 198.543C363.119 197.767 363.748 197.138 364.524 197.138H409.492C410.268 197.138 410.897 197.767 410.897 198.543V203.084C410.897 203.86 410.268 204.489 409.492 204.489H364.524C363.748 204.489 363.119 203.86 363.119 203.084V198.543Z" fill="#032068"/>
<path d="M393.377 132.186H408.446V145.213H393.377V162.836H379.457V145.213H364.344V132.186H379.457V115.059H393.377V132.186Z" fill="#032068"/>
<path d="M163.434 43.8192C163.434 41.2156 165.531 39.105 168.119 39.105H291.055C293.643 39.105 295.74 41.2156 295.74 43.8192V232.851C295.74 235.455 293.643 237.565 291.055 237.565H168.119C165.531 237.565 163.434 235.455 163.434 232.851V43.8192Z" fill="white"/>
<path fill-rule="evenodd" clip-rule="evenodd" d="M162.731 43.8193C162.731 40.8254 165.143 38.3984 168.119 38.3984H291.055C294.031 38.3984 296.443 40.8254 296.443 43.8193V232.851C296.443 235.845 294.031 238.272 291.055 238.272H168.119C165.143 238.272 162.731 235.845 162.731 232.851V43.8193ZM168.119 39.8116C165.919 39.8116 164.136 41.6059 164.136 43.8193V232.851C164.136 235.065 165.919 236.859 168.119 236.859H291.055C293.255 236.859 295.038 235.065 295.038 232.851V43.8193C295.038 41.6059 293.255 39.8116 291.055 39.8116H168.119Z" fill="#032068"/>
<path d="M163.434 43.8192C163.434 41.2156 165.531 39.105 168.119 39.105H291.055C293.643 39.105 295.74 41.2156 295.74 43.8192V67.4565H163.434V43.8192Z" fill="#032068"/>
<path d="M189.291 53.4825C189.291 56.8856 186.549 59.6444 183.167 59.6444C179.785 59.6444 177.043 56.8856 177.043 53.4825C177.043 50.0793 179.785 47.3206 183.167 47.3206C186.549 47.3206 189.291 50.0793 189.291 53.4825Z" fill="white"/>
<path d="M209.705 53.4825C209.705 56.8856 206.964 59.6444 203.582 59.6444C200.199 59.6444 197.458 56.8856 197.458 53.4825C197.458 50.0793 200.199 47.3206 203.582 47.3206C206.964 47.3206 209.705 50.0793 209.705 53.4825Z" fill="white"/>
<path d="M230.116 53.4825C230.116 56.8856 227.374 59.6444 223.992 59.6444C220.61 59.6444 217.868 56.8856 217.868 53.4825C217.868 50.0793 220.61 47.3206 223.992 47.3206C227.374 47.3206 230.116 50.0793 230.116 53.4825Z" fill="white"/>
<path d="M254.629 132.628C255.109 132.195 255.821 132.147 256.355 132.511L278.449 147.584C278.835 147.847 279.066 148.285 279.066 148.753V168.746C279.066 169.526 278.437 170.159 277.661 170.159H216.683C215.394 170.159 214.786 168.559 215.746 167.693L254.629 132.628Z" fill="#032068"/>
<path d="M246.236 115.376C246.236 120.27 242.293 124.238 237.428 124.238C232.564 124.238 228.621 120.27 228.621 115.376C228.621 110.482 232.564 106.514 237.428 106.514C242.293 106.514 246.236 110.482 246.236 115.376Z" fill="#2792A8"/>
<path fill-rule="evenodd" clip-rule="evenodd" d="M179.883 88.5925C179.883 87.4217 180.826 86.4727 181.99 86.4727H277.662C278.825 86.4727 279.769 87.4217 279.769 88.5925V168.746C279.769 169.917 278.825 170.866 277.662 170.866H181.99C180.826 170.866 179.883 169.917 179.883 168.746V88.5925ZM181.99 87.8859C181.602 87.8859 181.288 88.2022 181.288 88.5925V168.746C181.288 169.136 181.602 169.453 181.99 169.453H277.662C278.05 169.453 278.364 169.136 278.364 168.746V88.5925C278.364 88.2022 278.05 87.8859 277.662 87.8859H181.99Z" fill="#E7E8FF"/>
<path d="M180.584 148.285C180.584 147.853 180.78 147.445 181.117 147.177L210.494 123.76C211.024 123.337 211.78 123.355 212.29 123.803L262.233 167.681C263.211 168.54 262.607 170.159 261.31 170.159H181.989C181.213 170.159 180.584 169.526 180.584 168.746V148.285Z" fill="#E7E8FF"/>
<path fill-rule="evenodd" clip-rule="evenodd" d="M211.828 124.335C211.573 124.111 211.195 124.102 210.93 124.314L181.553 147.731C181.385 147.865 181.286 148.069 181.286 148.285V168.746C181.286 169.136 181.601 169.452 181.989 169.452H261.31C261.958 169.452 262.26 168.643 261.772 168.214L211.828 124.335ZM210.058 123.206C210.854 122.571 211.986 122.598 212.752 123.271L262.695 167.149C264.161 168.437 263.256 170.866 261.31 170.866H181.989C180.825 170.866 179.882 169.917 179.882 168.746V148.285C179.882 147.637 180.176 147.025 180.681 146.623L210.058 123.206Z" fill="#E7E8FF"/>
<path d="M265.729 236.286L256.356 229.892C255.822 229.528 255.11 229.577 254.63 230.01L247.67 236.286H265.729Z" fill="#032068"/>
<path d="M246.236 212.757C246.236 217.652 242.293 221.619 237.428 221.619C232.564 221.619 228.621 217.652 228.621 212.757C228.621 207.863 232.564 203.896 237.428 203.896C242.293 203.896 246.236 207.863 246.236 212.757Z" fill="#2792A8"/>
<path fill-rule="evenodd" clip-rule="evenodd" d="M179.882 185.974C179.882 184.803 180.825 183.854 181.989 183.854H277.661C278.824 183.854 279.767 184.803 279.767 185.974V236.333H278.363V185.974C278.363 185.583 278.048 185.267 277.661 185.267H181.989C181.601 185.267 181.286 185.583 181.286 185.974V236.333H179.882V185.974Z" fill="#E7E8FF"/>
<path d="M229.584 236.333L212.293 221.185C211.781 220.737 211.024 220.721 210.494 221.147L191.607 236.333H229.584Z" fill="#E7E8FF"/>
<path d="M6.62524 45.015C6.62524 42.4274 8.74227 40.3298 11.3538 40.3298H135.429C138.04 40.3298 140.157 42.4274 140.157 45.015V232.88C140.157 235.468 138.04 237.565 135.429 237.565H11.3538C8.74227 237.565 6.62524 235.468 6.62524 232.88V45.015Z" fill="white"/>
<path fill-rule="evenodd" clip-rule="evenodd" d="M5.9165 45.0151C5.9165 42.0397 8.35085 39.6277 11.3538 39.6277H135.429C138.432 39.6277 140.866 42.0397 140.866 45.0151V232.88C140.866 235.855 138.432 238.267 135.429 238.267H11.3538C8.35085 238.267 5.9165 235.855 5.9165 232.88V45.0151ZM11.3538 41.0322C9.1337 41.0322 7.33399 42.8154 7.33399 45.0151V232.88C7.33399 235.08 9.1337 236.863 11.3538 236.863H135.429C137.649 236.863 139.448 235.08 139.448 232.88V45.0151C139.448 42.8154 137.649 41.0322 135.429 41.0322H11.3538Z" fill="#032068"/>
<path d="M6.62524 45.015C6.62524 42.4274 8.74227 40.3298 11.3538 40.3298H135.429C138.04 40.3298 140.157 42.4274 140.157 45.015V68.5063H6.62524V45.015Z" fill="#032068"/>
<path d="M32.7221 54.6185C32.7221 58.0006 29.9549 60.7424 26.5415 60.7424C23.128 60.7424 20.3609 58.0006 20.3609 54.6185C20.3609 51.2364 23.128 48.4946 26.5415 48.4946C29.9549 48.4946 32.7221 51.2364 32.7221 54.6185Z" fill="white"/>
<path d="M53.3255 54.6185C53.3255 58.0006 50.5584 60.7424 47.1449 60.7424C43.7315 60.7424 40.9644 58.0006 40.9644 54.6185C40.9644 51.2364 43.7315 48.4946 47.1449 48.4946C50.5584 48.4946 53.3255 51.2364 53.3255 54.6185Z" fill="white"/>
<path d="M73.9246 54.6185C73.9246 58.0006 71.1575 60.7424 67.744 60.7424C64.3306 60.7424 61.5634 58.0006 61.5634 54.6185C61.5634 51.2364 64.3306 48.4946 67.744 48.4946C71.1575 48.4946 73.9246 51.2364 73.9246 54.6185Z" fill="white"/>
<path d="M96.8832 106.483C96.8832 119.338 86.3656 129.759 73.3914 129.759C60.4173 129.759 49.8997 119.338 49.8997 106.483C49.8997 93.6281 60.4173 83.207 73.3914 83.207C86.3656 83.207 96.8832 93.6281 96.8832 106.483Z" fill="#E7E8FF"/>
<path d="M73.6184 106.764C67.2181 106.764 61.9085 111.46 60.9114 117.613C60.7252 118.762 61.6951 119.712 62.8693 119.712H84.3674C85.5417 119.712 86.5116 118.762 86.3254 117.613C85.3283 111.46 80.0187 106.764 73.6184 106.764Z" fill="white"/>
<path d="M79.9592 99.1477C79.9592 102.513 77.2061 105.241 73.8099 105.241C70.4137 105.241 67.6605 102.513 67.6605 99.1477C67.6605 95.7826 70.4137 93.0547 73.8099 93.0547C77.2061 93.0547 79.9592 95.7826 79.9592 99.1477Z" fill="white"/>
<path d="M48.6631 144.64C48.6631 143.864 49.2977 143.235 50.0806 143.235H95.4655C96.2483 143.235 96.8829 143.864 96.8829 144.64V149.181C96.8829 149.957 96.2483 150.586 95.4655 150.586H50.0806C49.2977 150.586 48.6631 149.957 48.6631 149.181V144.64Z" fill="#032068"/>
<path d="M21.4621 171.591C21.4621 170.816 22.0967 170.187 22.8796 170.187H49.7184C50.5012 170.187 51.1358 170.816 51.1358 171.591V199.409C51.1358 200.185 50.5012 200.813 49.7184 200.813H22.8796C22.0967 200.813 21.4621 200.185 21.4621 199.409V171.591Z" fill="#E7E8FF"/>
<path d="M58.5544 171.591C58.5544 170.815 59.189 170.187 59.9718 170.187H86.8106C87.5935 170.187 88.2281 170.815 88.2281 171.591V199.409C88.2281 200.184 87.5935 200.813 86.8106 200.813H59.9718C59.189 200.813 58.5544 200.184 58.5544 199.409V171.591Z" fill="#E7E8FF"/>
<path d="M95.647 171.591C95.647 170.815 96.2816 170.187 97.0645 170.187H123.903C124.686 170.187 125.321 170.815 125.321 171.591V199.409C125.321 200.184 124.686 200.813 123.903 200.813H97.0645C96.2816 200.813 95.647 200.184 95.647 199.409V171.591Z" fill="#2792A8"/>
<path d="M21.4621 216.918C21.4621 216.143 22.0967 215.514 22.8796 215.514H49.7184C50.5012 215.514 51.1358 216.143 51.1358 216.918V236.34H21.4621V216.918Z" fill="#E7E8FF"/>
<path d="M58.5544 216.918C58.5544 216.143 59.189 215.514 59.9718 215.514H86.8106C87.5935 215.514 88.2281 216.143 88.2281 216.918V236.34H58.5544V216.918Z" fill="#E7E8FF"/>
<path d="M95.647 216.918C95.647 216.143 96.2816 215.514 97.0645 215.514H123.903C124.686 215.514 125.321 216.143 125.321 216.918V236.34H95.647V216.918Z" fill="#E7E8FF"/>
<path d="M114.431 187.338H151.795M151.795 187.338V147.46C151.795 145.804 153.139 144.46 154.795 144.46H163.433M151.795 187.338V256.004C151.795 257.661 153.139 259.004 154.795 259.004H382.783C384.439 259.004 385.783 257.661 385.783 256.004V238.79" stroke="#032068" stroke-width="2"/>
<path d="M169.219 213.344C169.219 215.946 173.211 220.157 174.512 221.458L163.452 229.265C163.452 228.398 162.281 226.012 157.597 223.41C151.742 220.157 147.839 218.205 146.538 212.35C145.237 206.495 149.14 200.314 153.043 201.29C158.248 202.591 162.802 210.398 163.452 207.796C163.973 205.714 162.966 204.031 162.75 202.73C163.183 202.296 163.676 199.469 166.278 201.551C169.531 204.153 169.219 210.091 169.219 213.344Z" fill="#EFCB96"/>
<path d="M311.284 190.524L314.231 205.893C312.856 207.469 308.454 210.74 301.851 211.213C295.249 211.686 289.275 208.651 287.113 207.075L288.882 192.889C278.86 187.569 282.397 167.472 287.113 160.379C291.829 153.285 311.284 152.103 316 168.654C319.773 181.894 314.428 188.751 311.284 190.524Z" fill="#EFCB96"/>
<path d="M350.84 217.138C334.333 200.114 314.289 200.587 295.424 200.587C254.158 200.587 225.271 241.373 217.018 240.781C208.764 240.19 176.93 214.773 173.982 214.773C171.035 214.773 155.117 226.004 155.707 234.279C156.296 242.555 189.31 293.389 200.511 298.118C209.472 301.901 229.398 296.541 238.24 293.389C237.454 312.895 236.826 353.208 240.599 358.409C245.315 364.911 250.62 367.276 280.097 370.231C306.168 372.845 350.689 368.985 363.073 366.014C368.158 365.062 368.273 335.15 367.695 320.313C382.949 320.313 383.644 302.364 382.085 293.389C381.495 282.749 371.473 238.417 350.84 217.138Z" fill="#2792A8"/>
<path d="M188.13 286.296C208.882 284.404 224.681 291.812 229.987 295.753C224.681 297.526 211.947 300.718 203.458 299.3C194.969 297.881 189.703 290.039 188.13 286.296Z" fill="#032068"/>
<path d="M360.761 253.686C364.459 268.981 366.925 304.477 367.695 320.313H371.162C368.851 289.607 363.843 263.149 360.761 253.686Z" fill="#032068"/>
<path d="M268.308 275.065C261.705 281.685 245.513 290.039 238.242 293.389V301.664C244.845 299.3 261.037 282.946 268.308 275.065Z" fill="#032068"/>
<path d="M382.72 300.615C378.097 301.773 368.621 307.335 367.696 320.313C372.319 320.699 382.142 319.734 382.72 300.615Z" fill="#032068"/>
<path d="M321.615 158.955C317.687 152.391 309.794 148.926 306.339 148.014C286.153 142.544 279.061 158.955 281.789 163.331C284.517 167.707 282.334 172.084 285.062 177.007C287.79 181.93 287.79 185.759 285.062 193.965C282.334 202.17 283.426 208.187 285.062 213.111C286.699 218.034 282.334 221.863 285.062 229.521C287.79 237.18 299.247 236.086 304.703 233.35C310.159 230.615 317.249 239.368 326.525 237.727C335.801 236.086 339.072 228.427 334.709 219.675C330.345 210.922 333.072 213.111 334.709 205.452C336.345 197.794 330.89 193.965 326.525 186.306C322.16 178.648 326.525 167.16 321.615 158.955Z" fill="#032068"/>
</svg>
